<svg xmlns="http://www.w3.org/2000/svg" xmlns:xlink="http://www.w3.org/1999/xlink" version="1.1" width="799.776pt" height="363.6pt" viewBox="0 0 799.776 363.6">
<path d="M105.804 69.44088V58.53288H116.244V55.68888H105.804V46.58088H116.928V43.73688H102.564V69.44088H105.804Z" fill="#9d61ff" fill-rule="evenodd"/>
<path d="M130.986 49.838884C130.566 49.80288 130.176 49.78488 129.816 49.78488 128.472 49.78488 127.308 50.16888 126.324 50.93688 125.34 51.70488 124.535999 52.61688 123.912 53.672883H123.768L123.408 50.14488H120.816V69.44088H123.984V59.14488C123.984 57.84888 124.242 56.71488 124.758 55.74288 125.274 54.77088 125.964 54.01488 126.828 53.47488 127.692 52.93488 128.616 52.664884 129.6 52.664884 129.936 52.664884 130.29 52.68888 130.662 52.73688 131.034 52.78488 131.376 52.84488 131.688 52.91688L132.084 50.00088C131.772 49.928884 131.406 49.87488 130.986 49.838884Z" fill="#9d61ff" fill-rule="evenodd"/>
<path d="M149.31 67.17288C150.93001 65.42088 151.74 62.94888 151.74 59.75688 151.74 57.62088 151.362 55.81488 150.606 54.338884 149.85 52.86288 148.806 51.734884 147.474 50.95488 146.142 50.17488 144.6 49.78488 142.84799 49.78488 140.088 49.78488 137.904 50.64888 136.296 52.37688 134.688 54.10488 133.884 56.56488 133.884 59.75688 133.884 61.89288 134.268 63.71088 135.036 65.21088 135.804 66.71088 136.854 67.85088 138.186 68.63088 139.518 69.41088 141.036 69.80088 142.74 69.80088 145.5 69.80088 147.69 68.92488 149.31 67.17288ZM138.51 65.17488C137.61 63.84288 137.16 62.03688 137.16 59.75688 137.16 57.47688 137.604 55.68888 138.492 54.39288 139.38 53.09688 140.808 52.44888 142.776 52.44888 144.744 52.44888 146.184 53.09688 147.096 54.39288 148.008 55.68888 148.464 57.47688 148.464 59.75688 148.464 62.03688 148.008 63.84288 147.096 65.17488 146.184 66.50688 144.756 67.17288 142.812 67.17288 140.844 67.17288 139.41 66.50688 138.51 65.17488Z" fill="#9d61ff" fill-rule="evenodd"/>
<path d="M171.252 51.45888C170.076 50.34288 168.336 49.78488 166.032 49.78488 164.808 49.78488 163.644 50.03088 162.54 50.52288 161.436 51.01488 160.572 51.76488 159.948 52.77288H159.768L159.3 50.14488H156.744V69.44088H159.912V59.43288C159.912 57.17688 160.31999 55.44888 161.136 54.248884 161.952 53.04888 163.428 52.44888 165.564 52.44888 168.444 52.44888 169.884 53.99688 169.884 57.09288V69.44088H173.01599V56.87688C173.01599 54.380884 172.428 52.574884 171.252 51.45888Z" fill="#9d61ff" fill-rule="evenodd"/>
<path d="M186.912 67.08288C186.408 67.16688 185.916 67.20888 185.43599 67.20888 184.548 67.20888 183.822 66.92688 183.258 66.36288 182.694 65.79888 182.412 64.92888 182.412 63.75288V52.59288H187.992V50.14488H182.412V45.71688H180.54L179.28 49.82088 176.508 51.08088V52.59288H179.244V63.82488C179.244 65.38488 179.508 66.59688 180.036 67.46088 180.564 68.32488 181.254 68.93088 182.106 69.27888 182.958 69.62688 183.888 69.80088 184.896 69.80088 185.472 69.80088 186.072 69.74688 186.696 69.63888 187.32 69.53088 187.8 69.39288 188.136 69.22488V66.81288C187.82399 66.90888 187.416 66.99888 186.912 67.08288Z" fill="#9d61ff" fill-rule="evenodd"/>
<path stroke-width=".72" stroke-linecap="butt" stroke-miterlimit="4" stroke-linejoin="miter" fill="none" stroke="#000000" d="M7.370075 0V37.22088H0V73.724887H7.370075V131.15792H54.252V123.78784H89.748V131.15792H126.252V123.78784H161.748V131.15792H198.252V123.78784H233.748V131.15792H280.6299V73.724887H288V37.22088H280.6299V0H7.370075Z"/>
<path stroke-width=".72" stroke-linecap="butt" stroke-miterlimit="4" stroke-linejoin="miter" fill="none" stroke="#000000" d="M299.54609 0H500.8059 508.176V50.56696H500.8059V86.06296H508.176V136.62993 144H500.8059 453.924V136.62993H418.428V144H381.924V136.62993H346.428V144H299.54609 292.176V136.62993 86.06296H299.54609V50.56696H292.176V0H299.54609Z"/>
<path d="M371.394 82.28296H385.866V79.40296H374.634V56.57896H371.394V82.28296Z" fill="#9d61ff" fill-rule="evenodd"/>
<path d="M401.544 63.706964C400.356 62.98696 398.934 62.62696 397.27799 62.62696 395.574 62.62696 394.08 63.03496 392.796 63.85096 391.512 64.66696 390.516 65.83096 389.808 67.342967 389.1 68.85496 388.746 70.66696 388.746 72.77896 388.746 74.91496 389.136 76.72096 389.91603 78.19696 390.696 79.67296 391.788 80.78296 393.192 81.52696 394.596 82.27096 396.21 82.64296 398.034 82.64296 399.354 82.64296 400.494 82.54096 401.454 82.33696 402.414 82.13296 403.386 81.814968 404.37 81.38296V78.61096C403.362 79.04296 402.384 79.37296 401.436 79.60096 400.488 79.828968 399.402 79.94296 398.178 79.94296 396.258 79.94296 394.764 79.37296 393.69599 78.23296 392.628 77.09296 392.07 75.43096 392.022 73.24696H405.234V71.33896C405.234 69.58696 404.916 68.05696 404.28 66.74896 403.644 65.44096 402.732 64.42696 401.544 63.706964ZM393.66 66.67696C394.536 65.70496 395.73 65.21896 397.242 65.21896 398.85 65.21896 400.026 65.72896 400.77 66.74896 401.514 67.76896 401.898 69.09496 401.922 70.72696H392.094C392.262 68.99896 392.784 67.64896 393.66 66.67696Z" fill="#9d61ff" fill-rule="evenodd"/>
<path d="M419.022 65.43496V62.98696H414.162V61.72696C414.162 60.214963 414.42 59.10496 414.936 58.39696 415.452 57.68896 416.238 57.33496 417.294 57.33496 417.822 57.33496 418.338 57.39496 418.842 57.51496 419.346 57.63496 419.79 57.75496 420.174 57.87496L421.002 55.39096C420.546 55.22296 420 55.07296 419.364 54.94096 418.728 54.80896 418.026 54.74296 417.258 54.74296 415.29 54.74296 413.754 55.28896 412.65 56.38096 411.546 57.47296 410.994 59.26696 410.994 61.762964V62.878965L407.61003 63.95896V65.43496H410.994V82.28296H414.162V65.43496H419.022Z" fill="#9d61ff" fill-rule="evenodd"/>
<path d="M430.434 79.92496C429.93 80.008968 429.438 80.050968 428.958 80.050968 428.07 80.050968 427.344 79.76896 426.78 79.20496 426.216 78.64096 425.934 77.77096 425.934 76.59496V65.43496H431.514V62.98696H425.934V58.55896H424.062L422.802 62.66296 420.03 63.922964V65.43496H422.766V76.66696C422.766 78.22696 423.03 79.43896 423.558 80.30296 424.086 81.16696 424.776 81.772968 425.628 82.120967 426.48 82.46896 427.41 82.64296 428.418 82.64296 428.994 82.64296 429.594 82.58896 430.218 82.480968 430.842 82.37296 431.322 82.23496 431.658 82.06696V79.65496C431.346 79.75096 430.938 79.84096 430.434 79.92496Z" fill="#9d61ff" fill-rule="evenodd"/>
<path d="M291.6 4.32H504.98194V12.842079H291.6V4.32Z" fill="#ff0000" fill-rule="evenodd"/>
<path stroke-width=".72" stroke-linecap="butt" stroke-miterlimit="4" stroke-linejoin="miter" fill="none" stroke="#000000" d="M519.14608 0H792.40597V50.06296H799.776V86.56696H792.40597V136.62993 144H745.524V136.62993H710.028V144H673.524V136.62993H638.028V144H601.524V136.62993H566.028V144H519.14608V136.62993 86.56696H511.776V50.06296H519.14608V0Z"/>
<path d="M626.562 56.57896H619.218V82.28296H628.254C631.014 82.28296 633.192 81.64696 634.788 80.37496 636.384 79.10296 637.182 77.30296 637.182 74.97496 637.182 73.63096 636.93 72.53896 636.426 71.69896 635.922 70.85896 635.232 70.21096 634.356 69.75496 633.48 69.29896 632.502 68.98696 631.422 68.81896V68.63896C633.006 68.35096 634.218 67.70896 635.058 66.71296 635.898 65.716968 636.318 64.46296 636.318 62.950963 636.318 60.59896 635.496 58.94896 633.852 58.00096 632.208 57.05296 629.778 56.57896 626.562 56.57896ZM627.21 67.522968H622.458V59.35096H626.706C628.89 59.35096 630.48 59.65696 631.476 60.26896 632.472 60.88096 632.97 61.89496 632.97 63.31096 632.97 64.70296 632.562 65.75296 631.746 66.46096 630.93 67.16896 629.418 67.522968 627.21 67.522968ZM622.458 70.22296H627.39C629.766 70.22296 631.416 70.63696 632.34 71.46496 633.264 72.29296 633.726 73.37896 633.726 74.72296 633.726 76.162967 633.282 77.32696 632.394 78.21496 631.506 79.10296 629.922 79.54696 627.642 79.54696H622.458V70.22296Z" fill="#9d61ff" fill-rule="evenodd"/>
<path d="M654.714 64.21096C653.586 63.178964 651.846 62.66296 649.494 62.66296 648.246 62.66296 647.046 62.824964 645.894 63.14896 644.742 63.47296 643.746 63.86296 642.906 64.31896L643.878 66.69496C644.67 66.31096 645.522 65.96896 646.434 65.66896 647.346 65.36896 648.30599 65.21896 649.314 65.21896 650.586 65.21896 651.57 65.53096 652.266 66.15496 652.962 66.77896 653.31 67.89496 653.31 69.50296V70.65496L650.034 70.76296C646.89 70.85896 644.562 71.42896 643.05 72.47296 641.538 73.51696 640.782 74.99896 640.782 76.91896 640.782 78.88696 641.358 80.33296 642.51 81.25696 643.662 82.18096 645.114 82.64296 646.866 82.64296 648.498 82.64296 649.776 82.39096 650.7 81.88696 651.624 81.38296 652.506 80.60296 653.346 79.54696H653.49L654.102 82.28296H656.406V69.14296C656.406 66.88696 655.842 65.24296 654.714 64.21096ZM650.43 72.95896 653.274 72.85096V74.578968C653.274 76.45096 652.734 77.83696 651.654 78.73696 650.574 79.63696 649.218 80.08696 647.586 80.08696 646.554 80.08696 645.708 79.83496 645.048 79.33096 644.388 78.82696 644.058 78.03496 644.058 76.95496 644.058 75.730968 644.52 74.78296 645.444 74.11096 646.368 73.43896 648.03 73.05496 650.43 72.95896Z" fill="#9d61ff" fill-rule="evenodd"/>
<path d="M665.568 81.59896C666.9 82.29496 668.418 82.64296 670.122 82.64296 671.226 82.64296 672.16799 82.55296 672.948 82.37296 673.728 82.19296 674.442 81.93496 675.09 81.59896V78.79096C674.41799 79.10296 673.68 79.36696 672.876 79.58296 672.072 79.79896 671.142 79.90696 670.086 79.90696 668.262 79.90696 666.888 79.28896 665.964 78.05296 665.04 76.81696 664.578 75.03496 664.578 72.70696 664.578 67.83496 666.474 65.39896 670.266 65.39896 670.938 65.39896 671.658 65.494968 672.426 65.68696 673.19406 65.87896 673.866 66.08296 674.442 66.29896L675.414 63.67096C674.838 63.38296 674.094 63.13696 673.182 62.93296 672.27 62.728963 671.322 62.62696 670.338 62.62696 668.61 62.62696 667.068 62.97496 665.712 63.67096 664.356 64.36696 663.282 65.45896 662.49 66.94696 661.698 68.43496 661.302 70.36696 661.302 72.74296 661.302 75.022968 661.68 76.89496 662.436 78.35896 663.192 79.82296 664.236 80.90296 665.568 81.59896Z" fill="#9d61ff" fill-rule="evenodd"/>
<path d="M682.794 69.21496V54.922964H679.662V82.28296H682.794V75.19096L684.99 73.28296 691.686 82.28296H695.502L687.15 71.23096 694.962 62.98696H691.254L685.098 69.50296C684.882 69.74296 684.624 70.04896 684.324 70.42096 684.024 70.79296 683.73 71.15896 683.442 71.51896 683.154 71.87896 682.938 72.15496 682.794 72.34696H682.65C682.674 71.89096 682.704 71.35096 682.74 70.72696 682.776 70.10296 682.794 69.59896 682.794 69.21496Z" fill="#9d61ff" fill-rule="evenodd"/>
<path d="M518.57009 4.32H792.98196V12.842079H518.57009V4.32Z" fill="#ff0000" fill-rule="evenodd"/>
<path stroke-width=".72" stroke-linecap="butt" stroke-miterlimit="4" stroke-linejoin="miter" fill="none" stroke="#000000" d="M7.370079 154.97008H53.748V147.6H90.252V154.97008H125.748V147.6H162.252V154.97008H197.748V147.6H234.252V154.97008H280.6299V201.348H288V237.852H280.6299V273.348H288V309.852H280.6299V356.22993H234.252V363.6H197.748V356.22993H162.252V363.6H125.748V356.22993H90.252V363.6H53.748V356.22993H7.370079V309.852H0V273.348H7.370079V237.852H0V201.348H7.370079V154.97008Z"/>
<path d="M91.53 243.864H84.186V269.568H93.222C95.982 269.568 98.16 268.932 99.756 267.66 101.352 266.388 102.15 264.588 102.15 262.26 102.15 260.916 101.898 259.824 101.394 258.984 100.89 258.144 100.2 257.496 99.324 257.04 98.448 256.584 97.47 256.272 96.39 256.104V255.924C97.974 255.636 99.186008 254.994 100.026 253.998 100.866 253.002 101.286 251.748 101.286 250.236 101.286 247.884 100.464 246.234 98.82 245.286 97.176 244.338 94.746 243.864 91.53 243.864ZM92.178 254.808H87.426V246.636H91.674C93.858 246.636 95.448 246.942 96.444 247.554 97.44 248.166 97.938 249.18 97.938 250.596 97.938 251.988 97.53 253.038 96.714 253.746 95.898 254.454 94.386 254.808 92.178 254.808ZM87.426 257.508H92.358C94.734 257.508 96.384 257.922 97.308 258.75 98.232 259.578 98.694 260.664 98.694 262.008 98.694 263.448 98.25 264.612 97.362 265.5 96.474 266.388 94.89 266.832 92.61 266.832H87.426V257.508Z" fill="#9d61ff" fill-rule="evenodd"/>
<path d="M121.5 267.3C123.12 265.548 123.93 263.076 123.93 259.884 123.93 257.748 123.552 255.942 122.796 254.466 122.04 252.99 120.996 251.862 119.664 251.082 118.332 250.302 116.79 249.912 115.038 249.912 112.278 249.912 110.094 250.776 108.486 252.504 106.878 254.232 106.074 256.692 106.074 259.884 106.074 262.02 106.458 263.838 107.226 265.338 107.994 266.838 109.044 267.978 110.376 268.758 111.708 269.538 113.226 269.928 114.93 269.928 117.69 269.928 119.88 269.052 121.5 267.3ZM110.700008 265.302C109.8 263.97 109.35 262.164 109.35 259.884 109.35 257.604 109.794 255.816 110.682 254.52 111.57 253.224 112.998 252.576 114.966 252.576 116.934 252.576 118.374 253.224 119.286 254.52 120.198 255.816 120.654 257.604 120.654 259.884 120.654 262.164 120.198 263.97 119.286 265.302 118.374 266.634 116.946 267.3 115.002 267.3 113.034 267.3 111.6 266.634 110.700008 265.302Z" fill="#9d61ff" fill-rule="evenodd"/>
<path d="M136.854 267.21C136.35 267.294 135.858 267.336 135.378 267.336 134.49 267.336 133.76399 267.054 133.2 266.49 132.636 265.926 132.354 265.056 132.354 263.88V252.72H137.934V250.272H132.354V245.844H130.482L129.222 249.948 126.450008 251.208V252.72H129.186V263.952C129.186 265.512 129.45 266.724 129.978 267.588 130.506 268.452 131.196 269.058 132.048 269.406 132.9 269.754 133.83 269.928 134.838 269.928 135.414 269.928 136.01399 269.874 136.638 269.766 137.262 269.658 137.742 269.52 138.078 269.352V266.94C137.766 267.036 137.358 267.126 136.854 267.21Z" fill="#9d61ff" fill-rule="evenodd"/>
<path d="M149.85 267.21C149.346 267.294 148.854 267.336 148.374 267.336 147.486 267.336 146.76 267.054 146.196 266.49 145.632 265.926 145.35 265.056 145.35 263.88V252.72H150.93V250.272H145.35V245.844H143.478L142.218 249.948 139.446 251.208V252.72H142.18199V263.952C142.18199 265.512 142.446 266.724 142.974 267.588 143.502 268.452 144.192 269.058 145.044 269.406 145.896 269.754 146.826 269.928 147.834 269.928 148.41 269.928 149.01 269.874 149.634 269.766 150.258 269.658 150.738 269.52 151.074 269.352V266.94C150.762 267.036 150.354 267.126 149.85 267.21Z" fill="#9d61ff" fill-rule="evenodd"/>
<path d="M169.272 267.3C170.892 265.548 171.70201 263.076 171.70201 259.884 171.70201 257.748 171.32399 255.942 170.56801 254.466 169.812 252.99 168.768 251.862 167.43599 251.082 166.104 250.302 164.562 249.912 162.81 249.912 160.05 249.912 157.866 250.776 156.258 252.504 154.65001 254.232 153.84601 256.692 153.84601 259.884 153.84601 262.02 154.23 263.838 154.998 265.338 155.766 266.838 156.81601 267.978 158.148 268.758 159.48 269.538 160.998 269.928 162.70201 269.928 165.462 269.928 167.652 269.052 169.272 267.3ZM158.472 265.302C157.57199 263.97 157.122 262.164 157.122 259.884 157.122 257.604 157.566 255.816 158.45401 254.52 159.342 253.224 160.77 252.576 162.738 252.576 164.706 252.576 166.146 253.224 167.058 254.52 167.97 255.816 168.426 257.604 168.426 259.884 168.426 262.164 167.97 263.97 167.058 265.302 166.146 266.634 164.718 267.3 162.774 267.3 160.806 267.3 159.372 266.634 158.472 265.302Z" fill="#9d61ff" fill-rule="evenodd"/>
<path d="M202.77 251.586C201.69 250.47 200.058 249.912 197.87401 249.912 196.626 249.912 195.444 250.176 194.328 250.704 193.212 251.232 192.33 252.048 191.68199 253.152H191.502C190.59 250.992 188.622 249.912 185.598 249.912 184.446 249.912 183.36 250.158 182.34 250.65 181.32 251.142 180.51 251.892 179.91 252.9H179.73L179.262 250.272H176.70601V269.568H179.87401V259.56C179.87401 257.30403 180.246 255.576 180.99 254.376 181.734 253.176 183.078 252.576 185.022 252.576 187.662 252.576 188.982 254.1 188.982 257.148V269.568H192.114V258.912C192.114 256.848 192.51599 255.276 193.31999 254.196 194.12401 253.116 195.462 252.576 197.334 252.576 199.95 252.576 201.258 254.1 201.258 257.148V269.568H204.39V257.004C204.39 254.508 203.85 252.702 202.77 251.586Z" fill="#9d61ff" fill-rule="evenodd"/>
<path stroke-width=".72" stroke-linecap="butt" stroke-miterlimit="4" stroke-linejoin="miter" fill="none" stroke="#000000" d="M291.6 147.6H572.0598V359.82994H291.6V147.6Z"/>
<path d="M410.17594 265.7979H424.64793V262.9179H413.41593V240.09392H410.17594V265.7979Z" fill="#9d61ff" fill-rule="evenodd"/>
<path d="M431.50593 239.75193C431.1339 239.42792 430.70793 239.26592 430.22795 239.26592 429.69993 239.26592 429.25593 239.42792 428.89595 239.75193 428.53593 240.07593 428.35594 240.58592 428.35594 241.28192 428.35594 241.95392 428.53593 242.45792 428.89595 242.79392 429.25593 243.12993 429.69993 243.29793 430.22795 243.29793 430.70793 243.29793 431.1339 243.12993 431.50593 242.79392 431.87794 242.45792 432.06394 241.95392 432.06394 241.28192 432.06394 240.58592 431.87794 240.07593 431.50593 239.75193ZM431.7759 246.50193H428.6079V265.7979H431.7759V246.50193Z" fill="#9d61ff" fill-rule="evenodd"/>
<path d="M438.97593 263.6559C440.41593 265.3239 442.3359 266.15794 444.73594 266.15794 446.24794 266.15794 447.48393 265.86994 448.4439 265.2939 449.40394 264.71794 450.1719 264.0219 450.74794 263.20594H450.89195L451.35993 265.7979H453.91593V238.43793H450.74794V246.14192C450.74794 246.50193 450.77793 246.98792 450.83793 247.59992 450.89793 248.21192 450.9399 248.67392 450.96394 248.98592H450.74794C450.14793 248.19393 449.37394 247.52193 448.42594 246.96993 447.47795 246.41793 446.25993 246.14192 444.7719 246.14192 442.37193 246.14192 440.44593 246.98792 438.99394 248.67992 437.54194 250.37192 436.81593 252.87392 436.81593 256.1859 436.81593 259.49794 437.53593 261.9879 438.97593 263.6559ZM449.54194 261.85594C448.71394 262.97193 447.27995 263.5299 445.23994 263.5299 443.51194 263.5299 442.22193 262.89393 441.36994 261.62193 440.5179 260.3499 440.09193 258.56193 440.09193 256.25794 440.09193 253.97792 440.5179 252.15993 441.36994 250.80393 442.22193 249.44792 443.4999 248.76993 445.20393 248.76993 447.33995 248.76993 448.80393 249.41193 449.59593 250.69593 450.3879 251.97992 450.78395 253.82192 450.78395 256.22193V256.7979C450.78395 259.05393 450.36994 260.73994 449.54194 261.85594Z" fill="#9d61ff" fill-rule="evenodd"/>
<path d="M449.82994 345.08976H413.82994C413.82994 335.1553 421.89546 327.08976 431.82994 327.08976 441.7644 327.08976 449.82994 335.1553 449.82994 345.08976Z" fill="#808080" fill-rule="evenodd"/>
<path d="M649.71188 204.17896H642.6199V229.88297H645.85989V219.26296H650.97189L657.1998 229.88297H660.97988L653.9238 218.36296C654.78787 218.05097 655.60989 217.62496 656.38986 217.08496 657.16989 216.54497 657.8118 215.81896 658.31588 214.90697 658.8198 213.99497 659.07186 212.85497 659.07186 211.48696 659.07186 209.03896 658.3098 207.20896 656.7858 205.99697 655.26187 204.78496 652.9039 204.17896 649.71188 204.17896ZM645.85989 206.98696H649.53189C651.64389 206.98696 653.20388 207.34096 654.21188 208.04897 655.21987 208.75696 655.7238 209.95096 655.7238 211.63097 655.7238 213.23897 655.24386 214.45696 654.2838 215.28496 653.32388 216.11296 651.79989 216.52696 649.71188 216.52696H645.85989V206.98696Z" fill="#9d61ff" fill-rule="evenodd"/>
<path d="M667.47787 203.83696C667.10586 203.51296 666.6799 203.35097 666.1998 203.35097 665.6718 203.35097 665.22787 203.51296 664.86788 203.83696 664.5078 204.16097 664.3278 204.67096 664.3278 205.36696 664.3278 206.03896 664.5078 206.54296 664.86788 206.87897 665.22787 207.21497 665.6718 207.38297 666.1998 207.38297 666.6799 207.38297 667.10586 207.21497 667.47787 206.87897 667.84988 206.54296 668.0358 206.03896 668.0358 205.36696 668.0358 204.67096 667.84988 204.16097 667.47787 203.83696ZM667.74789 210.58696H664.57986V229.88297H667.74789V210.58696Z" fill="#9d61ff" fill-rule="evenodd"/>
<path d="M684.1458 210.94696C683.12588 210.46697 681.97988 210.22696 680.7078 210.22696 678.23587 210.22696 676.29788 211.13297 674.89389 212.94496 673.48989 214.75696 672.78787 217.19896 672.78787 220.27097 672.78787 223.41497 673.48989 225.86296 674.89389 227.61496 676.29788 229.36696 678.24789 230.24297 680.74386 230.24297 683.4318 230.24297 685.4238 229.27097 686.71987 227.32697H686.86386C686.83987 227.54296 686.81588 227.92096 686.7919 228.46097 686.7678 229.00096 686.75588 229.41497 686.75588 229.70296V230.45896C686.75588 232.13896 686.28189 233.46497 685.33389 234.43697 684.38589 235.40897 683.08389 235.89496 681.42788 235.89496 678.57186 235.89496 676.19589 235.39096 674.29989 234.38297V237.29897C676.09988 238.11496 678.41586 238.52297 681.24789 238.52297 684.1998 238.52297 686.37789 237.82697 687.78189 236.43497 689.18588 235.04296 689.8878 232.96697 689.8878 230.20696V210.58696H687.36788L686.93588 213.14296H686.75588C686.0358 212.15897 685.16586 211.42696 684.1458 210.94696ZM677.3958 214.81696C678.2838 213.53296 679.53189 212.89096 681.13986 212.89096 683.08389 212.89096 684.51187 213.46097 685.4238 214.60097 686.3358 215.74097 686.7919 217.63097 686.7919 220.27097V221.02696C686.7919 223.35497 686.34786 225.04096 685.45986 226.08496 684.57186 227.12897 683.1558 227.65096 681.21188 227.65096 679.53189 227.65096 678.25387 227.02097 677.37789 225.76096 676.50186 224.50096 676.06387 222.68297 676.06387 220.30696 676.06387 217.93096 676.5078 216.10097 677.3958 214.81696Z" fill="#9d61ff" fill-rule="evenodd"/>
<path d="M699.17587 210.55097V202.52297H696.0079V229.88297H699.17587V219.91097C699.17587 217.65497 699.5778 215.92096 700.38186 214.70896 701.18588 213.49697 702.66787 212.89096 704.8278 212.89096 707.7078 212.89096 709.1478 214.43897 709.1478 217.53496V229.88297H712.27987V217.31896C712.27987 214.84696 711.69186 213.05297 710.51589 211.93697 709.33987 210.82096 707.57589 210.26296 705.2238 210.26296 703.9758 210.26296 702.8179 210.51496 701.7498 211.01897 700.6818 211.52297 699.8358 212.26697 699.21188 213.25096H698.99588C699.11587 212.41097 699.17587 211.51096 699.17587 210.55097Z" fill="#9d61ff" fill-rule="evenodd"/>
<path d="M726.17587 227.52497C725.6718 227.60897 725.1799 227.65096 724.6998 227.65096 723.8118 227.65096 723.0858 227.36896 722.52188 226.80496 721.9578 226.24097 721.67587 225.37096 721.67587 224.19496V213.03496H727.25588V210.58696H721.67587V206.15897H719.80386L718.5438 210.26296 715.77188 211.52297V213.03496H718.5078V224.26697C718.5078 225.82697 718.77188 227.03896 719.29989 227.90296 719.8278 228.76697 720.5178 229.37296 721.3698 229.72097 722.22189 230.06896 723.15188 230.24297 724.15988 230.24297 724.73587 230.24297 725.3358 230.18897 725.95986 230.08097 726.58389 229.97296 727.06387 229.83496 727.39987 229.66696V227.25496C727.0878 227.35097 726.6798 227.44097 726.17587 227.52497Z" fill="#9d61ff" fill-rule="evenodd"/>
<path stroke-width=".72" stroke-linecap="butt" stroke-miterlimit="4" stroke-linejoin="miter" fill="none" stroke="#000000" d="M583.0299 147.6H784.28976 791.65988V198.16696H784.28976V233.66297H791.65988V284.22993 291.6H784.28976 737.40786V284.22993H701.91189V291.6H665.40786V284.22993H629.91189V291.6H583.0299 575.65988V284.22993 233.66297H583.0299V198.16696H575.65988V147.6H583.0299Z"/>
<path d="M578.85397 151.92H792.23587V160.44208H578.85397V151.92Z" fill="#ff0000" fill-rule="evenodd"/>
</svg>
