<svg xmlns="http://www.w3.org/2000/svg" width="247.759" height="295.503" viewBox="0 0 247.759 295.503">
  <g id="Pasted-20231101-193559_1_" data-name="Pasted-20231101-193559 (1)" transform="translate(290.872 66.124)">
    <g id="Group_1" data-name="Group 1" transform="translate(-416.346 -169)">
      <path id="Path_1" data-name="Path 1" d="M302.74,253.01a25.681,25.681,0,0,0,5.21-12.58.92.92,0,0,0-1.5-.83,27.332,27.332,0,0,0-9.74,16.73.821.821,0,0,1-.57.67l-10.37,3.51a.1.1,0,0,0-.08.14l.05.26a.535.535,0,0,0,.59.43c8.68-1.13,16.33-5.04,23.4-10.04a1.031,1.031,0,0,1,.93-.15q12.2,3.62,21.27-4.97a1.02,1.02,0,0,0-.59-1.75,30.731,30.731,0,0,0-15.79,2.29q-.15.06-.04-.05a129.52,129.52,0,0,0,15.6-18.66.8.8,0,0,1,.79-.37q13.84,1.57,18.96-11.05a1.4,1.4,0,0,0-1.42-1.92c-5.15.47-8.07,2.59-13.34,6.14q-.7.47-.29-.27a130.047,130.047,0,0,0,9.49-21.19,1.078,1.078,0,0,1,.7-.68q12.78-4.23,15.89-17.39a1.07,1.07,0,0,0-1.4-1.25c-5.99,2.13-9.95,7.61-13.01,12.83a.2.2,0,0,1-.232.075.173.173,0,0,1-.108-.2,67.446,67.446,0,0,0,.78-26.5.917.917,0,0,1,.27-.84c5.61-5.61,8.77-17.55,2.3-23.93a.95.95,0,0,0-1-.22,2.916,2.916,0,0,0-1.94,2.77q-.56,7.12-1.12,13.82-.08.91-.33.03a94.746,94.746,0,0,0-8.51-20.16.9.9,0,0,1,.01-.97q8.52-14.54-.76-28.6a1.07,1.07,0,0,0-1.94.34c-1.97,8.21-.63,15.68.03,23.99q.06.75-.36.12a142.815,142.815,0,0,0-10.39-13.7c-5.52-6.44-7.13-15.87-18.06-14.93q-.51.05-.38.54c2.19,8.55,7.02,11.6,14.43,15.27a12.571,12.571,0,0,1,4.15,3.23,117.207,117.207,0,0,1,13.22,19.44q.37.67-.26.23a52.836,52.836,0,0,0-14.71-7.54.82.82,0,0,0-.94,1.19,27.2,27.2,0,0,0,19.16,13.8.859.859,0,0,1,.67.54,71.6,71.6,0,0,1,5.49,22.85q.19,2.72-.97.25a43.141,43.141,0,0,0-9.19-12.79.9.9,0,0,0-1.52.74,28.939,28.939,0,0,0,11.12,20.61.9.9,0,0,1,.35.84,82.639,82.639,0,0,1-4.76,20.73,4.525,4.525,0,0,1-.91,1.62q-.48.5-.34-.18a23.547,23.547,0,0,0-3.15-18.04.793.793,0,0,0-.768-.368.817.817,0,0,0-.672.538,30.351,30.351,0,0,0,1.59,24.63,1.063,1.063,0,0,1,0,1,127.433,127.433,0,0,1-13.93,21.93.171.171,0,1,1-.29-.18,29.628,29.628,0,0,0,2.55-13.01.89.89,0,0,0-1.49-.63c-5.2,4.81-7.07,13.19-6.79,19.98a1.174,1.174,0,0,1-.36.91A72.6,72.6,0,0,1,303,253.3q-.89.53-.26-.29" fill="none" stroke="#999ba4" stroke-width="2"/>
      <path id="Path_2" data-name="Path 2" d="M196.92,253.24a70.309,70.309,0,0,1-14.16-11.08,1.286,1.286,0,0,1-.38-.93c.01-5.4-1.79-17.32-7.32-20.09a.694.694,0,0,0-.665.018.717.717,0,0,0-.355.572A25.838,25.838,0,0,0,176.71,235a.18.18,0,0,1-.3.19,124.276,124.276,0,0,1-14.12-22.16,1,1,0,0,1,.01-.96,29.96,29.96,0,0,0,1.61-24.57.83.83,0,0,0-1.49-.17,23.987,23.987,0,0,0-3.29,17.55q.36,2.14-.45.12a83.973,83.973,0,0,1-5.46-21.86.771.771,0,0,1,.3-.73,28.93,28.93,0,0,0,11.24-20.85.86.86,0,0,0-1.46-.69,45.584,45.584,0,0,0-8.74,11.74c-.34.66-.54,1.78-.95,2.56a.29.29,0,0,1-.55-.15,68.174,68.174,0,0,1,5.48-24.26,1.033,1.033,0,0,1,.77-.63,27.251,27.251,0,0,0,19.11-13.9.78.78,0,0,0-.91-1.12,46.561,46.561,0,0,0-14.84,7.74.19.19,0,0,1-.28-.24,114.965,114.965,0,0,1,13.67-19.94c2.67-3.11,6.8-4.11,9.55-5.81q6.59-4.05,8.63-12.42.13-.55-.43-.56c-7.94-.16-10.49,3.64-14.66,10.34-3.95,6.35-8.91,11.19-13.53,18.2q-.51.77-.44-.15c.57-8.24,1.93-15.49.06-23.74a1.157,1.157,0,0,0-.916-.873,1.133,1.133,0,0,0-1.154.493q-9.18,14-.69,28.49a.928.928,0,0,1,0,.98,92.35,92.35,0,0,0-8.5,20.09.19.19,0,0,1-.37-.04q-.47-6.82-1.1-13.67a3.682,3.682,0,0,0-1.53-2.84.85.85,0,0,0-1,.03c-7.44,5.75-3.35,18.63,1.87,24.12a.955.955,0,0,1,.27.86,68.449,68.449,0,0,0,.77,26.27.22.22,0,0,1-.4.16c-2.69-4.65-7.47-11.5-13.2-12.53a.95.95,0,0,0-1.09,1.16q3.17,13.22,16.06,17.41a.963.963,0,0,1,.64.65,108.508,108.508,0,0,0,9.43,21.18q.36.64-.25.24c-3.8-2.53-9.07-6.43-13.83-5.93a1.23,1.23,0,0,0-1.01,1.67q5.08,12.76,19.02,11.12a.81.81,0,0,1,.84.39,98.518,98.518,0,0,0,14.85,17.86q.78.74-.24.39a34.3,34.3,0,0,0-14.94-1.87,1,1,0,0,0-.61,1.73q9.12,8.68,21.31,5a1.305,1.305,0,0,1,1.17.22,49.909,49.909,0,0,0,23.23,10,.336.336,0,0,0,.267-.074.314.314,0,0,0,.113-.246v-.35a.166.166,0,0,0-.12-.15l-10.31-3.49a.73.73,0,0,1-.51-.6,27.337,27.337,0,0,0-9.69-16.74.93.93,0,0,0-1.52.83,25.716,25.716,0,0,0,5.09,12.47q.63.83-.27.3" fill="none" stroke="#999ba4" stroke-width="2"/>
      <path id="Path_3" data-name="Path 3" d="M158.38,270.81a7.09,7.09,0,1,0-7.09,7.09,7.09,7.09,0,0,0,7.09-7.09" fill="none" stroke="#999ba4" stroke-width="2"/>
      <path id="Path_4" data-name="Path 4" d="M359.37,275.01a6.651,6.651,0,0,0,6.31,2.85c10.34-1.25,7.71-16.07-2.95-13.84q-1.64.34-3.29,2.74-.32.47-.69.04c-9.42-10.66-19.64,8.33-7.85,10.89a7.746,7.746,0,0,0,7.78-2.71.391.391,0,0,1,.69.03" fill="none" stroke="#999ba4" stroke-width="2"/>
      <path id="Path_5" data-name="Path 5" d="M284.28,317.05l-10.05-.1a.98.98,0,0,1-.96-1.09c2.37-20.68-15.16-38.01-35.97-29.04a.77.77,0,0,1-.92-.25,5.1,5.1,0,0,1-1.03-3.59.753.753,0,0,0-.359-.706.777.777,0,0,0-.8,0c-6.69,4.05-8.71,10.08-10.24,17.74-2.99,15.02,2.99,28.8,17.76,33.16,4.59,1.36,10.35.84,15.41.87a.477.477,0,0,1,.53.48,24.88,24.88,0,0,1-.13,6.99c-1.06,4.96-6.98,6.07-11.13,4.79-4.69-1.45-9.59-9.32-14.78-5.78-3.19,2.18-7.51,7.62-5.99,11.79a.615.615,0,0,0,.78.36c3.91-1.38,5.45-6.47,9.93-1.07q9.14,11.04,22.44,7.47a19.112,19.112,0,0,0,9.96-5.9c4.84-5.7,4.64-11.48,4.8-18.64a.443.443,0,0,1,.5-.49l16.69-.1a1,1,0,0,1,.78.36c9.98,12,27.27,11.35,37.28-.1a.766.766,0,0,1,.59-.26q9,.16,18.05.1c7.08-.04,12.76.16,16.07-5.57a22.15,22.15,0,0,0,2.59-11.78c-.27-11.12-.03-22.28-.1-33.43a.452.452,0,0,0-.51-.5l-12.63.01a.4.4,0,0,0-.4.39l.01,33.22a.517.517,0,0,1-.58.59H335.03a.416.416,0,0,1-.47-.43c-.7-9.42-2.44-20.55-11.54-26.02a.51.51,0,0,0-.77.49l.38,3.16a1.59,1.59,0,0,1-2.23,1.63c-16.31-7.34-33.7,3.13-35.5,20.69a.552.552,0,0,1-.62.56" fill="none" stroke="#999ba4" stroke-width="2"/>
      <path id="Path_6" data-name="Path 6" d="M169.38,316.42l.12-25.4a1.98,1.98,0,0,1,2.24-1.95l3.48.47q.52.07.32-.42c-1.27-3.22-3.65-6.86-7.56-6.9-6.13-.07-11.81,3.25-11.87,10.04q-.12,12.71-.04,39.53c.01,5.43-5.06,9.85-10.42,7.66a8.776,8.776,0,0,1-5.94-8.8q-.07-19.66.09-39.52a2.21,2.21,0,0,1,2.64-2.15l3.14.61a.34.34,0,0,0,.39-.45,21.731,21.731,0,0,0-1.49-2.53q-2.81-5.78-9.84-3.93c-7.59,2-8.13,6.27-8.15,13.74q-.04,14.04.02,28.08c.05,10.57-.47,14.79,5.35,22.13q5.5,6.96,13.13,7.92c12.97,1.62,23.13-6.62,24.32-19.97a.521.521,0,0,1,.58-.53q11.68.09,23.36-.06c8.78-.11,12.85-7.22,12.97-15q.13-8.29,0-35.69a.477.477,0,0,0-.54-.54H193.74a.663.663,0,0,0-.75.75v33a.5.5,0,0,1-.5.5l-22.57-.04a.482.482,0,0,1-.54-.55" fill="none" stroke="#999ba4" stroke-width="2"/>
      <path id="Path_7" data-name="Path 7" d="M196.26,344.29q-5.31-5.72-10.94-1.02a6.934,6.934,0,0,0-2.2,6.03c.59,7.04,9.17,7.91,12.94,3.02q.35-.45.69,0c6.76,8.97,18.82-3.58,9.67-9.89-2.84-1.95-7.6-1.75-9.53,1.79q-.26.48-.63.07" fill="none" stroke="#999ba4" stroke-width="2"/>
      <path id="Path_8" data-name="Path 8" d="M207.16,375.32l1.48-.22a.42.42,0,0,0,.09-.81q-2.64-.96-3.68,1.47a.885.885,0,0,0,.1.86,2.079,2.079,0,0,1,.1,2.34.44.44,0,0,0,.51.64l3.48-.96a.608.608,0,0,0,.45-.49.582.582,0,0,0-.05-.42.6.6,0,0,0-.76-.29,1.76,1.76,0,0,1-2.37-.89.86.86,0,0,1,.65-1.23" fill="none" stroke="#999ba4" stroke-width="2"/>
      <path id="Path_9" data-name="Path 9" d="M189.35,375.7a1.15,1.15,0,1,0-1.15,1.15,1.15,1.15,0,0,0,1.15-1.15" fill="none" stroke="#999ba4" stroke-width="2"/>
      <path id="Path_10" data-name="Path 10" d="M192.68,375.69a1.15,1.15,0,1,0-1.15,1.15,1.15,1.15,0,0,0,1.15-1.15" fill="none" stroke="#999ba4" stroke-width="2"/>
      <path id="Path_11" data-name="Path 11" d="M214.715,375.385a.54.54,0,0,0-.554-.524l-.92.025a.54.54,0,0,0-.525.555l.449,16.054a.54.54,0,0,0,.554.525l.92-.026a.54.54,0,0,0,.525-.555l-.449-16.054" fill="none" stroke="#999ba4" stroke-width="2"/>
      <path id="Path_12" data-name="Path 12" d="M232.97,389.71a9.568,9.568,0,0,1-4.3.16.7.7,0,0,1-.51-.4l-3.93-8.19a.8.8,0,0,0-.49-.416.774.774,0,0,0-.63.086l-.38.24a.854.854,0,0,0-.29,1.35c.81,1.24,2.79,4.19,2.68,5.74-.2,2.58-4.67,1.86-6.28,1.25a.621.621,0,0,0-.9.42l-.1.29a.915.915,0,0,0,.49,1.15,7.744,7.744,0,0,0,7.74-.51.541.541,0,0,1,.75.09c2.11,2.19,6.02.92,8.42-.09a1.084,1.084,0,0,1,.92.01c3.08,1.34,10.6,2.99,10.59-2.64q0-3.6-.42-12.68a.717.717,0,0,0-.81-.76h-.37a.67.67,0,0,0-.76.79l.45,13.67a.8.8,0,0,1-.84.82l-5.57-.27a.49.49,0,0,1-.31-.85,5.525,5.525,0,0,0,1.9-4.98,1.29,1.29,0,0,0-.65-.97q-3.94-2.18-7.66,1.04-1.88,1.62,1.54,4.28,1.24.97-.28,1.37" fill="none" stroke="#999ba4" stroke-width="2"/>
      <path id="Path_13" data-name="Path 13" d="M251.966,375.385a.6.6,0,0,0-.617-.583l-.8.022a.6.6,0,0,0-.583.617l.447,16.014a.6.6,0,0,0,.617.583l.8-.022a.6.6,0,0,0,.583-.617l-.447-16.014" fill="none" stroke="#999ba4" stroke-width="2"/>
      <path id="Path_14" data-name="Path 14" d="M275.458,375.465a.67.67,0,0,0-.688-.651l-.68.019a.67.67,0,0,0-.651.688l.443,15.854a.67.67,0,0,0,.688.651l.68-.019a.67.67,0,0,0,.651-.688l-.443-15.854" fill="none" stroke="#999ba4" stroke-width="2"/>
      <path id="Path_15" data-name="Path 15" d="M283.8,393.07a6.734,6.734,0,0,1-4.82,2.3.637.637,0,0,0-.68.78l.03.29a.909.909,0,0,0,1.12.93,7.9,7.9,0,0,0,6.92-4.93.735.735,0,0,1,.84-.42,4.249,4.249,0,0,0,5.01-1.85.41.41,0,0,1,.67-.02q2.64,3.42,6.39,1.48a1.358,1.358,0,0,1,1.25-.03,5.446,5.446,0,0,0,5.59-.49.69.69,0,0,1,.84.01c1.99,1.38,5.49,1.5,6.88-.62a6.678,6.678,0,0,0,.61-3.59q-.14-5.78-.41-11.34a.727.727,0,0,0-.86-.77l-.4.02a.63.63,0,0,0-.59.65l.38,12.45a1.957,1.957,0,0,1-2.24,2.29h-.43a2.341,2.341,0,0,1-2.61-2.56l-.38-12.01q-.03-1.01-1.02-.85l-.36.06a.655.655,0,0,0-.56.67l.39,13.66a.79.79,0,0,1-.81.82l-2.79-.07a.914.914,0,0,1-.84-.54l-2.48-4.99a1.382,1.382,0,0,0-.73-.67c-6.23-2.49-4.67,7.42-10.52,6.44a.6.6,0,0,1-.56-.66c.01-8.89-9.55-5.98-7.42,1.28a.886.886,0,0,0,.69.66l3.67.89a.45.45,0,0,1,.23.73" fill="none" stroke="#999ba4" stroke-width="2"/>
      <path id="Path_16" data-name="Path 16" d="M223.2,377.36a1.15,1.15,0,1,0-1.15,1.15,1.15,1.15,0,0,0,1.15-1.15" fill="none" stroke="#999ba4" stroke-width="2"/>
      <path id="Path_17" data-name="Path 17" d="M237.23,378.48a1.18,1.18,0,1,0-1.18,1.18,1.18,1.18,0,0,0,1.18-1.18" fill="none" stroke="#999ba4" stroke-width="2"/>
      <path id="Path_18" data-name="Path 18" d="M200.55,391.18a7.712,7.712,0,0,0,4.44.88c5.73-.21,5.49-4.79,3.82-8.94a.832.832,0,0,0-1.17-.53l-.33.11a.735.735,0,0,0-.47.86l1.17,5.02a1.186,1.186,0,0,1-.221,1,1.164,1.164,0,0,1-.919.446h-4.36a1.15,1.15,0,0,1-1.14-1.27l.26-2.64a.775.775,0,0,0-.65-.84l-.3-.04a.66.66,0,0,0-.74.47l-.94,3.44a.86.86,0,0,1-.53.57,6.5,6.5,0,0,1-4.74-.09.865.865,0,0,1-.53-.74l-.54-8.95a.394.394,0,0,0-.47-.42l-.9.05a.432.432,0,0,0-.46.43l-.1,1.02a.76.76,0,0,1-.61.68c-6.07,1.16-8.38,8.03.32,8.16a1.4,1.4,0,0,1,.94.37,6.737,6.737,0,0,0,8.44.93.661.661,0,0,1,.73.02" fill="none" stroke="#999ba4" stroke-width="2"/>
      <path id="Path_19" data-name="Path 19" d="M267.61,389.78a6.865,6.865,0,0,1-4.86-.18,1.06,1.06,0,0,0-1.33.46l-.13.24a.69.69,0,0,0,.25.92,7.9,7.9,0,0,0,6.46.46c4.84-1.46,1.83-7.41-.33-10.31a.861.861,0,0,0-1.39-.17l-.36.29a.6.6,0,0,0-.1.83,16.5,16.5,0,0,1,2.81,5.53,1.57,1.57,0,0,1-1.02,1.93" fill="none" stroke="#999ba4" stroke-width="2"/>
      <path id="Path_20" data-name="Path 20" d="M199.62,395.48a1.15,1.15,0,1,0-1.15,1.15,1.15,1.15,0,0,0,1.15-1.15" fill="none" stroke="#999ba4" stroke-width="2"/>
      <path id="Path_21" data-name="Path 21" d="M202.95,395.45a1.15,1.15,0,1,0-1.15,1.15,1.15,1.15,0,0,0,1.15-1.15" fill="none" stroke="#999ba4" stroke-width="2"/>
      <path id="Path_22" data-name="Path 22" d="M257.08,308.86a8.75,8.75,0,1,0-8.75,8.75,8.75,8.75,0,0,0,8.75-8.75" fill="none" stroke="#999ba4" stroke-width="2"/>
      <path id="Path_23" data-name="Path 23" d="M318.42,317.64a8.76,8.76,0,1,0-8.76,8.76,8.76,8.76,0,0,0,8.76-8.76" fill="none" stroke="#999ba4" stroke-width="2"/>
      <path id="Path_24" data-name="Path 24" d="M237.03,384.18a.82.82,0,0,0-.6-.14l-2.71.39a.82.82,0,0,0-.43,1.42L235.7,388a.82.82,0,0,0,1.2-.13l1.34-1.8a.82.82,0,0,0-.18-1.16l-1.03-.73" fill="none" stroke="#999ba4" stroke-width="2"/>
      <path id="Path_25" data-name="Path 25" d="M297.27,385.95a1.4,1.4,0,0,0-2.42-.28l-1.14,1.57a.861.861,0,0,0-.05,1.02,4.554,4.554,0,0,0,3.31,2.26,1.313,1.313,0,0,0,1.262-.475,1.337,1.337,0,0,0,.188-1.345l-1.15-2.75" fill="none" stroke="#999ba4" stroke-width="2"/>
      <path id="Path_26" data-name="Path 26" d="M280.66,388.53a1.19,1.19,0,0,0,1.03,1.45l1.83.19a1.19,1.19,0,0,0,1.24-1.61l-.76-1.95a1.19,1.19,0,0,0-1.37-.73l-.7.16a1.19,1.19,0,0,0-.9.89l-.37,1.6" fill="none" stroke="#999ba4" stroke-width="2"/>
      <path id="Path_27" data-name="Path 27" d="M191.1,387.53l-.19-3.51a.43.43,0,0,0-.45-.41l-.11.01c-2.109.113-3.772,1.122-3.72,2.26l.01.24c.056,1.143,1.821,1.98,3.94,1.87l.11-.01a.43.43,0,0,0,.41-.45" fill="none" stroke="#999ba4" stroke-width="2"/>
    </g>
    <g id="Group_3" data-name="Group 3" transform="translate(-416.346 -169)">
      <path id="Path_33" data-name="Path 33" d="M303,253.3a72.6,72.6,0,0,0,14.42-11.22,1.174,1.174,0,0,0,.36-.91c-.28-6.79,1.59-15.17,6.79-19.98a.89.89,0,0,1,1.49.63,29.628,29.628,0,0,1-2.55,13.01.171.171,0,1,0,.29.18,127.434,127.434,0,0,0,13.93-21.93,1.063,1.063,0,0,0,0-1,30.351,30.351,0,0,1-1.59-24.63.817.817,0,0,1,.672-.538.793.793,0,0,1,.768.368,23.547,23.547,0,0,1,3.15,18.04q-.14.68.34.18a4.525,4.525,0,0,0,.91-1.62,82.639,82.639,0,0,0,4.76-20.73.9.9,0,0,0-.35-.84,28.939,28.939,0,0,1-11.12-20.61.9.9,0,0,1,1.52-.74,43.141,43.141,0,0,1,9.19,12.79q1.16,2.47.97-.25a71.6,71.6,0,0,0-5.49-22.85.859.859,0,0,0-.67-.54,27.2,27.2,0,0,1-19.16-13.8.82.82,0,0,1,.94-1.19,52.836,52.836,0,0,1,14.71,7.54q.63.44.26-.23a117.207,117.207,0,0,0-13.22-19.44,12.571,12.571,0,0,0-4.15-3.23c-7.41-3.67-12.24-6.72-14.43-15.27q-.13-.49.38-.54c10.93-.94,12.54,8.49,18.06,14.93a142.815,142.815,0,0,1,10.39,13.7q.42.63.36-.12c-.66-8.31-2-15.78-.03-23.99a1.07,1.07,0,0,1,1.94-.34q9.28,14.06.76,28.6a.9.9,0,0,0-.01.97,94.746,94.746,0,0,1,8.51,20.16q.25.88.33-.03.56-6.7,1.12-13.82a2.916,2.916,0,0,1,1.94-2.77.95.95,0,0,1,1,.22c6.47,6.38,3.31,18.32-2.3,23.93a.917.917,0,0,0-.27.84,67.446,67.446,0,0,1-.78,26.5.173.173,0,0,0,.108.2.2.2,0,0,0,.232-.075c3.06-5.22,7.02-10.7,13.01-12.83a1.07,1.07,0,0,1,1.4,1.25q-3.11,13.16-15.89,17.39a1.078,1.078,0,0,0-.7.68,130.047,130.047,0,0,1-9.49,21.19q-.41.74.29.27c5.27-3.55,8.19-5.67,13.34-6.14a1.4,1.4,0,0,1,1.42,1.92q-5.12,12.62-18.96,11.05a.8.8,0,0,0-.79.37,129.52,129.52,0,0,1-15.6,18.66q-.11.11.04.05a30.731,30.731,0,0,1,15.79-2.29,1.02,1.02,0,0,1,.59,1.75q-9.07,8.59-21.27,4.97a1.031,1.031,0,0,0-.93.15c-7.07,5-14.72,8.91-23.4,10.04a.535.535,0,0,1-.59-.43l-.05-.26a.1.1,0,0,1,.08-.14L296.14,257a.821.821,0,0,0,.57-.67,27.332,27.332,0,0,1,9.74-16.73.92.92,0,0,1,1.5.83,25.681,25.681,0,0,1-5.21,12.58Q302.11,253.83,303,253.3Z" fill="#383b4e"/>
      <path id="Path_34" data-name="Path 34" d="M197.19,252.94a25.716,25.716,0,0,1-5.09-12.47.93.93,0,0,1,1.52-.83,27.337,27.337,0,0,1,9.69,16.74.73.73,0,0,0,.51.6l10.31,3.49a.166.166,0,0,1,.12.15v.35a.314.314,0,0,1-.113.246.336.336,0,0,1-.267.074,49.909,49.909,0,0,1-23.23-10,1.3,1.3,0,0,0-1.17-.22q-12.19,3.68-21.31-5a1,1,0,0,1,.61-1.73,34.3,34.3,0,0,1,14.94,1.87q1.02.35.24-.39a98.518,98.518,0,0,1-14.85-17.86.81.81,0,0,0-.84-.39q-13.94,1.64-19.02-11.12a1.23,1.23,0,0,1,1.01-1.67c4.76-.5,10.03,3.4,13.83,5.93q.61.4.25-.24a108.508,108.508,0,0,1-9.43-21.18.963.963,0,0,0-.64-.65q-12.89-4.19-16.06-17.41a.95.95,0,0,1,1.09-1.16c5.73,1.03,10.51,7.88,13.2,12.53a.22.22,0,0,0,.4-.16,68.449,68.449,0,0,1-.77-26.27.955.955,0,0,0-.27-.86c-5.22-5.49-9.31-18.37-1.87-24.12a.85.85,0,0,1,1-.03,3.682,3.682,0,0,1,1.53,2.84q.63,6.85,1.1,13.67a.19.19,0,0,0,.37.04,92.349,92.349,0,0,1,8.5-20.09.928.928,0,0,0,0-.98q-8.49-14.49.69-28.49a1.133,1.133,0,0,1,1.154-.493,1.157,1.157,0,0,1,.916.873c1.87,8.25.51,15.5-.06,23.74q-.07.92.44.15c4.62-7.01,9.58-11.85,13.53-18.2,4.17-6.7,6.72-10.5,14.66-10.34q.56.01.43.56-2.04,8.37-8.63,12.42c-2.75,1.7-6.88,2.7-9.55,5.81a114.964,114.964,0,0,0-13.67,19.94.19.19,0,0,0,.28.24,46.562,46.562,0,0,1,14.84-7.74.78.78,0,0,1,.91,1.12,27.251,27.251,0,0,1-19.11,13.9,1.033,1.033,0,0,0-.77.63,68.175,68.175,0,0,0-5.48,24.26.29.29,0,0,0,.55.15c.41-.78.61-1.9.95-2.56a45.584,45.584,0,0,1,8.74-11.74.86.86,0,0,1,1.46.69,28.93,28.93,0,0,1-11.24,20.85.771.771,0,0,0-.3.73A83.973,83.973,0,0,0,158.68,205q.81,2.02.45-.12a23.987,23.987,0,0,1,3.29-17.55.83.83,0,0,1,1.49.17,29.96,29.96,0,0,1-1.61,24.57,1,1,0,0,0-.01.96,124.278,124.278,0,0,0,14.12,22.16.18.18,0,0,0,.3-.19,25.838,25.838,0,0,1-2.67-13.27.717.717,0,0,1,.355-.572.694.694,0,0,1,.665-.018c5.53,2.77,7.33,14.69,7.32,20.09a1.286,1.286,0,0,0,.38.93,70.309,70.309,0,0,0,14.16,11.08Q197.82,253.77,197.19,252.94Z" fill="#383b4e"/>
      <circle id="Ellipse_3" data-name="Ellipse 3" cx="7.09" cy="7.09" r="7.09" transform="translate(144.2 263.72)" fill="#383b4e"/>
      <path id="Path_35" data-name="Path 35" d="M358.68,274.98a7.746,7.746,0,0,1-7.78,2.71c-11.79-2.56-1.57-21.55,7.85-10.89q.37.43.69-.04,1.65-2.4,3.29-2.74c10.66-2.23,13.29,12.59,2.95,13.84a6.651,6.651,0,0,1-6.31-2.85A.391.391,0,0,0,358.68,274.98Z" fill="#383b4e"/>
      <path id="Path_36" data-name="Path 36" d="M284.9,316.49c1.8-17.56,19.19-28.03,35.5-20.69a1.59,1.59,0,0,0,2.23-1.63l-.38-3.16a.51.51,0,0,1,.77-.49c9.1,5.47,10.84,16.6,11.54,26.02a.416.416,0,0,0,.47.43h16.84a.517.517,0,0,0,.58-.59l-.01-33.22a.4.4,0,0,1,.4-.39l12.63-.01a.452.452,0,0,1,.51.5c.07,11.15-.17,22.31.1,33.43a22.15,22.15,0,0,1-2.59,11.78c-3.31,5.73-8.99,5.53-16.07,5.57q-9.05.06-18.05-.1a.766.766,0,0,0-.59.26c-10.01,11.45-27.3,12.1-37.28.1a1,1,0,0,0-.78-.36l-16.69.1a.443.443,0,0,0-.5.49c-.16,7.16.04,12.94-4.8,18.64a19.112,19.112,0,0,1-9.96,5.9q-13.3,3.57-22.44-7.47c-4.48-5.4-6.02-.31-9.93,1.07a.615.615,0,0,1-.78-.36c-1.52-4.17,2.8-9.61,5.99-11.79,5.19-3.54,10.09,4.33,14.78,5.78,4.15,1.28,10.07.17,11.13-4.79a24.88,24.88,0,0,0,.13-6.99.477.477,0,0,0-.53-.48c-5.06-.03-10.82.49-15.41-.87-14.77-4.36-20.75-18.14-17.76-33.16,1.53-7.66,3.55-13.69,10.24-17.74a.777.777,0,0,1,.8,0,.753.753,0,0,1,.359.706,5.1,5.1,0,0,0,1.03,3.59.77.77,0,0,0,.92.25c20.81-8.97,38.34,8.36,35.97,29.04a.98.98,0,0,0,.96,1.09l10.05.1A.552.552,0,0,0,284.9,316.49Zm-27.82-7.63a8.75,8.75,0,1,0-8.75,8.75,8.75,8.75,0,0,0,8.75-8.75Zm61.34,8.78a8.76,8.76,0,1,0-8.76,8.76A8.76,8.76,0,0,0,318.42,317.64Z" fill="#383b4e"/>
      <path id="Path_37" data-name="Path 37" d="M169.92,316.97l22.57.04a.5.5,0,0,0,.5-.5v-33a.663.663,0,0,1,.75-.75h11.94a.477.477,0,0,1,.54.54q.13,27.4,0,35.69c-.12,7.78-4.19,14.89-12.97,15q-11.68.15-23.36.06a.521.521,0,0,0-.58.53c-1.19,13.35-11.35,21.59-24.32,19.97q-7.63-.96-13.13-7.92c-5.82-7.34-5.3-11.56-5.35-22.13q-.06-14.04-.02-28.08c.02-7.47.56-11.74,8.15-13.74q7.03-1.85,9.84,3.93a21.733,21.733,0,0,1,1.49,2.53.34.34,0,0,1-.39.45l-3.14-.61a2.21,2.21,0,0,0-2.64,2.15q-.16,19.86-.09,39.52a8.776,8.776,0,0,0,5.94,8.8c5.36,2.19,10.43-2.23,10.42-7.66q-.08-26.82.04-39.53c.06-6.79,5.74-10.11,11.87-10.04,3.91.04,6.29,3.68,7.56,6.9q.2.49-.32.42l-3.48-.47a1.98,1.98,0,0,0-2.24,1.95l-.12,25.4A.482.482,0,0,0,169.92,316.97Z" fill="#383b4e"/>
      <path id="Path_38" data-name="Path 38" d="M196.89,344.22c1.93-3.54,6.69-3.74,9.53-1.79,9.15,6.31-2.91,18.86-9.67,9.89q-.34-.45-.69,0c-3.77,4.89-12.35,4.02-12.94-3.02a6.934,6.934,0,0,1,2.2-6.03q5.63-4.7,10.94,1.02Q196.63,344.7,196.89,344.22Z" fill="#383b4e"/>
      <path id="Path_39" data-name="Path 39" d="M207.16,375.32a.86.86,0,0,0-.65,1.23,1.76,1.76,0,0,0,2.37.89.6.6,0,0,1,.76.29.582.582,0,0,1,.05.42.608.608,0,0,1-.45.49l-3.48.96a.44.44,0,0,1-.51-.64,2.079,2.079,0,0,0-.1-2.34.885.885,0,0,1-.1-.86q1.04-2.43,3.68-1.47a.42.42,0,0,1-.09.81Z" fill="#383b4e"/>
      <circle id="Ellipse_4" data-name="Ellipse 4" cx="1.15" cy="1.15" r="1.15" transform="translate(187.05 374.55)" fill="#383b4e"/>
      <circle id="Ellipse_5" data-name="Ellipse 5" cx="1.15" cy="1.15" r="1.15" transform="translate(190.38 374.54)" fill="#383b4e"/>
      <rect id="Rectangle_1" data-name="Rectangle 1" width="2" height="17.14" rx="0.54" transform="translate(212.701 374.901) rotate(-1.6)" fill="#383b4e"/>
      <path id="Path_40" data-name="Path 40" d="M232.97,389.71q1.52-.4.28-1.37-3.42-2.66-1.54-4.28,3.72-3.22,7.66-1.04a1.29,1.29,0,0,1,.65.97,5.525,5.525,0,0,1-1.9,4.98.49.49,0,0,0,.31.85l5.57.27a.8.8,0,0,0,.84-.82l-.45-13.67a.67.67,0,0,1,.76-.79h.37a.717.717,0,0,1,.81.76q.42,9.08.42,12.68c.01,5.63-7.51,3.98-10.59,2.64a1.084,1.084,0,0,0-.92-.01c-2.4,1.01-6.31,2.28-8.42.09a.541.541,0,0,0-.75-.09,7.744,7.744,0,0,1-7.74.51.915.915,0,0,1-.49-1.15l.1-.29a.621.621,0,0,1,.9-.42c1.61.61,6.08,1.33,6.28-1.25.11-1.55-1.87-4.5-2.68-5.74a.854.854,0,0,1,.29-1.35l.38-.24a.774.774,0,0,1,.63-.086.8.8,0,0,1,.49.416l3.93,8.19a.705.705,0,0,0,.51.4A9.569,9.569,0,0,0,232.97,389.71Zm4.06-5.53a.82.82,0,0,0-.6-.14l-2.71.39a.82.82,0,0,0-.43,1.42L235.7,388a.82.82,0,0,0,1.2-.13l1.34-1.8a.82.82,0,0,0-.18-1.16Z" fill="#383b4e"/>
      <rect id="Rectangle_2" data-name="Rectangle 2" width="2" height="17.22" rx="0.6" transform="translate(249.95 374.841) rotate(-1.6)" fill="#383b4e"/>
      <rect id="Rectangle_3" data-name="Rectangle 3" width="2.02" height="17.2" rx="0.67" transform="translate(273.42 374.852) rotate(-1.6)" fill="#383b4e"/>
      <path id="Path_41" data-name="Path 41" d="M283.57,392.34l-3.67-.89a.886.886,0,0,1-.69-.66c-2.13-7.26,7.43-10.17,7.42-1.28a.6.6,0,0,0,.56.66c5.85.98,4.29-8.93,10.52-6.44a1.382,1.382,0,0,1,.73.67l2.48,4.99a.914.914,0,0,0,.84.54l2.79.07a.79.79,0,0,0,.81-.82l-.39-13.66a.655.655,0,0,1,.56-.67l.36-.06q.99-.16,1.02.85l.38,12.01a2.341,2.341,0,0,0,2.61,2.56h.43a1.957,1.957,0,0,0,2.24-2.29l-.38-12.45a.63.63,0,0,1,.59-.65l.4-.02a.727.727,0,0,1,.86.77q.27,5.56.41,11.34a6.678,6.678,0,0,1-.61,3.59c-1.39,2.12-4.89,2-6.88.62a.69.69,0,0,0-.84-.01,5.446,5.446,0,0,1-5.59.49,1.358,1.358,0,0,0-1.25.03q-3.75,1.94-6.39-1.48a.41.41,0,0,0-.67.02,4.249,4.249,0,0,1-5.01,1.85.735.735,0,0,0-.84.42,7.9,7.9,0,0,1-6.92,4.93.909.909,0,0,1-1.12-.93l-.03-.29a.637.637,0,0,1,.68-.78,6.734,6.734,0,0,0,4.82-2.3.45.45,0,0,0-.23-.73Zm13.7-6.39a1.4,1.4,0,0,0-2.42-.28l-1.14,1.57a.861.861,0,0,0-.05,1.02,4.554,4.554,0,0,0,3.31,2.26,1.313,1.313,0,0,0,1.262-.475,1.337,1.337,0,0,0,.188-1.345Zm-16.61,2.58a1.19,1.19,0,0,0,1.03,1.45l1.83.19a1.19,1.19,0,0,0,1.24-1.61l-.76-1.95a1.19,1.19,0,0,0-1.37-.73l-.7.16a1.19,1.19,0,0,0-.9.89Z" fill="#383b4e"/>
      <circle id="Ellipse_6" data-name="Ellipse 6" cx="1.15" cy="1.15" r="1.15" transform="translate(220.9 376.21)" fill="#383b4e"/>
      <circle id="Ellipse_7" data-name="Ellipse 7" cx="1.18" cy="1.18" r="1.18" transform="translate(234.87 377.3)" fill="#383b4e"/>
      <path id="Path_42" data-name="Path 42" d="M199.82,391.16a6.737,6.737,0,0,1-8.44-.93,1.4,1.4,0,0,0-.94-.37c-8.7-.13-6.39-7-.32-8.16a.76.76,0,0,0,.61-.68l.1-1.02a.432.432,0,0,1,.46-.43l.9-.05a.394.394,0,0,1,.47.42l.54,8.95a.865.865,0,0,0,.53.74,6.5,6.5,0,0,0,4.74.09.86.86,0,0,0,.53-.57l.94-3.44a.66.66,0,0,1,.74-.47l.3.04a.775.775,0,0,1,.65.84l-.26,2.64a1.15,1.15,0,0,0,1.14,1.27h4.36a1.164,1.164,0,0,0,.919-.446,1.186,1.186,0,0,0,.221-1l-1.17-5.02a.735.735,0,0,1,.47-.86l.33-.11a.832.832,0,0,1,1.17.53c1.67,4.15,1.91,8.73-3.82,8.94a7.712,7.712,0,0,1-4.44-.88A.661.661,0,0,0,199.82,391.16Zm-8.72-3.63-.19-3.51a.43.43,0,0,0-.45-.41l-.11.01c-2.109.113-3.772,1.122-3.72,2.26l.01.24c.056,1.143,1.821,1.98,3.94,1.87l.11-.01a.43.43,0,0,0,.41-.45Z" fill="#383b4e"/>
      <path id="Path_43" data-name="Path 43" d="M267.61,389.78a1.57,1.57,0,0,0,1.02-1.93,16.5,16.5,0,0,0-2.81-5.53.6.6,0,0,1,.1-.83l.36-.29a.861.861,0,0,1,1.39.17c2.16,2.9,5.17,8.85.33,10.31a7.9,7.9,0,0,1-6.46-.46.69.69,0,0,1-.25-.92l.13-.24a1.06,1.06,0,0,1,1.33-.46A6.865,6.865,0,0,0,267.61,389.78Z" fill="#383b4e"/>
      <circle id="Ellipse_8" data-name="Ellipse 8" cx="1.15" cy="1.15" r="1.15" transform="translate(197.32 394.33)" fill="#383b4e"/>
      <circle id="Ellipse_9" data-name="Ellipse 9" cx="1.15" cy="1.15" r="1.15" transform="translate(200.65 394.3)" fill="#383b4e"/>
    </g>
  </g>
</svg>
