<?xml version="1.0" encoding="UTF-8" standalone="no"?>
<!DOCTYPE svg PUBLIC "-//W3C//DTD SVG 1.1//EN" "http://www.w3.org/Graphics/SVG/1.1/DTD/svg11.dtd">
<svg xmlns="http://www.w3.org/2000/svg" version="1.1" viewBox="0 0 1296 596">
<path stroke="#000000" fill="none" stroke-width="1.00" vector-effect="non-scaling-stroke" d="
  M 0.00 0.00
  L 1296.00 0.00
  L 1296.00 596.00
  L 0.00 596.00
  L 0.00 0.00"
/>
<path stroke="#776f0c" fill="none" stroke-width="1.00" vector-effect="non-scaling-stroke" d="
  M 382.34 144.63
  Q 379.46 150.59 378.14 155.54
  Q 377.61 157.51 379.50 156.75
  Q 441.10 132.01 502.28 109.25
  A 1.48 1.48 6.4 0 0 503.02 108.66
  Q 505.28 105.16 506.79 101.24
  Q 508.14 97.72 504.60 99.02
  L 383.43 143.64
  A 1.93 1.93 2.7 0 0 382.34 144.63"
/>
<path stroke="#776f0c" fill="none" stroke-width="1.00" vector-effect="non-scaling-stroke" d="
  M 623.27 140.05
  C 620.49 130.47 618.58 121.72 611.71 114.06
  C 604.25 105.73 599.30 111.61 596.52 119.29
  A 1.14 1.12 -50.0 0 0 596.59 120.21
  C 599.52 125.56 601.96 127.36 608.27 126.94
  Q 610.23 126.81 611.20 128.51
  Q 618.04 140.48 620.70 154.99
  A 1.05 1.03 -30.0 0 1 620.46 155.86
  Q 613.48 164.08 607.08 168.59
  Q 587.69 182.26 560.21 197.81
  C 556.21 200.07 558.60 200.56 561.30 199.67
  C 580.66 193.25 596.46 186.25 611.28 173.02
  C 625.48 160.34 627.38 140.45 632.22 122.01
  Q 633.66 116.53 638.70 115.89
  A 1.20 1.19 -29.4 0 1 639.61 116.14
  C 641.01 117.27 644.57 124.24 646.34 119.58
  Q 649.35 111.62 643.50 106.75
  C 630.28 95.75 624.73 134.71 623.77 140.02
  Q 623.58 141.10 623.27 140.05"
/>
<path stroke="#776f0c" fill="none" stroke-width="1.00" vector-effect="non-scaling-stroke" d="
  M 1003.23 105.97
  C 997.12 107.05 989.11 138.49 988.13 144.43
  C 987.04 151.00 987.30 158.10 996.05 158.04
  C 1009.16 157.95 1013.42 146.04 1012.09 134.91
  C 1011.38 129.01 1006.26 123.87 1001.74 120.52
  A 2.02 1.88 29.1 0 1 1001.01 118.27
  L 1005.07 107.52
  Q 1005.82 105.52 1003.23 105.97"
/>
<path stroke="#776f0c" fill="none" stroke-width="1.00" vector-effect="non-scaling-stroke" d="
  M 1110.29 434.99
  C 1113.92 453.95 1125.20 467.35 1146.08 465.29
  C 1159.73 463.93 1167.28 450.45 1169.18 438.18
  C 1172.06 419.46 1170.16 402.07 1157.77 387.21
  A 0.48 0.48 -50.6 0 0 1156.98 387.29
  Q 1151.66 397.11 1151.69 406.64
  Q 1151.69 408.81 1152.83 410.66
  C 1155.50 415.03 1164.49 427.84 1161.68 432.92
  C 1157.20 441.02 1145.02 442.14 1137.14 440.31
  C 1129.79 438.61 1124.90 433.72 1122.37 426.79
  Q 1119.52 418.94 1119.27 414.00
  C 1116.69 361.40 1115.60 288.97 1111.14 216.94
  Q 1108.99 182.21 1104.26 147.75
  C 1102.45 134.59 1099.51 117.59 1092.70 106.04
  A 0.29 0.28 45.9 0 0 1092.21 106.03
  C 1087.68 113.53 1084.60 123.31 1086.87 132.02
  C 1093.24 156.48 1096.09 182.28 1098.09 207.44
  C 1102.83 267.05 1103.93 326.94 1106.26 386.68
  C 1106.88 402.73 1107.26 419.18 1110.29 434.99"
/>
<path stroke="#776f0c" fill="none" stroke-width="1.00" vector-effect="non-scaling-stroke" d="
  M 688.82 155.69
  L 695.77 162.35
  A 1.68 1.00 59.1 0 0 696.61 162.80
  C 700.23 163.20 696.65 153.08 696.07 151.47
  Q 688.59 130.77 680.33 110.35
  Q 679.68 108.74 678.75 107.23
  Q 678.03 106.04 677.38 107.27
  C 674.38 112.95 670.51 120.96 670.02 127.42
  C 669.64 132.39 672.86 137.50 673.15 142.82
  C 676.27 199.56 680.82 255.41 686.19 325.06
  Q 691.90 399.16 692.20 413.31
  Q 692.51 428.05 691.31 442.76
  C 691.30 442.87 690.17 458.41 693.29 451.30
  C 704.70 425.32 705.31 400.29 703.27 372.50
  Q 695.35 264.60 686.74 156.73
  Q 686.48 153.45 688.82 155.69"
/>
<path stroke="#776f0c" fill="none" stroke-width="1.00" vector-effect="non-scaling-stroke" d="
  M 952.97 287.50
  C 953.68 304.14 956.80 331.72 976.51 337.49
  C 985.76 340.20 997.24 340.88 1004.34 333.05
  C 1020.76 314.96 1018.19 279.96 1003.32 261.78
  A 1.02 1.02 -51.3 0 0 1001.62 261.97
  Q 997.69 269.74 996.83 276.81
  C 995.70 286.19 1004.47 293.02 1006.88 301.81
  Q 1007.68 304.74 1006.58 307.16
  C 1002.32 316.45 985.54 316.08 977.93 312.74
  C 973.08 310.61 969.85 306.15 968.04 301.44
  Q 963.90 290.65 963.50 277.76
  Q 962.28 238.12 960.70 198.51
  Q 959.48 167.77 955.34 140.97
  C 953.65 129.99 950.83 117.21 945.21 107.54
  Q 944.09 105.61 943.18 107.65
  C 940.94 112.69 936.52 124.17 938.12 129.80
  Q 945.86 156.98 948.06 185.18
  C 950.73 219.21 951.53 253.40 952.97 287.50"
/>
<path stroke="#776f0c" fill="none" stroke-width="1.00" vector-effect="non-scaling-stroke" d="
  M 133.25 139.71
  C 130.75 133.79 126.09 128.58 120.75 125.03
  A 1.74 1.69 27.8 0 1 120.08 122.98
  L 125.63 108.96
  A 1.11 0.85 -55.1 0 0 125.59 108.06
  C 123.40 104.62 119.74 109.48 118.83 111.33
  Q 107.76 133.81 104.01 158.59
  C 102.78 166.68 105.59 173.69 114.86 173.28
  C 125.79 172.80 133.19 164.40 134.34 153.85
  C 134.92 148.51 135.22 144.37 133.25 139.71"
/>
<path stroke="#776f0c" fill="none" stroke-width="1.00" vector-effect="non-scaling-stroke" d="
  M 226.39 152.36
  C 222.52 139.61 218.31 115.88 201.30 113.66
  A 2.09 1.86 17.7 0 0 199.30 114.55
  L 192.38 126.28
  A 0.88 0.79 45.0 0 0 192.43 127.15
  C 194.11 129.73 197.18 133.41 199.53 135.10
  C 202.09 136.94 205.67 135.42 208.51 134.96
  A 2.12 2.11 70.9 0 1 210.70 136.03
  Q 219.65 152.25 223.20 170.40
  C 224.55 177.32 229.20 163.98 229.94 161.69
  Q 231.28 157.56 234.49 141.60
  C 235.64 135.90 240.79 110.45 250.90 127.35
  Q 251.96 129.13 253.57 127.82
  C 258.59 123.71 256.41 114.13 251.97 110.05
  C 243.33 102.12 235.32 116.47 233.51 123.01
  Q 229.57 137.34 226.94 152.33
  Q 226.73 153.50 226.39 152.36"
/>
<path stroke="#776f0c" fill="none" stroke-width="1.00" vector-effect="non-scaling-stroke" d="
  M 1052.48 156.07
  C 1054.02 157.38 1059.53 163.56 1061.10 163.77
  Q 1063.80 164.15 1063.28 161.47
  Q 1062.17 155.71 1060.20 150.42
  Q 1052.43 129.50 1043.86 109.55
  Q 1042.52 106.43 1040.90 109.41
  Q 1037.19 116.22 1034.92 123.65
  C 1032.40 131.88 1036.60 135.01 1037.03 142.34
  Q 1040.64 204.11 1043.07 231.24
  Q 1047.99 286.41 1051.84 341.67
  Q 1053.41 364.16 1050.29 386.44
  C 1049.00 395.67 1053.16 387.75 1053.56 386.87
  C 1061.89 368.49 1065.31 347.28 1064.27 327.75
  C 1062.73 298.70 1059.47 263.42 1057.12 226.92
  C 1055.62 203.42 1053.01 180.03 1051.61 156.50
  Q 1051.54 155.25 1052.48 156.07"
/>
<path stroke="#770e12" fill="none" stroke-width="1.00" vector-effect="non-scaling-stroke" d="
  M 759.56 144.65
  Q 752.73 150.86 749.33 153.09
  Q 728.45 166.78 703.90 180.32
  A 1.19 1.18 53.4 0 0 703.63 182.19
  C 704.35 182.93 725.09 174.86 727.31 173.92
  Q 749.91 164.30 765.43 145.41
  A 0.92 0.84 22.1 0 1 766.24 145.11
  L 777.53 146.49
  Q 779.92 146.78 781.65 144.71
  Q 786.19 139.29 786.15 132.89
  C 786.08 123.14 767.70 107.58 758.16 108.85
  C 751.02 109.80 752.47 115.96 752.81 121.29
  A 1.79 1.54 -36.7 0 1 752.60 122.23
  C 747.37 131.94 748.09 140.09 759.47 144.15
  A 0.30 0.29 -56.1 0 1 759.56 144.65"
/>
<path stroke="#776f0c" fill="none" stroke-width="1.00" vector-effect="non-scaling-stroke" d="
  M 556.39 304.06
  Q 557.31 304.07 556.47 304.46
  Q 529.83 316.87 509.91 338.42
  Q 500.83 348.24 491.73 358.03
  Q 484.05 366.30 479.27 369.32
  C 467.75 376.59 448.01 380.29 436.55 370.43
  Q 431.24 365.86 431.71 357.94
  C 431.79 356.49 435.82 340.49 428.03 347.81
  Q 418.63 356.65 409.34 365.59
  C 394.31 380.05 355.64 393.28 349.47 361.25
  C 345.84 342.43 344.19 321.41 338.39 303.41
  C 337.33 300.14 335.00 295.01 331.30 294.03
  Q 325.85 292.59 324.98 299.74
  C 323.64 310.88 323.67 330.88 308.50 333.23
  C 301.40 334.34 294.30 332.77 291.09 326.06
  C 289.80 323.36 285.08 312.13 283.00 319.41
  C 281.52 324.58 277.31 336.51 279.53 341.20
  C 286.82 356.57 291.24 370.10 291.93 385.48
  Q 292.05 388.21 290.24 390.25
  C 275.72 406.65 254.77 420.06 235.38 429.94
  C 202.31 446.78 146.03 460.62 117.88 426.13
  C 101.65 406.24 104.76 385.63 111.12 362.72
  A 0.65 0.65 7.5 0 1 111.75 362.24
  C 125.96 362.07 132.12 334.85 133.16 324.19
  Q 133.27 323.03 132.74 322.52
  A 0.47 0.40 -55.0 0 0 132.07 322.69
  C 129.04 328.22 123.32 338.98 116.09 339.36
  C 102.20 340.09 104.47 314.32 106.12 306.28
  Q 111.30 281.08 119.89 256.84
  C 120.08 256.31 120.35 252.45 118.69 255.30
  C 103.46 281.38 93.02 311.83 95.09 342.35
  C 95.67 350.99 99.26 358.66 107.45 361.88
  A 0.76 0.76 20.4 0 1 107.89 362.84
  Q 99.55 386.95 100.99 411.72
  C 101.75 424.87 107.51 437.73 115.30 447.96
  C 136.98 476.42 173.52 476.41 204.72 466.42
  Q 248.34 452.45 282.10 421.83
  C 298.95 406.54 299.66 380.37 298.90 359.60
  A 1.55 1.55 0.5 0 1 300.53 358.00
  C 306.69 358.35 312.86 358.07 316.89 352.64
  C 323.08 344.29 324.67 334.92 326.95 325.05
  Q 328.05 320.30 330.51 322.86
  C 333.10 325.55 334.67 334.27 335.17 337.81
  Q 336.31 345.86 339.31 369.49
  C 341.38 385.73 344.54 400.39 362.57 404.27
  C 388.23 409.80 403.68 392.42 418.63 375.59
  C 420.42 373.58 424.25 370.50 424.75 375.97
  C 425.56 384.83 427.42 394.00 435.93 398.08
  C 450.64 405.11 467.15 399.89 478.45 389.18
  Q 479.49 388.19 479.03 389.55
  Q 468.35 420.96 472.37 453.97
  C 478.36 503.23 512.93 519.34 558.45 514.23
  C 567.17 513.25 578.12 509.74 585.81 505.93
  C 621.26 488.38 652.26 453.06 650.15 410.91
  C 649.29 393.84 641.54 380.00 625.52 373.55
  C 614.38 369.07 597.38 369.11 584.55 368.89
  C 573.24 368.68 565.09 367.79 560.91 357.08
  C 559.26 352.84 560.10 346.59 559.93 341.80
  A 1.14 1.14 -15.4 0 0 558.24 340.84
  C 556.43 341.83 555.09 343.17 554.08 345.14
  C 547.85 357.19 538.17 370.41 523.54 372.12
  Q 511.93 373.47 507.25 363.78
  A 1.60 1.59 52.7 0 1 507.48 362.04
  C 528.37 337.96 554.06 323.65 584.99 314.48
  Q 594.00 311.81 626.17 303.33
  Q 629.04 302.57 630.35 299.09
  Q 633.43 290.85 635.90 282.42
  Q 636.93 278.91 633.28 279.15
  Q 616.11 280.25 598.43 279.91
  Q 565.46 279.29 532.48 278.09
  Q 531.78 278.07 532.19 277.50
  C 542.07 263.78 545.41 248.98 546.45 232.25
  C 547.43 216.26 547.44 201.28 546.30 184.52
  Q 545.45 171.88 544.73 159.24
  Q 544.56 156.24 546.86 158.36
  L 554.81 165.70
  Q 555.78 166.59 555.99 165.25
  C 556.49 162.12 556.07 159.69 554.92 156.47
  Q 547.29 135.17 538.92 114.15
  Q 537.99 111.80 536.67 110.05
  A 0.74 0.74 40.0 0 0 535.41 110.16
  C 531.33 118.16 526.85 127.69 528.81 136.85
  Q 529.81 141.54 529.94 143.38
  Q 531.78 169.97 533.96 196.53
  C 535.45 214.75 535.09 233.06 534.98 251.25
  C 534.93 258.43 531.04 260.16 525.16 262.37
  Q 506.73 269.29 487.72 274.40
  C 484.03 275.40 479.92 277.01 475.94 278.06
  A 0.93 0.89 2.1 0 0 475.29 278.64
  L 468.25 298.89
  Q 467.31 301.61 470.23 301.75
  Q 493.46 302.85 516.86 303.15
  C 529.59 303.30 543.20 303.93 556.39 304.06"
/>
<path stroke="#770e12" fill="none" stroke-width="1.00" vector-effect="non-scaling-stroke" d="
  M 789.00 217.78
  Q 789.03 218.15 788.80 219.21
  C 783.56 243.87 777.93 274.36 791.96 296.65
  C 798.47 307.00 810.96 311.22 822.76 309.18
  A 1.17 1.17 -7.7 0 1 824.13 310.22
  C 826.65 336.44 828.94 363.22 825.20 388.58
  Q 824.92 390.50 825.05 392.40
  Q 825.13 393.66 825.96 392.71
  Q 828.22 390.14 829.54 386.96
  Q 839.71 362.54 839.20 336.00
  Q 838.92 321.49 837.93 305.90
  A 2.72 2.72 70.3 0 1 839.06 303.51
  C 852.59 293.81 860.87 276.67 862.05 260.24
  Q 862.25 257.42 862.90 260.17
  C 867.70 280.41 878.14 304.05 902.51 304.40
  C 917.77 304.61 925.92 295.59 929.74 281.74
  C 934.58 264.22 931.89 246.74 926.41 229.91
  Q 920.89 212.96 915.21 196.07
  C 914.89 195.14 914.93 193.72 914.80 192.75
  Q 914.61 191.31 915.70 192.28
  C 916.99 193.43 927.88 200.21 924.62 192.49
  Q 923.75 190.44 922.58 188.54
  Q 914.38 175.23 904.33 162.20
  A 1.28 1.05 41.2 0 0 902.34 162.14
  Q 898.36 170.76 896.04 180.01
  A 1.44 1.43 -50.1 0 0 896.12 180.94
  C 897.41 183.79 898.81 186.32 899.39 189.43
  Q 900.68 196.32 901.87 203.22
  C 905.64 225.23 913.90 243.03 923.51 263.67
  Q 926.74 270.60 920.77 274.63
  C 907.53 283.54 888.42 277.99 881.46 263.49
  C 872.53 244.91 870.86 225.25 867.29 203.25
  Q 864.30 184.76 856.53 167.70
  Q 854.89 164.11 853.33 167.74
  C 851.01 173.14 845.78 188.15 847.90 194.16
  Q 857.03 220.01 856.78 247.44
  C 856.66 261.46 850.13 274.46 837.44 280.88
  A 1.06 1.05 74.3 0 1 835.92 280.02
  Q 831.60 225.66 827.42 171.31
  Q 826.94 165.07 826.73 158.80
  Q 826.68 157.18 827.81 158.35
  Q 830.73 161.37 834.18 164.38
  C 841.64 170.93 836.22 155.16 835.46 153.13
  Q 827.49 131.76 818.53 110.75
  A 1.00 1.00 -34.5 0 0 816.89 110.45
  C 813.61 113.81 810.80 122.40 809.59 126.97
  C 807.79 133.77 811.32 137.25 811.85 143.48
  C 812.86 155.57 813.48 169.43 814.23 179.74
  Q 818.00 231.45 822.29 283.71
  A 1.07 1.07 81.8 0 1 821.44 284.85
  C 810.77 287.08 801.52 282.72 796.74 273.13
  C 787.85 255.28 793.79 234.14 798.21 209.94
  C 799.29 204.03 801.29 193.84 798.14 188.47
  Q 796.69 186.01 794.15 187.31
  C 783.38 192.78 774.88 214.61 771.96 225.70
  Q 767.43 242.93 763.20 260.24
  C 760.97 269.40 757.19 287.10 746.12 287.40
  C 727.34 287.90 727.84 250.14 728.97 239.13
  A 1.33 1.29 -19.0 0 1 729.39 238.30
  Q 733.82 234.13 735.41 228.23
  C 735.86 226.56 738.53 217.41 737.89 216.40
  A 0.37 0.33 -48.1 0 0 737.30 216.47
  Q 733.40 223.13 731.57 224.56
  C 727.98 227.37 723.57 226.85 721.79 222.44
  C 717.23 211.13 726.54 186.58 729.84 176.76
  A 0.38 0.30 -82.6 0 0 729.54 176.26
  Q 729.27 176.30 729.10 176.58
  C 719.15 192.96 713.33 211.35 715.32 230.69
  Q 716.15 238.76 723.47 240.49
  A 0.58 0.56 -81.3 0 1 723.90 241.10
  C 722.10 260.34 724.09 294.45 743.46 304.31
  Q 746.57 305.89 750.56 305.26
  C 761.52 303.54 767.39 284.37 769.38 274.67
  Q 770.69 268.32 777.49 241.00
  C 779.53 232.80 782.12 223.95 787.83 217.40
  Q 788.87 216.20 789.00 217.78"
/>
<path stroke="#776f0c" fill="none" stroke-width="1.00" vector-effect="non-scaling-stroke" d="
  M 1153.41 147.71
  C 1151.06 140.22 1149.95 131.30 1144.32 123.46
  C 1141.72 119.84 1134.39 113.77 1130.75 119.01
  Q 1128.73 121.93 1127.41 124.44
  Q 1126.16 126.82 1127.65 129.05
  C 1131.25 134.44 1134.30 133.53 1140.09 134.10
  A 0.95 0.95 -11.4 0 1 1140.83 134.59
  C 1144.94 142.16 1149.24 151.55 1150.43 160.13
  C 1150.65 161.74 1151.75 165.07 1153.70 161.70
  C 1157.50 155.14 1158.85 142.85 1160.60 134.92
  C 1161.39 131.33 1165.24 118.05 1170.85 124.53
  Q 1172.10 125.96 1173.06 127.37
  Q 1174.76 129.83 1175.99 127.10
  C 1178.32 121.90 1177.68 112.67 1170.56 111.91
  C 1159.34 110.70 1155.35 140.04 1153.67 147.70
  Q 1153.56 148.20 1153.41 147.71"
/>
<path stroke="#770e12" fill="none" stroke-width="1.00" vector-effect="non-scaling-stroke" d="
  M 885.79 145.65
  C 886.58 149.88 890.32 154.57 895.00 154.25
  C 901.72 153.80 904.40 143.12 904.26 137.88
  Q 904.17 134.88 902.18 129.47
  Q 899.52 122.22 897.79 114.68
  Q 897.43 113.09 896.69 114.54
  C 891.90 123.87 896.52 131.35 900.77 139.53
  Q 902.05 142.01 899.34 142.81
  C 893.12 144.64 889.57 141.72 888.84 135.70
  C 888.09 129.58 887.52 120.42 883.95 115.29
  A 0.39 0.38 -47.2 0 0 883.30 115.32
  C 879.32 122.10 883.15 129.18 883.27 136.24
  C 883.41 145.07 871.02 150.03 870.28 138.40
  Q 869.73 129.71 868.96 120.92
  A 0.93 0.81 -82.1 0 0 868.48 120.19
  C 864.79 118.45 863.33 125.85 863.41 128.08
  C 863.63 134.63 862.70 159.15 875.98 156.05
  C 881.35 154.79 882.93 150.19 884.80 145.55
  Q 885.47 143.87 885.79 145.65"
/>
<path stroke="#776f0c" fill="none" stroke-width="1.00" vector-effect="non-scaling-stroke" d="
  M 295.19 210.59
  C 310.98 197.88 329.29 173.98 327.21 152.80
  C 325.47 135.00 304.15 137.05 296.55 148.57
  Q 291.78 155.79 290.55 166.57
  A 0.34 0.33 85.5 0 0 290.97 166.94
  C 297.53 165.07 304.05 159.68 310.74 164.08
  C 324.14 172.90 296.20 202.25 289.95 208.79
  C 287.34 211.52 285.69 215.23 281.74 216.53
  Q 280.18 217.04 278.70 217.79
  A 1.58 1.47 -88.2 0 0 278.04 218.46
  Q 272.76 228.71 270.09 238.46
  Q 269.48 240.67 271.61 239.81
  Q 372.82 198.86 475.15 161.09
  C 479.98 159.31 483.92 149.80 484.84 145.63
  Q 485.75 141.51 481.79 142.97
  L 295.68 211.45
  Q 292.78 212.52 295.19 210.59"
/>
<path stroke="#776f0c" fill="none" stroke-width="1.00" vector-effect="non-scaling-stroke" d="
  M 978.55 171.18
  L 974.15 178.44
  A 1.40 1.24 41.1 0 0 974.35 179.99
  C 979.13 185.52 985.24 191.41 988.43 197.30
  Q 995.52 210.38 993.32 225.82
  C 993.21 226.60 993.43 227.90 994.56 226.80
  C 995.53 225.86 996.80 222.34 997.14 220.61
  Q 1002.98 190.54 979.30 171.08
  A 0.52 0.48 35.6 0 0 978.55 171.18"
/>
<path stroke="#776f0c" fill="none" stroke-width="1.00" vector-effect="non-scaling-stroke" d="
  M 561.58 213.85
  L 558.31 222.69
  Q 557.64 224.51 559.49 223.76
  Q 607.78 204.30 656.62 186.30
  A 1.82 1.69 6.6 0 0 657.40 185.73
  Q 659.93 182.49 660.64 179.82
  Q 661.38 176.99 658.64 178.00
  L 561.76 213.68
  A 0.33 0.30 -1.1 0 0 561.58 213.85"
/>
<path stroke="#776f0c" fill="none" stroke-width="1.00" vector-effect="non-scaling-stroke" d="
  M 166.07 253.03
  C 142.80 251.77 174.56 222.74 179.44 219.14
  C 184.34 215.52 186.35 210.37 186.98 204.47
  Q 187.38 200.69 184.67 203.70
  C 178.78 210.24 170.86 220.01 161.79 210.39
  A 1.99 1.98 -54.9 0 1 161.42 208.24
  C 163.16 204.22 168.10 198.80 172.45 203.79
  A 0.73 0.73 43.0 0 0 173.58 203.75
  C 175.16 201.69 177.99 197.56 177.34 194.82
  C 175.79 188.38 169.52 191.72 166.53 194.28
  C 160.72 199.26 154.60 206.84 153.98 214.83
  Q 153.79 217.41 155.48 219.36
  Q 158.17 222.48 162.58 224.18
  A 0.77 0.77 -60.6 0 1 162.91 225.36
  C 157.57 232.30 148.34 249.27 154.89 257.71
  Q 157.91 261.61 162.92 262.13
  Q 183.87 264.31 199.38 249.41
  C 200.17 248.65 200.12 247.36 198.54 247.94
  Q 182.37 253.91 166.07 253.03"
/>
<path stroke="#776f0c" fill="none" stroke-width="1.00" vector-effect="non-scaling-stroke" d="
  M 1150.20 279.36
  C 1159.56 267.71 1162.01 253.00 1161.66 238.31
  C 1161.33 224.23 1155.13 211.09 1146.53 200.13
  A 0.50 0.49 51.9 0 0 1145.83 200.04
  Q 1140.78 204.05 1137.53 208.20
  Q 1136.13 209.99 1137.38 211.87
  C 1151.44 233.03 1158.83 253.34 1147.55 277.93
  C 1145.77 281.80 1148.44 281.54 1150.20 279.36"
/>
<path stroke="#776f0c" fill="none" stroke-width="1.00" vector-effect="non-scaling-stroke" d="
  M 455.63 240.84
  C 435.16 259.70 409.51 273.24 385.59 287.19
  C 383.49 288.41 381.29 291.29 386.19 289.71
  C 415.91 280.15 440.74 267.67 461.18 243.22
  A 0.96 0.91 -50.5 0 1 462.49 243.06
  L 469.51 248.77
  A 0.97 0.94 36.3 0 0 470.92 248.58
  C 472.77 245.78 476.94 240.05 476.07 236.54
  C 475.40 233.79 471.89 232.26 469.48 230.99
  Q 467.22 229.81 468.07 227.40
  C 470.24 221.25 472.14 211.40 469.87 205.15
  C 463.86 188.54 428.19 220.05 447.44 234.30
  Q 451.49 237.30 455.60 240.21
  A 0.41 0.40 -48.2 0 1 455.63 240.84"
/>
<path stroke="#776f0c" fill="none" stroke-width="1.00" vector-effect="non-scaling-stroke" d="
  M 627.69 269.06
  C 640.56 276.03 644.31 254.87 645.99 247.50
  Q 646.15 246.81 645.91 246.48
  A 0.50 0.36 -50.3 0 0 645.22 246.66
  C 643.13 250.01 640.39 254.97 636.61 256.06
  C 626.04 259.10 628.74 238.31 629.89 233.67
  Q 632.88 221.58 637.82 206.95
  A 0.62 0.40 -74.4 0 0 637.59 206.19
  Q 637.23 206.13 636.84 206.82
  Q 627.63 223.05 624.03 239.14
  C 622.60 245.53 620.67 265.26 627.69 269.06"
/>
<path stroke="#776f0c" fill="none" stroke-width="1.00" vector-effect="non-scaling-stroke" d="
  M 974.57 244.87
  L 971.35 253.83
  Q 970.76 255.48 972.41 254.81
  Q 993.00 246.45 1014.10 238.29
  C 1022.29 235.12 1027.32 233.90 1029.97 226.66
  Q 1030.97 223.94 1028.24 224.94
  L 974.81 244.64
  A 0.39 0.37 -0.6 0 0 974.57 244.87"
/>
<path stroke="#776f0c" fill="none" stroke-width="1.00" vector-effect="non-scaling-stroke" d="
  M 199.45 308.13
  L 219.27 321.72
  A 0.53 0.50 -55.4 0 0 219.98 321.57
  Q 223.29 316.68 225.82 311.37
  C 227.93 306.93 229.94 303.75 225.64 300.41
  Q 217.97 294.46 209.83 289.94
  A 1.47 1.46 28.1 0 0 207.81 290.55
  L 199.27 307.37
  A 0.60 0.58 -59.3 0 0 199.45 308.13"
/>
<path stroke="#776f0c" fill="none" stroke-width="1.00" vector-effect="non-scaling-stroke" d="
  M 1181.51 295.92
  A 1.77 1.74 -47.1 0 0 1180.40 295.97
  L 1130.29 314.42
  A 1.20 1.05 -1.4 0 0 1129.62 315.04
  L 1123.21 330.69
  Q 1122.42 332.62 1124.39 331.84
  L 1173.69 312.36
  A 1.43 1.41 -85.3 0 0 1174.40 311.75
  C 1175.33 310.10 1183.12 296.39 1181.51 295.92"
/>
<path stroke="#776f0c" fill="none" stroke-width="1.00" vector-effect="non-scaling-stroke" d="
  M 800.00 429.21
  C 802.03 442.89 803.61 456.77 807.62 470.06
  C 814.28 492.13 837.06 495.62 855.92 488.22
  C 869.98 482.71 878.69 471.46 888.48 460.73
  C 891.29 457.65 893.41 458.23 893.72 462.48
  Q 894.23 469.51 897.62 475.49
  C 909.33 496.11 952.81 478.83 968.52 471.78
  C 988.87 462.66 1022.03 446.30 1049.51 434.40
  Q 1051.17 433.68 1052.14 432.15
  Q 1057.03 424.41 1061.56 415.18
  C 1064.65 408.90 1056.07 413.51 1053.88 414.47
  Q 1034.20 423.16 1014.44 431.69
  C 1006.25 435.23 997.30 437.94 988.49 437.63
  C 969.02 436.95 953.47 425.07 942.44 409.55
  Q 937.14 402.11 935.92 393.50
  A 0.99 0.98 -25.9 0 1 936.22 392.65
  C 950.86 379.23 971.74 380.20 990.46 375.25
  Q 1010.29 370.01 1024.53 354.29
  C 1027.12 351.43 1037.25 338.62 1033.56 335.01
  Q 1032.01 333.50 1030.51 335.05
  C 1021.28 344.58 1013.62 350.93 1000.42 353.40
  Q 995.32 354.36 971.50 358.28
  C 944.95 362.65 924.91 380.43 926.65 409.06
  C 927.93 430.09 939.49 442.56 956.72 453.03
  Q 957.31 453.39 956.67 453.63
  Q 942.00 459.23 926.27 460.40
  C 907.28 461.83 899.59 455.29 901.92 435.66
  C 902.20 433.27 901.39 432.33 898.93 432.85
  A 5.12 5.05 16.4 0 0 896.43 434.19
  Q 887.13 443.27 876.91 452.67
  C 865.56 463.11 851.39 467.26 836.26 467.25
  C 823.66 467.25 817.87 457.48 815.58 446.44
  C 805.28 396.85 802.04 342.97 770.95 300.53
  A 1.25 1.25 -40.8 0 0 769.04 300.39
  C 766.15 303.34 764.82 317.99 764.23 322.54
  A 1.72 1.71 -53.2 0 0 764.36 323.48
  Q 769.71 335.39 777.83 354.68
  Q 790.55 384.90 794.12 416.84
  C 794.46 419.86 794.17 425.12 792.73 427.22
  C 771.55 458.31 728.09 490.43 690.01 490.79
  C 657.84 491.10 674.86 442.62 679.16 426.28
  A 2.66 2.65 36.6 0 0 678.85 424.21
  C 678.53 423.71 677.71 424.49 677.53 424.88
  Q 666.64 448.43 664.85 473.92
  C 663.92 487.21 665.82 507.68 680.80 513.17
  Q 685.40 514.86 693.40 514.42
  C 721.83 512.84 747.31 494.73 768.34 477.10
  Q 779.40 467.83 790.47 452.72
  C 795.06 446.45 796.93 439.25 799.33 429.32
  Q 799.41 429.00 799.56 428.88
  Q 799.90 428.59 800.00 429.21"
/>
<path stroke="#776f0c" fill="none" stroke-width="1.00" vector-effect="non-scaling-stroke" d="
  M 650.45 328.81
  Q 652.27 328.95 652.89 330.66
  C 654.53 335.18 651.02 339.95 647.33 344.08
  Q 642.43 349.56 637.74 355.21
  C 636.55 356.63 638.24 355.88 638.55 355.66
  C 648.42 348.72 659.44 337.40 659.18 324.27
  C 659.13 321.23 657.78 318.66 654.77 318.00
  C 647.18 316.35 641.91 323.31 642.12 330.29
  A 0.31 0.31 -14.9 0 0 642.58 330.55
  Q 646.37 328.51 650.45 328.81"
/>
<path stroke="#776f0c" fill="none" stroke-width="1.00" vector-effect="non-scaling-stroke" d="
  M 891.50 390.97
  C 887.20 376.54 884.46 357.55 868.23 351.87
  Q 865.55 350.93 863.88 353.23
  Q 860.52 357.85 857.38 364.30
  A 0.87 0.85 41.9 0 0 857.44 365.16
  C 859.69 368.50 864.77 375.10 868.94 373.96
  Q 872.27 373.06 874.50 373.18
  A 1.00 0.94 73.7 0 1 875.27 373.63
  C 881.91 383.89 886.24 398.01 888.41 409.46
  A 0.94 0.80 -88.3 0 0 888.97 410.16
  C 893.65 411.65 899.75 378.40 900.67 374.44
  Q 902.42 366.93 905.28 362.30
  C 908.10 357.73 912.90 360.04 915.04 363.89
  C 916.15 365.88 918.17 367.31 919.68 364.66
  C 923.76 357.47 920.50 348.39 912.50 345.70
  Q 910.02 344.87 908.01 346.55
  Q 900.48 352.83 897.99 362.39
  Q 894.31 376.52 891.88 390.94
  Q 891.74 391.78 891.50 390.97"
/>
<path stroke="#776f0c" fill="none" stroke-width="1.00" vector-effect="non-scaling-stroke" d="
  M 250.46 361.01
  Q 249.56 360.60 248.72 360.91
  Q 200.37 378.77 152.03 396.62
  A 1.13 1.06 -1.2 0 0 151.38 397.26
  L 148.06 406.15
  Q 147.52 407.59 148.95 407.01
  Q 197.57 387.35 246.77 369.23
  A 1.63 1.47 4.3 0 0 247.52 368.65
  Q 249.73 365.39 250.81 361.76
  A 0.62 0.62 20.1 0 0 250.46 361.01"
/>
<path stroke="#776f0c" fill="none" stroke-width="1.00" vector-effect="non-scaling-stroke" d="
  M 740.30 404.86
  C 750.02 404.29 745.55 415.20 742.63 419.28
  Q 735.62 429.09 727.33 437.87
  C 726.18 439.10 725.27 441.19 728.17 439.24
  C 739.15 431.89 750.53 419.26 753.78 405.83
  C 755.22 399.87 754.16 391.81 747.23 390.74
  C 738.39 389.36 734.23 397.22 732.63 404.99
  Q 732.18 407.18 734.21 406.22
  Q 736.62 405.08 740.30 404.86"
/>
<path stroke="#776f0c" fill="none" stroke-width="1.00" vector-effect="non-scaling-stroke" d="
  M 329.04 457.89
  L 311.66 445.87
  Q 309.52 444.39 308.35 446.83
  L 300.40 463.36
  A 0.60 0.58 -59.9 0 0 300.58 464.10
  L 320.25 477.74
  A 0.49 0.48 -55.9 0 0 320.94 477.60
  Q 325.22 470.93 328.10 463.49
  A 0.39 0.39 27.4 0 1 328.69 463.31
  L 346.82 475.96
  A 0.93 0.93 -54.2 0 0 348.10 475.75
  Q 353.44 468.43 356.82 459.43
  Q 357.52 457.54 355.97 456.26
  Q 347.15 448.96 337.90 443.94
  A 1.52 1.45 27.1 0 0 335.83 444.56
  L 329.63 457.72
  A 0.41 0.40 -60.7 0 1 329.04 457.89"
/>
<path stroke="#776f0c" fill="none" stroke-width="1.00" vector-effect="non-scaling-stroke" d="
  M 398.26 487.91
  C 401.90 487.94 405.97 488.98 409.79 489.75
  C 417.68 491.34 424.67 487.01 429.90 481.49
  A 0.71 0.69 33.7 0 1 430.70 481.34
  C 435.86 483.75 445.64 486.67 448.97 479.96
  C 452.00 473.85 455.22 463.50 451.42 456.81
  A 1.31 1.30 -38.1 0 0 449.33 456.56
  Q 446.68 459.39 445.40 463.69
  A 2.03 1.22 58.4 0 0 445.41 464.64
  L 446.81 470.38
  A 0.42 0.41 -7.0 0 1 446.40 470.89
  L 436.86 470.90
  Q 434.99 470.90 435.19 468.95
  C 435.34 467.47 436.97 460.66 434.81 460.98
  A 1.35 1.00 -69.3 0 0 434.02 461.49
  C 428.97 468.06 425.58 477.78 415.28 476.04
  C 404.32 474.19 397.63 472.25 387.23 478.06
  C 373.23 485.89 364.28 497.74 353.92 509.54
  C 345.06 519.64 335.49 526.55 324.14 533.10
  Q 323.25 533.62 323.23 534.46
  A 0.50 0.44 -4.0 0 0 323.80 534.89
  Q 337.83 532.84 346.68 523.93
  C 359.64 510.91 378.48 487.75 398.26 487.91"
/>
<path stroke="#776f0c" fill="none" stroke-width="1.00" vector-effect="non-scaling-stroke" d="
  M 1066.63 505.46
  C 1067.48 509.62 1071.52 512.31 1075.55 510.99
  C 1080.87 509.24 1083.60 498.06 1084.01 493.24
  Q 1084.19 491.22 1083.06 492.90
  C 1080.51 496.69 1079.05 502.07 1073.13 499.60
  A 2.89 2.89 -84.4 0 1 1071.43 497.53
  C 1069.02 485.85 1073.87 471.64 1077.98 460.75
  Q 1078.19 460.20 1077.79 460.07
  A 0.78 0.55 -63.5 0 0 1077.05 460.47
  C 1069.24 473.38 1063.56 490.35 1066.63 505.46"
/>
<path stroke="#776f0c" fill="none" stroke-width="1.00" vector-effect="non-scaling-stroke" d="
  M 264.06 476.69
  Q 261.29 474.44 262.48 471.63
  C 263.76 468.60 264.72 465.46 266.09 462.44
  A 0.77 0.70 -56.6 0 0 265.96 461.62
  C 260.33 455.90 251.04 490.32 250.56 492.50
  C 249.29 498.24 247.92 503.51 249.02 507.74
  C 251.18 516.00 262.65 513.27 267.20 509.51
  C 273.57 504.22 275.39 490.65 271.13 484.15
  Q 268.72 480.47 264.06 476.69"
/>
<path stroke="#776f0c" fill="none" stroke-width="1.00" vector-effect="non-scaling-stroke" d="
  M 778.62 521.46
  C 779.47 525.61 783.52 528.31 787.55 526.99
  C 792.87 525.24 795.60 514.06 796.01 509.23
  Q 796.19 507.18 795.06 508.90
  C 792.95 512.11 790.57 518.30 785.59 515.79
  Q 783.17 514.57 782.95 511.87
  C 781.98 499.81 785.86 487.82 789.94 476.74
  A 0.58 0.42 -56.2 0 0 789.92 476.28
  Q 789.84 476.15 789.73 476.09
  A 0.61 0.40 -60.0 0 0 789.09 476.41
  C 781.29 489.30 775.54 506.43 778.62 521.46"
/>
<path stroke="#776f0c" fill="none" stroke-width="1.00" vector-effect="non-scaling-stroke" d="
  M 633.94 528.31
  C 643.56 533.77 647.71 516.78 648.07 510.75
  Q 648.10 510.18 647.73 510.19
  A 0.95 0.56 -67.6 0 0 647.08 510.68
  C 645.36 513.55 643.72 518.35 639.68 518.24
  C 627.94 517.91 640.04 483.93 641.91 478.75
  A 0.63 0.41 -58.4 0 0 641.90 478.26
  Q 641.82 478.13 641.70 478.07
  A 0.64 0.42 -60.9 0 0 641.05 478.41
  C 633.43 491.08 627.34 508.74 630.72 523.64
  Q 631.47 526.91 633.94 528.31"
/>
<path stroke="#776f0c" fill="none" stroke-width="1.00" vector-effect="non-scaling-stroke" d="
  M 104.81 512.25
  C 97.26 526.60 105.17 530.99 118.18 532.84
  A 0.68 0.67 4.1 0 0 118.96 532.18
  L 119.00 524.16
  A 1.36 1.34 8.9 0 0 118.05 522.88
  Q 111.79 520.91 107.08 517.82
  A 1.51 1.51 38.6 0 1 106.82 515.51
  Q 111.05 511.16 116.38 508.96
  Q 137.92 500.05 159.83 491.93
  C 164.25 490.29 165.92 487.08 165.71 482.57
  A 0.66 0.66 79.6 0 0 164.85 481.97
  Q 142.92 489.21 121.53 497.73
  C 113.41 500.97 108.68 504.89 104.81 512.25"
/>
<path stroke="#776f0c" fill="none" stroke-width="1.00" vector-effect="non-scaling-stroke" d="
  M 1010.52 502.19
  L 1030.52 515.97
  A 0.28 0.26 -55.2 0 0 1030.90 515.89
  Q 1035.17 509.29 1038.33 502.08
  C 1039.92 498.42 1039.45 496.36 1036.17 493.92
  Q 1028.65 488.34 1020.47 483.72
  A 0.99 0.97 28.2 0 0 1019.10 484.12
  L 1010.33 501.41
  A 0.61 0.60 -59.2 0 0 1010.52 502.19"
/>
<path stroke="#776f0c" fill="none" stroke-width="1.00" vector-effect="non-scaling-stroke" d="
  M 1142.73 503.35
  L 1160.79 516.01
  A 0.90 0.88 35.6 0 0 1162.02 515.82
  Q 1167.78 508.05 1170.73 499.69
  Q 1171.49 497.51 1169.71 496.04
  Q 1160.62 488.56 1151.82 483.95
  A 1.50 1.49 -61.8 0 0 1149.82 484.56
  Q 1146.32 490.93 1143.75 497.72
  A 0.58 0.57 29.9 0 1 1142.85 497.96
  Q 1134.29 491.02 1125.53 485.85
  Q 1123.45 484.61 1122.42 486.76
  L 1114.42 503.49
  A 0.60 0.60 30.1 0 0 1114.62 504.24
  L 1134.26 517.84
  A 0.53 0.51 -57.2 0 0 1135.00 517.67
  Q 1139.18 510.76 1142.12 503.53
  A 0.41 0.41 28.4 0 1 1142.73 503.35"
/>
<path stroke="#776f0c" fill="none" stroke-width="1.00" vector-effect="non-scaling-stroke" d="
  M 872.63 516.21
  Q 882.54 523.65 892.25 529.71
  A 0.53 0.52 32.7 0 0 892.96 529.56
  Q 897.67 522.76 900.67 515.06
  C 901.67 512.47 901.38 510.43 899.22 508.76
  Q 891.22 502.53 882.90 498.03
  A 1.53 1.50 27.7 0 0 880.82 498.66
  L 872.40 515.24
  A 0.79 0.77 32.4 0 0 872.63 516.21"
/>
<path stroke="#776f0c" fill="none" stroke-width="1.00" vector-effect="non-scaling-stroke" d="
  M 996.02 131.32
  Q 992.27 137.16 992.28 144.18
  Q 992.28 147.21 995.31 147.23
  Q 1003.18 147.28 1008.41 140.90
  A 0.66 0.64 45.9 0 0 1008.41 140.10
  Q 1003.84 134.31 996.76 131.10
  A 0.58 0.58 28.3 0 0 996.02 131.32"
/>
<path stroke="#776f0c" fill="none" stroke-width="1.00" vector-effect="non-scaling-stroke" d="
  M 129.53 149.19
  C 127.79 145.54 118.31 140.10 114.56 138.27
  A 0.53 0.52 -63.2 0 0 113.86 138.51
  Q 110.03 146.20 109.28 154.50
  Q 108.96 158.05 112.40 159.00
  C 117.37 160.38 124.51 156.18 128.54 153.18
  Q 130.67 151.59 129.53 149.19"
/>
<path stroke="#770e12" fill="none" stroke-width="1.00" vector-effect="non-scaling-stroke" d="
  M 753.81 128.16
  Q 752.50 129.96 754.05 131.57
  Q 757.38 135.04 763.33 134.92
  A 0.60 0.59 3.4 0 0 763.91 134.41
  C 765.07 126.50 761.99 116.83 753.81 128.16"
/>
<path stroke="#770e12" fill="none" stroke-width="1.00" vector-effect="non-scaling-stroke" d="
  M 769.20 125.63
  C 768.93 128.45 768.90 131.41 768.26 135.33
  A 0.50 0.49 9.2 0 0 768.68 135.90
  L 780.29 137.77
  Q 781.29 137.93 780.90 137.00
  Q 777.53 128.83 769.72 125.33
  A 0.37 0.37 14.9 0 0 769.20 125.63"
/>
<path stroke="#776f0c" fill="none" stroke-width="1.00" vector-effect="non-scaling-stroke" d="
  M 480.10 419.22
  C 478.86 441.08 485.03 467.36 505.18 479.76
  C 529.73 494.86 561.75 493.44 587.20 481.73
  C 605.68 473.23 641.98 448.79 643.20 426.06
  C 644.28 405.93 625.75 396.10 608.30 394.73
  Q 597.71 393.90 589.67 393.98
  C 567.56 394.19 558.63 389.43 550.98 368.30
  Q 550.53 367.06 550.01 368.27
  C 545.22 379.49 538.21 393.59 524.78 396.21
  C 509.34 399.22 500.08 390.90 497.02 376.48
  Q 496.86 375.71 496.41 376.35
  C 487.64 388.80 480.95 404.05 480.10 419.22"
/>
<path stroke="#776f0c" fill="none" stroke-width="1.00" vector-effect="non-scaling-stroke" d="
  M 462.37 216.41
  C 459.28 208.67 446.89 216.01 452.20 220.82
  Q 455.45 223.75 460.99 225.84
  A 0.62 0.59 24.9 0 0 461.73 225.59
  Q 464.30 221.22 462.37 216.41"
/>
<path stroke="#776f0c" fill="none" stroke-width="1.00" vector-effect="non-scaling-stroke" d="
  M 551.56 440.81
  C 556.79 436.07 579.37 414.32 568.93 407.09
  C 563.74 403.51 555.54 403.12 549.39 404.06
  C 541.92 405.20 537.57 409.86 536.03 417.05
  Q 535.57 419.20 537.21 417.99
  C 543.63 413.29 553.88 414.26 560.52 417.11
  Q 562.95 418.15 561.15 420.09
  C 551.17 430.87 535.09 444.51 534.75 460.17
  C 534.57 468.30 540.24 474.39 548.33 475.11
  Q 573.91 477.42 593.09 459.91
  C 595.58 457.63 592.55 457.77 591.25 458.14
  C 583.11 460.49 540.55 471.99 540.76 456.62
  C 540.83 451.00 547.39 444.59 551.56 440.81"
/>
<path stroke="#776f0c" fill="none" stroke-width="1.00" vector-effect="non-scaling-stroke" d="
  M 269.45 495.25
  C 266.74 491.26 262.01 488.13 257.83 485.97
  A 0.58 0.56 30.9 0 0 257.10 486.14
  Q 252.48 492.80 253.57 500.88
  A 1.30 1.30 -1.6 0 0 254.76 502.00
  Q 263.67 502.69 269.40 496.05
  A 0.66 0.66 48.7 0 0 269.45 495.25"
/>
</svg>
