<?xml version="1.0" encoding="UTF-8" standalone="no"?>
<!DOCTYPE svg PUBLIC "-//W3C//DTD SVG 1.1//EN" "http://www.w3.org/Graphics/SVG/1.1/DTD/svg11.dtd">
<svg xmlns="http://www.w3.org/2000/svg" version="1.1" viewBox="0.00 0.00 3089.00 678.00">
<g>
<rect fill="none" stroke-width="1.00" stroke="#000000" vector-effect="non-scaling-stroke" x="-10.49" y="-0.25" transform="translate(2635.24,0.92) rotate(-1.1)" width="20.98" height="0.50" rx="0.25"/>
<path fill="none" stroke-width="1.00" stroke="#000000" vector-effect="non-scaling-stroke" d="
  M 2616.00 2.02
  L 2608.11 2.43
  A 0.20 0.19 39.6 0 1 2608.07 2.04
  Q 2612.03 1.57 2616.00 1.81
  A 0.11 0.11 0.0 0 1 2616.00 2.02
  Z"
/>
<ellipse fill="none" stroke-width="1.00" stroke="#000000" vector-effect="non-scaling-stroke" cx="0.00" cy="0.00" transform="translate(2602.78,2.47) rotate(-2.1)" rx="3.45" ry="0.32"/>
<path fill="none" stroke-width="1.00" stroke="#000000" vector-effect="non-scaling-stroke" d="
  M 2597.37 2.88
  C 2595.61 2.88 2593.90 3.32 2592.06 3.18
  A 0.08 0.07 42.1 0 1 2592.05 3.03
  Q 2594.67 2.64 2597.37 2.88
  Q 2597.38 2.88 2597.38 2.88
  Q 2597.38 2.88 2597.38 2.88
  Q 2597.38 2.88 2597.37 2.88
  Z"
/>
<path fill="none" stroke-width="1.00" stroke="#000000" stroke-opacity="0.400" vector-effect="non-scaling-stroke" d="
  M 2556.74 4.48
  A 0.12 0.12 0.0 0 1 2556.85 4.36
  L 2562.57 4.04
  A 26.43 0.62 -3.2 0 1 2589.00 3.18
  L 2589.01 3.46
  A 26.43 0.62 -3.2 0 1 2562.66 5.55
  L 2556.94 5.87
  A 0.12 0.12 0.0 0 1 2556.81 5.76
  L 2556.74 4.48
  Z"
/>
<path fill="none" stroke-width="1.00" stroke="#000000" vector-effect="non-scaling-stroke" d="
  M 2548.26 5.51
  L 2551.93 5.28
  A 0.12 0.12 0.0 0 1 2551.96 5.51
  Q 2550.14 5.83 2548.27 5.61
  Q 2548.27 5.62 2548.27 5.61
  A 0.10 0.01 78.8 0 1 2548.26 5.51
  Z"
/>
<ellipse fill="none" stroke-width="1.00" stroke="#000000" vector-effect="non-scaling-stroke" cx="0.00" cy="0.00" transform="translate(2540.71,6.06) rotate(-2.4)" rx="2.03" ry="0.19"/>
<path fill="none" stroke-width="1.00" stroke="#000000" vector-effect="non-scaling-stroke" d="
  M 2528.27 6.60
  C 2530.82 6.54 2533.28 6.15 2535.88 6.24
  Q 2536.00 6.24 2536.00 6.37
  Q 2536.00 6.40 2536.00 6.44
  Q 2536.00 6.51 2535.94 6.51
  Q 2532.11 6.92 2528.26 6.60
  Q 2528.26 6.61 2528.26 6.61
  Q 2528.27 6.60 2528.27 6.60
  Z"
/>
<path fill="none" stroke-width="1.00" stroke="#000000" vector-effect="non-scaling-stroke" d="
  M 2521.29 7.06
  C 2522.94 6.73 2524.45 6.81 2526.11 6.87
  Q 2526.13 6.87 2526.13 6.86
  Q 2526.13 6.86 2526.13 6.86
  Q 2526.12 6.84 2526.10 6.84
  Q 2523.69 7.16 2521.30 7.20
  A 0.07 0.07 0.0 0 1 2521.29 7.06
  Z"
/>
<path fill="none" stroke-width="1.00" stroke="#000000" vector-effect="non-scaling-stroke" d="
  M 2465.97 10.08
  C 2467.56 10.12 2469.18 9.58 2471.01 9.48
  Q 2499.33 7.81 2517.39 7.24
  Q 2517.50 7.23 2517.50 7.34
  Q 2517.50 7.37 2517.50 7.39
  Q 2517.50 7.44 2517.45 7.44
  Q 2494.65 9.34 2471.78 10.09
  C 2470.97 10.12 2470.14 10.55 2469.25 10.57
  Q 2460.64 10.84 2452.45 10.90
  Q 2450.97 10.91 2452.44 10.73
  Q 2459.01 9.93 2465.97 10.08
  Z"
/>
<path fill="none" stroke-width="1.00" stroke="#000000" vector-effect="non-scaling-stroke" d="
  M 2438.44 11.96
  A 0.22 0.22 0.0 0 1 2438.41 11.52
  Q 2443.31 10.96 2448.24 11.09
  A 0.25 0.25 0.0 0 1 2448.24 11.59
  L 2438.44 11.96
  Z"
/>
<path fill="none" stroke-width="1.00" stroke="#000000" vector-effect="non-scaling-stroke" d="
  M 2430.19 12.45
  Q 2424.47 13.59 2418.68 12.40
  A 0.01 0.00 -47.9 0 1 2418.68 12.39
  Q 2424.39 11.91 2430.16 12.08
  Q 2431.83 12.13 2430.19 12.45
  Z"
/>
<rect fill="none" stroke-width="1.00" stroke="#000000" vector-effect="non-scaling-stroke" x="-4.92" y="-0.27" transform="translate(2407.31,13.45) rotate(-1.9)" width="9.84" height="0.54" rx="0.26"/>
<path fill="none" stroke-width="1.00" stroke="#000000" vector-effect="non-scaling-stroke" d="
  M 2395.41 14.48
  Q 2386.99 15.18 2378.52 15.02
  Q 2378.49 15.01 2378.49 15.04
  Q 2378.50 15.12 2378.51 15.08
  Q 2386.90 13.80 2395.41 14.11
  A 0.19 0.18 -45.7 0 1 2395.41 14.48
  Z"
/>
<ellipse fill="none" stroke-width="1.00" stroke="#000000" vector-effect="non-scaling-stroke" cx="0.00" cy="0.00" transform="translate(2372.42,15.48) rotate(-2.2)" rx="4.43" ry="0.32"/>
<path fill="none" stroke-width="1.00" stroke="#000000" vector-effect="non-scaling-stroke" d="
  M 2365.37 15.88
  C 2364.17 15.93 2363.36 16.48 2362.36 16.11
  Q 2361.89 15.93 2362.39 15.89
  Q 2363.79 15.76 2365.38 15.88
  Q 2365.38 15.88 2365.38 15.88
  Q 2365.38 15.88 2365.38 15.88
  Q 2365.38 15.88 2365.37 15.88
  Z"
/>
<path fill="none" stroke-width="1.00" stroke="#000000" vector-effect="non-scaling-stroke" d="
  M 2330.29 17.59
  Q 2343.46 16.39 2356.70 16.20
  Q 2356.75 16.20 2356.75 16.24
  Q 2356.75 16.38 2356.75 16.50
  Q 2356.75 16.59 2356.66 16.60
  C 2352.34 16.93 2348.39 16.86 2343.81 17.37
  C 2337.58 18.07 2330.26 17.47 2323.44 18.54
  C 2320.55 19.00 2318.40 17.25 2315.65 18.19
  C 2312.15 19.38 2309.48 18.39 2306.05 19.20
  C 2301.26 20.32 2296.85 19.21 2292.31 20.02
  Q 2285.76 21.19 2283.49 20.98
  Q 2280.98 20.76 2279.31 20.82
  C 2274.87 20.99 2270.56 20.71 2266.13 20.81
  Q 2266.05 20.81 2266.10 20.73
  Q 2266.11 20.71 2266.12 20.68
  Q 2266.14 20.63 2266.17 20.63
  C 2268.60 20.45 2270.80 19.98 2273.28 20.12
  Q 2276.03 20.28 2278.77 20.09
  C 2282.60 19.83 2286.53 20.22 2290.42 19.65
  C 2295.21 18.95 2298.59 18.99 2302.94 18.96
  C 2305.83 18.95 2308.33 17.47 2311.71 18.39
  A 1.62 1.60 -47.1 0 0 2312.70 18.35
  Q 2314.58 17.68 2316.50 17.36
  C 2318.64 16.99 2320.11 17.98 2322.32 18.04
  C 2324.09 18.08 2325.44 17.08 2327.51 17.38
  Q 2329.44 17.67 2330.29 17.59
  Z"
/>
<path fill="none" stroke-width="1.00" stroke="#000000" vector-effect="non-scaling-stroke" d="
  M 2251.63 21.13
  Q 2257.13 21.01 2262.86 20.88
  Q 2263.05 20.88 2262.89 20.98
  Q 2261.41 21.89 2260.75 21.81
  Q 2253.73 20.95 2246.85 22.28
  C 2242.76 23.07 2239.45 22.40 2235.67 23.07
  Q 2226.73 24.65 2217.64 23.85
  Q 2217.13 23.80 2216.67 24.04
  Q 2213.87 25.52 2211.16 23.85
  A 0.11 0.11 0.0 0 1 2211.24 23.65
  Q 2213.73 24.13 2215.54 23.79
  Q 2218.50 23.25 2219.04 23.26
  C 2224.47 23.30 2229.92 23.31 2235.29 22.45
  C 2238.98 21.85 2242.49 22.42 2246.02 21.79
  Q 2249.50 21.17 2251.63 21.13
  Z"
/>
<path fill="none" stroke-width="1.00" stroke="#000000" vector-effect="non-scaling-stroke" d="
  M 2209.09 24.47
  C 2207.65 25.15 2204.75 24.95 2203.21 24.45
  Q 2202.74 24.29 2203.24 24.28
  L 2209.00 24.11
  Q 2209.88 24.09 2209.09 24.47
  Z"
/>
<path fill="none" stroke-width="1.00" stroke="#000000" vector-effect="non-scaling-stroke" d="
  M 2197.27 24.59
  C 2198.64 24.42 2199.71 24.14 2201.24 24.33
  A 0.20 0.20 0.0 0 1 2201.21 24.72
  L 2197.28 24.66
  A 0.04 0.03 39.4 0 1 2197.27 24.59
  Z"
/>
<path fill="none" stroke-width="1.00" stroke="#000000" vector-effect="non-scaling-stroke" d="
  M 2175.15 25.99
  L 2173.02 25.78
  Q 2172.18 25.70 2172.98 25.42
  Q 2174.13 25.02 2175.15 25.99
  Z"
/>
<path fill="none" stroke-width="1.00" stroke="#000000" vector-effect="non-scaling-stroke" d="
  M 2170.76 26.84
  A 0.15 0.15 0.0 0 1 2170.61 26.99
  L 2165.73 26.97
  A 4.53 0.37 0.2 0 1 2161.20 26.58
  L 2161.20 26.58
  A 4.53 0.37 0.2 0 1 2165.73 26.23
  L 2170.61 26.25
  A 0.15 0.15 0.0 0 1 2170.76 26.40
  L 2170.76 26.84
  Z"
/>
<path fill="none" stroke-width="1.00" stroke="#000000" vector-effect="non-scaling-stroke" d="
  M 2175.15 25.99
  L 2178.67 26.14
  Q 2179.28 26.17 2178.76 26.48
  Q 2177.03 27.53 2175.15 25.99
  Z"
/>
<path fill="none" stroke-width="1.00" stroke="#000000" vector-effect="non-scaling-stroke" d="
  M 2057.45 32.97
  C 2071.66 31.52 2084.55 31.51 2100.94 29.97
  Q 2103.47 29.73 2108.58 29.95
  Q 2113.16 30.15 2116.27 29.08
  Q 2118.92 28.16 2121.07 28.47
  Q 2124.26 28.94 2124.75 28.92
  Q 2141.10 28.27 2156.43 26.99
  Q 2159.83 26.71 2156.47 27.33
  C 2148.22 28.87 2139.84 28.46 2131.25 29.23
  C 2128.49 29.48 2124.41 30.33 2121.79 29.43
  C 2120.50 28.99 2119.84 28.63 2118.42 29.04
  Q 2114.28 30.23 2110.01 30.54
  Q 2109.35 30.59 2105.48 30.16
  C 2103.05 29.89 2100.65 30.86 2098.51 31.02
  Q 2078.22 32.45 2057.94 33.29
  Q 2057.91 33.29 2057.58 33.37
  Q 2057.41 33.41 2057.32 33.28
  Q 2057.11 33.01 2057.45 32.97
  Z"
/>
<path fill="none" stroke-width="1.00" stroke="#000000" vector-effect="non-scaling-stroke" d="
  M 2047.10 33.39
  Q 2047.00 33.73 2046.49 33.81
  Q 2043.72 34.21 2039.91 33.68
  Q 2039.54 33.62 2039.73 33.30
  Q 2039.98 32.90 2040.51 33.00
  Q 2044.01 33.64 2046.86 33.12
  Q 2047.20 33.06 2047.10 33.39
  Z"
/>
<rect fill="none" stroke-width="1.00" stroke="#000000" vector-effect="non-scaling-stroke" x="-7.64" y="-0.28" transform="translate(2028.05,34.56) rotate(-5.9)" width="15.28" height="0.56" rx="0.26"/>
<path fill="none" stroke-width="1.00" stroke="#000000" vector-effect="non-scaling-stroke" d="
  M 1666.37 436.51
  Q 1667.47 437.81 1667.32 439.46
  Q 1667.26 440.08 1666.64 439.98
  Q 1662.06 439.25 1657.49 439.48
  Q 1649.75 439.87 1648.49 439.85
  Q 1639.90 439.71 1631.32 439.79
  Q 1629.16 439.82 1622.26 440.57
  C 1618.00 441.04 1613.11 440.63 1609.58 440.74
  C 1599.07 441.08 1588.70 441.03 1578.05 441.61
  Q 1558.62 442.65 1539.16 442.36
  C 1535.73 442.31 1532.66 442.86 1529.23 443.20
  Q 1527.43 443.39 1525.25 443.14
  Q 1516.15 442.09 1507.01 443.11
  Q 1505.27 443.31 1502.31 442.84
  C 1497.95 442.16 1492.89 443.94 1489.24 443.46
  C 1486.67 443.13 1484.88 443.84 1482.92 443.72
  Q 1475.00 443.21 1467.08 442.92
  Q 1460.79 442.68 1452.43 443.06
  Q 1442.18 443.53 1437.80 443.35
  Q 1418.87 442.59 1399.96 443.48
  Q 1396.14 443.66 1390.53 443.45
  C 1384.46 443.22 1378.69 443.71 1372.42 443.64
  C 1368.57 443.60 1364.31 444.00 1360.86 444.02
  Q 1344.55 444.12 1328.25 444.22
  Q 1321.55 444.26 1317.08 444.16
  C 1309.24 444.00 1301.14 444.68 1293.08 443.98
  A 1.96 1.92 -54.6 0 0 1292.12 444.15
  Q 1288.77 445.72 1285.25 444.98
  C 1282.45 444.40 1280.68 444.61 1278.10 444.80
  Q 1277.03 444.89 1273.86 444.50
  C 1271.88 444.26 1269.99 444.92 1268.05 444.75
  Q 1261.31 444.15 1254.59 444.53
  C 1249.01 444.84 1243.73 444.36 1238.25 444.48
  Q 1233.69 444.58 1227.27 444.38
  C 1222.35 444.22 1217.38 444.70 1212.58 444.65
  Q 1206.72 444.58 1200.88 445.09
  C 1197.84 445.35 1194.45 444.41 1191.19 444.81
  Q 1188.41 445.15 1186.78 445.04
  Q 1179.95 444.60 1173.11 445.03
  Q 1167.92 445.36 1162.86 445.15
  Q 1156.34 444.88 1145.50 444.97
  Q 1131.00 445.08 1116.50 445.14
  Q 1114.77 445.15 1109.43 445.74
  C 1106.18 446.10 1102.57 445.72 1099.86 445.81
  Q 1088.94 446.18 1078.00 446.26
  Q 1020.49 446.67 963.00 448.27
  C 957.13 448.43 950.97 448.09 945.33 448.43
  Q 928.55 449.46 914.00 449.53
  Q 890.74 449.65 872.98 450.32
  Q 866.91 450.55 850.24 450.39
  C 846.68 450.36 841.36 450.84 836.92 450.72
  Q 833.71 450.64 831.58 450.75
  Q 815.30 451.65 799.01 451.68
  C 774.58 451.73 750.18 452.79 725.75 452.99
  Q 708.88 453.13 692.01 453.70
  Q 685.68 453.91 677.01 453.91
  C 670.33 453.92 663.46 454.16 657.00 454.11
  Q 640.33 453.99 623.67 454.44
  Q 618.39 454.59 609.33 454.30
  C 599.26 453.97 587.02 454.92 579.26 455.01
  Q 571.39 455.10 563.52 455.19
  C 560.71 455.22 557.02 456.53 554.50 456.19
  Q 542.65 454.64 538.50 455.00
  Q 523.19 456.33 514.25 455.96
  Q 495.75 455.18 477.24 455.71
  Q 475.92 455.75 474.58 455.70
  C 471.07 455.57 467.51 456.19 463.96 456.10
  Q 458.74 455.98 456.03 456.17
  Q 434.05 457.71 417.25 457.81
  Q 405.13 457.89 399.25 458.32
  Q 395.72 458.58 386.07 458.12
  Q 383.19 457.98 376.44 458.12
  C 372.07 458.20 367.70 457.65 363.54 457.83
  C 350.24 458.44 336.95 458.31 323.65 459.02
  Q 315.20 459.47 306.32 459.35
  Q 294.44 459.18 282.58 459.81
  Q 273.98 460.26 264.42 460.25
  C 253.41 460.24 242.48 461.66 231.51 461.18
  Q 224.30 460.86 217.10 461.53
  C 216.05 461.62 214.76 461.02 213.75 461.12
  Q 206.37 461.82 195.25 461.96
  C 182.11 462.13 160.63 463.47 143.44 463.54
  Q 133.88 463.57 124.32 463.56
  Q 101.23 463.52 86.76 461.65
  Q 66.14 458.99 57.13 441.59
  Q 49.05 425.96 45.27 410.98
  Q 42.70 400.79 41.06 388.56
  Q 40.10 381.42 39.47 369.90
  C 38.87 359.04 37.96 348.35 38.17 337.31
  Q 38.28 331.96 38.39 323.42
  Q 38.65 303.01 41.66 278.30
  C 44.72 253.13 41.90 224.13 71.52 213.49
  Q 79.86 210.50 87.88 209.00
  Q 89.87 208.62 104.64 206.76
  C 117.05 205.20 129.51 203.46 141.84 202.72
  Q 169.90 201.03 198.01 200.45
  Q 206.83 200.26 218.00 200.48
  Q 260.12 201.30 302.25 201.28
  Q 312.56 201.28 322.25 201.52
  Q 353.74 202.30 385.24 202.94
  Q 387.26 202.98 401.18 202.74
  C 408.33 202.61 416.56 203.33 422.45 203.46
  C 440.63 203.85 458.82 204.44 477.01 204.58
  Q 517.76 204.88 558.51 205.51
  Q 566.54 205.63 578.50 205.68
  Q 602.38 205.78 626.25 206.50
  Q 637.47 206.84 648.69 206.62
  Q 666.06 206.28 683.43 206.82
  Q 688.07 206.97 696.57 206.87
  C 703.06 206.80 709.49 207.34 715.97 207.25
  Q 718.07 207.22 720.17 207.36
  C 724.37 207.64 728.38 206.93 732.63 207.23
  Q 739.04 207.68 740.89 207.69
  C 750.54 207.72 759.20 207.99 769.81 207.79
  Q 776.88 207.67 783.94 207.99
  Q 792.61 208.39 799.58 208.20
  C 809.54 207.94 818.21 208.69 827.11 208.58
  Q 836.86 208.46 836.89 208.46
  Q 847.09 208.63 857.27 209.19
  C 862.11 209.46 867.56 208.71 872.57 208.98
  Q 885.08 209.66 906.75 210.17
  Q 909.15 210.23 910.34 208.96
  A 0.90 0.90 0.0 0 1 911.41 208.77
  L 913.28 209.72
  Q 913.74 209.96 914.26 209.97
  Q 946.60 210.82 965.00 210.58
  Q 970.92 210.51 974.84 211.10
  C 977.01 211.43 978.26 210.55 980.28 210.63
  Q 987.02 210.88 993.77 211.04
  Q 996.63 211.10 1007.22 211.71
  C 1015.04 212.16 1023.47 211.59 1030.59 211.94
  Q 1047.04 212.74 1063.49 213.37
  Q 1063.86 213.39 1064.21 213.52
  Q 1064.68 213.70 1065.18 213.69
  Q 1084.12 213.56 1103.06 213.42
  Q 1105.14 213.40 1107.64 213.86
  C 1112.97 214.85 1118.60 213.66 1124.12 214.26
  Q 1129.36 214.82 1132.42 214.67
  Q 1137.23 214.43 1142.03 214.11
  C 1146.28 213.82 1149.44 215.53 1153.40 215.44
  Q 1163.89 215.21 1174.38 215.63
  C 1175.44 215.67 1176.80 214.97 1177.51 215.09
  C 1183.18 216.01 1189.35 215.51 1194.49 215.76
  C 1199.97 216.03 1205.84 215.50 1210.83 215.59
  C 1216.57 215.70 1222.29 215.55 1228.04 215.85
  C 1238.37 216.40 1249.09 216.22 1258.98 216.49
  C 1273.27 216.88 1287.55 216.55 1303.25 217.49
  C 1307.53 217.74 1312.86 217.03 1317.58 217.23
  Q 1325.93 217.59 1334.28 217.65
  C 1345.87 217.73 1357.10 218.22 1368.50 218.18
  Q 1378.38 218.15 1386.01 218.40
  Q 1405.37 219.05 1424.75 219.07
  Q 1435.94 219.09 1444.75 219.32
  Q 1491.14 220.55 1505.50 219.89
  Q 1515.83 219.42 1521.75 220.05
  Q 1525.59 220.46 1532.75 220.28
  Q 1540.09 220.09 1543.76 220.13
  Q 1574.96 220.52 1606.15 221.67
  C 1608.08 221.74 1610.87 221.63 1613.55 221.68
  Q 1630.68 222.06 1672.50 222.19
  Q 1678.50 222.21 1690.65 222.93
  C 1693.48 223.10 1696.43 222.45 1699.22 222.86
  Q 1705.52 223.80 1711.88 224.12
  Q 1763.07 226.69 1814.24 225.39
  Q 1826.83 225.06 1839.40 224.40
  C 1846.93 224.00 1862.04 223.74 1877.72 221.74
  C 1880.83 221.34 1884.13 221.47 1887.09 221.03
  C 1897.03 219.57 1907.56 218.72 1916.93 217.25
  Q 1938.17 213.93 1959.46 210.98
  C 1970.57 209.44 1983.01 207.39 1991.76 205.36
  Q 1994.87 204.64 1997.56 205.52
  Q 1998.05 205.68 1998.32 205.24
  L 1998.77 204.49
  Q 1999.06 204.00 1999.62 203.92
  Q 2002.49 203.48 2005.34 203.01
  C 2006.61 202.80 2009.18 202.92 2011.13 202.23
  C 2013.83 201.28 2014.28 198.87 2017.84 200.61
  Q 2018.30 200.83 2018.76 200.60
  Q 2023.31 198.30 2028.32 198.07
  C 2032.47 197.88 2034.29 195.77 2037.99 194.96
  C 2043.18 193.81 2048.30 192.49 2053.50 191.41
  Q 2057.73 190.54 2061.39 188.21
  Q 2061.82 187.93 2062.33 187.94
  C 2063.62 187.94 2064.63 188.19 2065.88 187.76
  Q 2070.38 186.19 2074.93 184.77
  C 2078.18 183.75 2080.61 185.13 2083.46 182.07
  Q 2083.80 181.70 2084.28 181.57
  C 2105.74 175.99 2127.93 166.94 2146.94 160.54
  C 2157.81 156.88 2168.25 151.31 2178.91 146.97
  Q 2179.42 146.76 2179.68 146.28
  L 2179.80 146.05
  Q 2179.93 145.81 2180.19 145.71
  Q 2193.54 140.68 2206.73 135.25
  C 2207.91 134.76 2210.06 133.23 2211.97 132.91
  Q 2213.56 132.66 2214.41 132.26
  Q 2221.18 129.11 2227.95 125.96
  C 2234.27 123.02 2242.06 120.42 2248.97 117.17
  Q 2252.33 115.59 2258.28 113.37
  C 2263.38 111.46 2268.57 108.34 2273.07 106.48
  Q 2293.35 98.12 2313.54 89.57
  Q 2323.02 85.56 2332.16 82.30
  C 2352.44 75.07 2372.51 67.61 2393.20 62.00
  C 2397.34 60.87 2403.90 58.03 2409.52 57.02
  Q 2414.55 56.12 2416.89 55.45
  C 2435.71 50.07 2452.97 47.44 2471.21 44.24
  Q 2503.51 38.57 2536.21 36.16
  Q 2538.93 35.96 2549.25 34.96
  C 2557.50 34.17 2568.05 34.12 2573.98 33.90
  C 2589.18 33.34 2602.48 33.77 2616.74 33.46
  Q 2621.20 33.37 2627.75 33.69
  C 2632.65 33.93 2638.04 33.79 2642.45 34.02
  C 2665.39 35.23 2688.21 37.54 2710.85 41.48
  Q 2732.38 45.23 2753.99 48.51
  C 2754.84 48.64 2756.02 48.36 2757.01 48.65
  Q 2769.16 52.27 2781.76 53.81
  Q 2783.58 54.03 2787.23 56.38
  Q 2790.02 58.18 2792.59 59.00
  C 2798.01 60.73 2803.46 62.35 2808.74 64.51
  Q 2824.06 70.75 2839.50 76.68
  Q 2846.49 79.36 2852.58 82.74
  C 2870.02 92.42 2882.74 100.82 2897.77 109.98
  Q 2911.02 118.05 2926.21 131.21
  C 2932.63 136.76 2942.73 144.96 2950.18 152.86
  Q 2950.21 152.89 2956.62 160.28
  Q 2960.57 164.84 2966.44 170.57
  C 2970.64 174.67 2974.62 181.86 2977.20 185.46
  C 2982.44 192.77 2988.59 199.86 2992.74 207.83
  Q 2995.67 213.46 2999.52 218.50
  C 3005.75 226.67 3009.97 236.34 3013.81 245.81
  C 3016.78 253.13 3021.47 259.89 3023.60 267.34
  Q 3024.75 271.38 3025.88 274.02
  Q 3035.22 295.74 3037.80 304.25
  Q 3043.01 321.39 3049.34 338.14
  C 3050.96 342.42 3051.09 347.22 3052.44 351.78
  C 3053.88 356.68 3054.40 361.58 3055.97 366.36
  Q 3057.71 371.69 3058.21 373.78
  C 3059.62 379.65 3061.08 384.73 3061.43 391.12
  Q 3061.74 396.90 3063.08 402.54
  C 3064.56 408.78 3063.80 415.87 3065.51 421.23
  Q 3067.05 426.08 3067.62 429.06
  C 3068.21 432.12 3066.78 435.07 3068.30 438.52
  Q 3069.28 440.75 3069.39 442.18
  C 3069.82 447.85 3069.95 453.00 3070.93 458.92
  Q 3072.21 466.63 3072.21 474.48
  C 3072.21 477.05 3073.12 479.09 3073.20 481.51
  Q 3073.72 495.85 3075.04 510.13
  Q 3075.47 514.75 3075.26 520.88
  C 3075.01 528.11 3075.87 535.69 3075.63 542.37
  Q 3075.31 550.80 3075.01 559.22
  C 3074.73 566.74 3073.84 573.91 3072.91 581.24
  Q 3072.57 583.93 3070.00 589.99
  Q 3066.13 599.09 3057.73 604.21
  Q 3056.59 604.90 3055.89 606.93
  Q 3055.13 609.12 3054.62 609.86
  Q 3051.73 613.95 3046.44 614.19
  A 1.47 1.44 22.6 0 0 3045.52 614.56
  C 3043.28 616.52 3040.59 616.25 3038.46 617.03
  C 3033.65 618.80 3029.12 620.67 3023.98 621.45
  C 3011.75 623.30 2999.32 625.39 2987.28 626.85
  Q 2952.96 631.00 2942.61 631.77
  Q 2908.45 634.32 2895.25 635.63
  Q 2877.26 637.43 2863.99 637.79
  C 2862.36 637.83 2860.22 638.60 2858.31 638.71
  Q 2822.66 640.70 2786.99 642.49
  C 2785.79 642.55 2784.77 642.31 2783.68 642.38
  C 2774.20 642.93 2764.43 643.95 2754.95 643.61
  C 2752.04 643.51 2749.03 644.18 2746.18 643.85
  Q 2744.84 643.69 2743.50 643.73
  Q 2718.88 644.48 2694.25 644.49
  Q 2656.43 644.51 2618.72 641.95
  C 2603.27 640.90 2587.80 640.74 2572.34 639.92
  Q 2568.05 639.70 2565.25 639.36
  C 2556.42 638.28 2547.56 637.99 2538.72 636.90
  C 2531.50 636.02 2523.76 635.80 2517.75 635.07
  Q 2499.42 632.84 2449.08 623.53
  C 2431.44 620.27 2413.89 615.70 2396.37 611.61
  C 2393.92 611.04 2391.69 609.95 2389.27 609.11
  C 2386.20 608.04 2382.67 608.53 2379.54 607.39
  C 2375.54 605.93 2372.08 605.55 2368.27 603.99
  C 2365.70 602.94 2363.04 602.91 2360.65 602.11
  C 2349.06 598.23 2337.76 596.56 2326.05 590.83
  Q 2322.89 589.28 2319.23 588.39
  Q 2308.84 585.88 2299.25 581.18
  Q 2297.43 580.28 2295.08 580.08
  C 2288.18 579.49 2283.32 576.07 2277.40 573.01
  Q 2275.69 572.12 2272.90 571.67
  C 2268.28 570.93 2264.63 568.07 2261.08 566.65
  Q 2252.78 563.34 2244.61 559.76
  Q 2242.91 559.01 2238.92 556.48
  C 2235.03 554.01 2230.42 553.23 2226.88 551.55
  Q 2192.50 535.19 2157.40 520.46
  Q 2141.43 513.75 2125.44 507.07
  C 2121.55 505.44 2114.53 501.40 2108.47 499.72
  Q 2102.28 498.00 2100.19 497.27
  Q 2091.06 494.07 2073.31 488.69
  Q 2071.41 488.11 2070.19 488.00
  C 2068.12 487.80 2066.49 487.53 2064.92 486.48
  Q 2062.93 485.14 2059.51 484.87
  C 2057.70 484.73 2055.77 482.55 2054.12 481.79
  C 2051.36 480.53 2049.31 478.96 2046.18 478.69
  C 2037.45 477.93 2030.51 474.03 2022.80 471.14
  Q 2022.26 470.94 2021.77 471.23
  Q 2019.04 472.85 2017.15 470.04
  A 0.66 0.66 0.0 0 0 2016.41 469.77
  L 2013.60 470.57
  A 0.89 0.86 52.5 0 1 2012.86 470.46
  Q 2007.59 466.92 2001.22 466.63
  A 0.95 0.95 0.0 0 1 2000.47 466.18
  Q 1999.33 464.27 1997.00 464.93
  A 1.18 1.16 -43.0 0 1 1996.27 464.91
  Q 1990.80 462.90 1981.50 461.74
  Q 1978.67 461.38 1975.51 459.11
  C 1973.94 457.99 1973.16 458.08 1971.37 457.89
  C 1969.23 457.65 1967.39 456.41 1965.10 456.21
  Q 1961.32 455.88 1960.45 455.71
  C 1953.99 454.48 1947.10 454.87 1941.15 453.89
  Q 1923.32 450.96 1905.50 447.97
  Q 1904.18 447.74 1901.86 446.04
  Q 1901.43 445.72 1901.11 446.16
  Q 1900.95 446.38 1901.01 446.84
  A 1.04 1.04 0.0 0 1 1899.29 447.77
  L 1895.98 444.85
  Q 1895.67 444.57 1895.33 444.82
  Q 1894.91 445.14 1895.02 445.77
  A 1.30 1.30 0.0 0 1 1892.61 446.65
  C 1891.46 444.68 1890.17 443.64 1887.76 443.37
  Q 1870.69 441.47 1853.51 441.11
  Q 1852.69 441.10 1851.66 440.55
  A 1.60 1.58 55.1 0 0 1850.73 440.38
  Q 1845.78 440.94 1841.52 438.31
  A 0.51 0.51 0.0 0 0 1840.74 438.71
  L 1840.63 440.50
  A 0.61 0.61 0.0 0 1 1839.87 441.06
  C 1837.65 440.48 1836.17 439.79 1833.78 439.91
  Q 1828.45 440.18 1823.60 437.83
  A 0.44 0.44 0.0 0 0 1822.97 438.22
  L 1822.95 439.36
  A 0.65 0.65 0.0 0 1 1822.20 439.99
  Q 1813.82 438.64 1810.25 438.57
  Q 1787.82 438.17 1765.41 436.91
  C 1761.16 436.67 1756.37 437.32 1752.75 437.25
  Q 1737.85 436.95 1729.00 437.55
  C 1726.99 437.68 1725.09 437.46 1723.76 437.50
  Q 1697.38 438.38 1671.00 439.22
  Q 1670.09 439.25 1668.80 437.95
  Q 1667.43 436.59 1666.68 436.15
  A 0.24 0.24 0.0 0 0 1666.37 436.51
  Z
  M 1821.62 437.32
  A 0.80 0.80 0.0 0 1 1822.69 436.44
  C 1826.37 437.84 1829.50 439.11 1833.60 438.85
  Q 1836.55 438.66 1839.34 439.81
  Q 1839.88 440.03 1839.84 439.45
  L 1839.76 438.21
  Q 1839.72 437.61 1840.32 437.54
  C 1843.31 437.19 1845.56 439.29 1848.66 439.51
  Q 1852.72 439.80 1852.81 439.81
  Q 1857.85 440.51 1862.94 440.60
  Q 1869.93 440.73 1873.06 441.02
  Q 1880.46 441.71 1887.86 442.36
  C 1890.51 442.59 1892.12 443.38 1893.20 445.73
  A 0.16 0.16 0.0 0 0 1893.48 445.74
  Q 1895.11 442.72 1896.83 444.23
  Q 1897.96 445.22 1899.25 446.28
  Q 1899.77 446.72 1899.89 446.05
  Q 1900.13 444.80 1901.14 444.71
  C 1902.66 444.58 1905.07 446.87 1906.48 447.10
  Q 1924.10 450.02 1941.71 452.96
  C 1946.89 453.82 1952.20 453.76 1957.53 454.15
  C 1959.72 454.31 1961.97 455.17 1964.39 455.28
  C 1967.79 455.44 1969.87 456.48 1972.98 457.07
  Q 1974.90 457.43 1976.76 458.54
  C 1981.53 461.36 1986.27 460.90 1990.80 462.15
  Q 1993.90 463.00 1997.02 464.02
  A 1.79 1.76 -43.5 0 0 1998.03 464.04
  Q 2000.21 463.44 2001.21 465.23
  Q 2001.47 465.69 2001.99 465.72
  Q 2008.14 466.03 2013.29 469.30
  A 0.94 0.94 0.0 0 0 2014.31 469.30
  Q 2017.06 467.50 2018.88 470.25
  A 1.44 1.43 -2.9 0 0 2019.36 470.68
  Q 2020.35 471.19 2020.82 470.31
  A 1.26 1.25 24.5 0 1 2022.38 469.73
  C 2030.37 472.83 2038.15 477.13 2046.97 477.75
  C 2050.05 477.97 2051.91 479.61 2054.68 480.74
  C 2056.22 481.36 2057.13 482.55 2058.62 483.33
  Q 2059.09 483.58 2062.00 484.09
  C 2065.16 484.65 2067.02 486.92 2070.61 487.14
  Q 2072.96 487.29 2074.85 487.93
  Q 2077.08 488.67 2080.54 489.50
  Q 2085.22 490.61 2099.75 495.92
  Q 2101.79 496.66 2108.45 498.54
  C 2114.67 500.30 2121.80 504.27 2125.70 505.93
  Q 2144.87 514.06 2164.07 522.12
  Q 2195.90 535.50 2227.02 550.47
  Q 2230.21 552.00 2233.64 552.87
  C 2238.08 553.99 2241.33 557.10 2245.35 558.86
  C 2252.78 562.10 2260.50 564.84 2267.62 568.74
  C 2271.13 570.66 2274.72 570.30 2277.99 572.02
  C 2283.74 575.05 2288.81 578.54 2295.51 579.15
  Q 2298.01 579.38 2299.84 580.25
  Q 2310.40 585.28 2316.54 586.71
  Q 2323.47 588.32 2327.99 590.38
  C 2339.69 595.71 2350.28 597.48 2361.65 601.28
  C 2363.91 602.04 2366.37 601.99 2368.80 602.99
  C 2372.83 604.65 2376.51 605.13 2380.83 606.64
  C 2383.74 607.65 2387.00 607.15 2389.94 608.18
  C 2392.28 609.01 2394.44 610.02 2396.81 610.60
  Q 2434.59 619.71 2444.50 621.69
  Q 2465.78 625.92 2516.75 633.91
  C 2522.96 634.88 2530.25 634.86 2536.73 635.68
  Q 2549.11 637.23 2561.59 637.82
  C 2564.08 637.94 2566.47 638.94 2569.16 638.96
  C 2574.67 639.00 2579.02 639.47 2584.50 639.57
  C 2595.35 639.77 2609.16 640.31 2623.14 641.24
  Q 2645.47 642.73 2673.75 643.19
  Q 2709.51 643.78 2734.25 642.89
  Q 2734.41 642.89 2734.72 643.02
  Q 2735.11 643.18 2735.53 643.16
  C 2746.21 642.64 2757.60 642.96 2767.50 642.42
  Q 2776.20 641.94 2784.91 641.46
  C 2785.97 641.40 2787.09 641.85 2788.25 641.78
  Q 2823.49 639.79 2858.74 637.81
  C 2859.74 637.75 2860.60 637.36 2861.75 637.30
  Q 2880.04 636.46 2898.24 634.46
  Q 2906.43 633.56 2929.52 631.89
  Q 2939.98 631.14 2949.43 630.14
  Q 2974.23 627.53 2981.46 626.67
  Q 2999.76 624.49 3023.92 620.47
  Q 3027.42 619.89 3030.74 618.70
  Q 3034.07 617.51 3037.39 616.29
  C 3039.56 615.49 3042.40 615.68 3044.75 613.76
  Q 3045.16 613.43 3045.68 613.40
  Q 3050.83 613.04 3053.80 609.09
  Q 3054.22 608.52 3055.02 606.15
  Q 3055.60 604.46 3057.01 603.48
  C 3068.91 595.17 3071.59 585.81 3073.09 570.75
  Q 3074.61 555.39 3074.76 539.92
  C 3074.82 534.54 3074.14 527.48 3074.35 521.19
  Q 3074.55 514.86 3074.15 510.32
  C 3073.16 499.27 3072.99 488.16 3071.67 477.16
  Q 3071.14 472.80 3070.94 468.41
  Q 3070.72 463.71 3069.90 458.65
  Q 3068.58 450.46 3068.68 442.06
  A 1.64 1.64 0.0 0 0 3068.44 441.17
  Q 3065.74 436.78 3066.59 433.00
  Q 3067.33 429.73 3066.69 428.06
  Q 3063.16 418.77 3063.13 408.86
  C 3063.11 404.55 3061.29 400.58 3061.02 396.08
  Q 3060.30 383.93 3056.76 372.32
  Q 3054.54 365.05 3053.53 360.50
  Q 3052.11 354.12 3050.39 347.81
  C 3049.91 346.07 3050.22 344.10 3049.70 342.49
  Q 3047.40 335.52 3042.75 322.89
  C 3039.88 315.08 3037.22 304.90 3033.62 296.12
  C 3031.05 289.84 3028.75 282.87 3025.73 276.44
  Q 3024.10 272.99 3023.14 269.44
  Q 3021.66 264.03 3020.68 262.33
  C 3012.32 247.92 3008.27 230.61 2997.55 217.68
  C 2993.31 212.56 2991.25 206.33 2987.13 200.94
  Q 2977.63 188.53 2968.96 175.51
  Q 2967.29 173.01 2962.61 168.64
  Q 2959.26 165.52 2951.49 156.00
  Q 2945.48 148.64 2932.16 137.86
  C 2925.45 132.44 2916.96 124.57 2908.82 118.99
  Q 2885.17 102.79 2855.48 85.72
  Q 2846.05 80.29 2837.30 76.96
  C 2821.78 71.04 2806.62 64.58 2790.78 59.47
  C 2787.39 58.37 2783.75 55.05 2780.60 54.66
  Q 2768.92 53.21 2757.61 49.96
  C 2755.13 49.25 2752.40 49.36 2750.00 48.98
  Q 2731.83 46.14 2706.35 41.77
  C 2686.09 38.29 2665.59 36.35 2645.07 35.10
  C 2639.71 34.78 2633.53 34.89 2627.74 34.64
  Q 2619.94 34.30 2614.75 34.37
  Q 2602.70 34.54 2590.65 34.54
  Q 2580.56 34.53 2572.87 34.79
  Q 2563.99 35.09 2555.10 35.45
  C 2548.35 35.73 2539.63 37.17 2531.74 37.15
  C 2530.41 37.14 2529.07 37.84 2527.73 37.92
  Q 2513.49 38.72 2499.36 40.69
  Q 2485.92 42.56 2472.57 44.94
  C 2454.34 48.20 2437.00 50.78 2418.22 56.16
  Q 2415.84 56.84 2410.63 57.79
  C 2404.96 58.81 2398.71 61.57 2394.25 62.75
  C 2372.59 68.47 2354.65 75.61 2334.92 82.46
  Q 2325.09 85.88 2316.27 89.61
  Q 2295.42 98.42 2274.50 107.08
  C 2269.16 109.28 2262.39 113.27 2255.77 115.40
  C 2252.26 116.53 2249.07 118.67 2246.22 119.72
  Q 2230.47 125.53 2215.47 133.05
  C 2213.79 133.89 2212.18 133.58 2210.41 134.55
  C 2202.43 138.88 2193.01 141.93 2184.53 145.30
  C 2183.25 145.80 2181.40 145.80 2180.27 147.27
  Q 2179.96 147.67 2179.49 147.87
  C 2166.60 153.18 2154.26 159.62 2140.92 163.76
  Q 2134.46 165.76 2127.91 168.34
  Q 2106.92 176.59 2085.10 182.46
  Q 2084.61 182.59 2084.25 182.97
  C 2081.51 185.90 2079.03 184.57 2075.93 185.54
  C 2071.92 186.79 2067.39 188.98 2063.19 188.89
  Q 2062.69 188.88 2062.27 189.14
  Q 2059.18 191.04 2053.47 192.37
  C 2047.24 193.83 2040.25 194.83 2034.47 197.60
  Q 2030.69 199.40 2026.33 199.07
  Q 2024.39 198.92 2019.75 201.45
  Q 2018.54 202.11 2015.73 201.03
  A 0.91 0.90 34.4 0 0 2014.80 201.20
  Q 2012.45 203.34 2010.74 203.45
  Q 2005.46 203.78 2000.15 204.81
  A 0.87 0.87 0.0 0 0 1999.45 205.52
  Q 1999.24 206.79 1997.76 206.65
  Q 1997.21 206.59 1996.68 206.42
  Q 1994.61 205.75 1992.76 206.13
  Q 1972.82 210.22 1966.50 211.01
  Q 1950.76 212.99 1924.00 217.22
  Q 1912.06 219.11 1894.90 220.90
  C 1891.17 221.29 1884.76 222.43 1879.49 222.42
  C 1877.13 222.41 1874.90 223.22 1872.82 223.33
  Q 1844.79 224.93 1816.75 226.48
  C 1814.96 226.57 1812.29 226.32 1809.75 226.39
  Q 1764.95 227.70 1711.00 225.01
  Q 1705.20 224.72 1699.44 223.93
  C 1696.04 223.46 1692.69 224.08 1689.16 223.84
  Q 1679.37 223.16 1669.55 223.12
  C 1642.74 223.01 1615.85 222.96 1589.05 222.02
  Q 1552.67 220.76 1530.25 221.04
  Q 1525.46 221.11 1522.23 220.92
  Q 1515.84 220.55 1514.24 220.58
  Q 1482.70 221.22 1463.12 220.62
  Q 1444.09 220.05 1416.25 220.02
  C 1402.36 220.00 1387.45 219.18 1372.50 219.11
  C 1360.64 219.05 1346.61 218.63 1333.59 218.54
  C 1327.93 218.51 1317.95 217.95 1310.13 218.21
  Q 1303.97 218.40 1299.35 218.20
  Q 1284.55 217.54 1269.73 217.64
  C 1263.73 217.67 1257.14 217.16 1250.83 217.16
  Q 1240.14 217.17 1236.66 217.05
  Q 1225.76 216.70 1214.86 216.49
  C 1208.33 216.36 1199.91 216.88 1192.41 216.58
  C 1188.27 216.41 1182.60 216.87 1177.64 216.12
  A 1.69 1.67 -51.5 0 0 1176.71 216.23
  C 1174.77 217.04 1172.90 216.37 1171.41 216.38
  C 1165.58 216.41 1159.79 216.22 1153.96 216.38
  C 1149.91 216.49 1146.28 214.96 1142.57 215.02
  C 1135.67 215.15 1129.47 216.21 1122.11 215.14
  C 1117.53 214.47 1112.97 215.42 1108.25 214.91
  Q 1102.91 214.32 1100.70 214.33
  Q 1082.60 214.39 1064.50 214.61
  C 1063.80 214.62 1063.12 214.14 1062.59 214.12
  Q 1044.34 213.57 1026.09 212.66
  C 1022.37 212.48 1018.07 213.17 1014.75 212.98
  Q 997.67 211.97 980.56 211.61
  C 978.88 211.58 977.08 212.52 975.49 212.24
  Q 967.86 210.87 960.17 211.58
  Q 958.96 211.69 957.35 211.47
  C 955.10 211.18 951.83 211.56 950.47 211.54
  Q 931.94 211.23 913.39 210.96
  Q 912.84 210.95 912.40 210.61
  Q 911.15 209.64 909.97 210.68
  Q 909.62 211.00 909.14 211.00
  Q 890.69 211.07 884.25 210.56
  Q 874.32 209.77 864.38 209.95
  Q 856.24 210.10 849.12 209.76
  Q 839.07 209.28 829.00 209.56
  Q 824.41 209.69 815.25 209.17
  Q 809.72 208.85 795.00 209.21
  C 789.57 209.35 784.34 209.06 779.01 208.81
  Q 773.86 208.57 767.00 208.79
  Q 758.19 209.08 749.38 208.68
  C 745.15 208.49 740.34 208.78 735.80 208.49
  Q 729.40 208.08 725.67 208.17
  Q 716.20 208.39 706.74 208.03
  Q 700.53 207.80 693.25 207.89
  Q 686.50 207.98 679.75 207.66
  C 674.32 207.40 669.07 207.58 663.74 207.54
  Q 657.74 207.50 651.75 207.64
  Q 636.12 208.00 620.49 207.14
  C 618.27 207.02 615.86 207.33 613.50 207.24
  Q 595.90 206.57 578.29 206.60
  Q 567.48 206.62 558.30 206.41
  C 542.28 206.05 526.35 206.13 510.25 205.86
  C 490.03 205.51 469.19 205.56 446.64 204.94
  C 436.08 204.65 419.32 204.46 405.64 203.59
  C 401.28 203.31 396.86 204.07 392.40 203.99
  Q 357.19 203.36 321.99 202.43
  Q 312.29 202.17 302.00 202.19
  Q 256.87 202.29 211.75 201.24
  Q 197.78 200.91 176.92 202.13
  C 175.90 202.19 174.68 201.86 173.25 201.92
  C 155.76 202.74 138.32 203.43 120.80 205.66
  Q 107.19 207.39 93.56 209.04
  Q 79.61 210.73 68.05 216.08
  Q 52.12 223.44 47.53 240.99
  C 44.21 253.70 43.73 269.21 42.34 281.33
  Q 36.53 331.93 41.54 382.73
  Q 43.07 398.23 46.17 410.36
  Q 49.00 421.42 54.01 432.58
  C 61.37 448.94 70.21 458.99 88.51 460.76
  C 107.18 462.56 125.76 462.61 144.50 462.66
  Q 158.84 462.70 173.14 461.57
  C 174.55 461.46 176.09 462.09 177.50 461.95
  Q 186.55 461.08 195.62 461.08
  C 201.21 461.08 206.82 460.55 212.45 460.49
  Q 215.48 460.46 225.05 460.19
  C 230.97 460.03 236.86 460.71 242.62 460.22
  Q 252.67 459.38 262.75 459.36
  Q 273.94 459.34 281.24 458.96
  Q 293.61 458.30 302.63 458.41
  Q 315.47 458.58 325.95 458.11
  C 340.14 457.47 352.14 457.54 365.23 456.89
  C 369.42 456.68 373.91 457.29 378.35 457.18
  Q 384.53 457.03 388.15 457.22
  Q 397.25 457.69 406.36 457.09
  C 412.30 456.70 418.76 457.10 425.00 456.50
  C 425.65 456.44 426.87 456.97 427.70 456.91
  Q 471.64 453.91 515.67 454.97
  Q 521.00 455.10 529.31 454.57
  Q 541.18 453.81 553.02 454.97
  C 557.99 455.45 562.79 454.00 567.92 454.25
  C 571.87 454.44 575.44 453.95 579.26 454.00
  Q 585.06 454.08 587.75 453.89
  Q 601.53 452.96 608.50 453.29
  Q 617.14 453.70 622.42 453.54
  Q 628.53 453.36 628.58 453.36
  Q 657.29 453.16 685.99 452.91
  Q 692.59 452.85 706.00 452.40
  Q 719.72 451.94 733.45 452.10
  C 737.34 452.15 741.57 451.76 745.66 451.75
  Q 752.86 451.73 754.82 451.66
  Q 780.65 450.74 806.50 450.63
  Q 815.79 450.60 826.48 450.17
  Q 844.36 449.45 862.25 449.46
  Q 872.40 449.46 882.24 449.13
  Q 898.69 448.58 915.16 448.59
  Q 924.54 448.60 935.14 447.97
  Q 948.24 447.19 957.25 447.33
  Q 965.84 447.48 972.08 446.98
  C 974.29 446.81 976.96 447.14 979.75 446.98
  Q 986.69 446.57 999.07 446.45
  Q 1009.27 446.35 1018.40 446.09
  C 1032.04 445.71 1044.58 445.63 1059.32 445.33
  Q 1067.91 445.16 1076.50 445.23
  C 1084.64 445.29 1093.18 444.89 1101.52 444.92
  Q 1105.59 444.93 1111.97 444.44
  Q 1117.19 444.03 1122.44 444.14
  C 1132.71 444.34 1141.19 444.03 1153.29 443.87
  C 1159.90 443.78 1166.58 444.65 1172.95 444.28
  Q 1177.40 444.03 1181.87 443.77
  C 1184.30 443.63 1186.81 444.37 1189.45 444.10
  Q 1192.91 443.75 1194.56 443.88
  Q 1203.41 444.57 1212.25 443.47
  C 1213.39 443.33 1215.05 443.98 1216.43 443.85
  C 1223.92 443.19 1232.06 443.69 1238.86 443.59
  C 1244.62 443.51 1250.06 443.89 1256.05 443.60
  Q 1262.94 443.27 1269.87 443.95
  Q 1270.32 443.99 1270.73 443.81
  Q 1273.24 442.67 1275.69 443.92
  Q 1276.18 444.17 1276.72 444.09
  Q 1282.51 443.19 1288.23 444.26
  Q 1288.73 444.35 1289.18 444.13
  Q 1291.99 442.75 1294.75 443.03
  Q 1300.65 443.64 1306.03 443.41
  Q 1313.22 443.11 1316.48 443.24
  C 1328.15 443.70 1339.89 443.12 1351.58 443.23
  C 1354.18 443.26 1357.37 442.80 1360.26 442.93
  Q 1364.17 443.11 1366.73 442.91
  C 1371.54 442.54 1376.39 442.89 1381.08 442.63
  C 1387.43 442.27 1394.02 442.89 1399.97 442.59
  Q 1418.98 441.62 1438.00 442.47
  Q 1442.46 442.67 1455.65 442.05
  C 1464.68 441.63 1473.18 442.21 1482.01 442.71
  C 1484.30 442.83 1486.90 442.20 1489.99 442.58
  Q 1492.97 442.95 1498.01 441.80
  C 1501.44 441.02 1504.90 442.40 1508.52 442.06
  Q 1517.03 441.26 1525.52 442.14
  Q 1528.30 442.43 1531.45 441.99
  Q 1536.91 441.22 1543.52 441.57
  Q 1550.55 441.96 1561.49 441.15
  C 1562.88 441.05 1564.61 441.44 1566.50 441.31
  Q 1588.82 439.74 1618.50 439.89
  C 1622.51 439.91 1626.54 438.76 1630.51 438.82
  Q 1647.43 439.07 1664.36 438.49
  Q 1664.84 438.48 1665.22 438.77
  Q 1665.45 438.96 1665.74 439.01
  A 0.43 0.43 0.0 0 0 1666.18 438.36
  L 1664.98 436.48
  Q 1664.65 435.96 1665.17 435.63
  C 1666.60 434.73 1667.80 435.23 1668.93 436.47
  Q 1670.72 438.42 1673.75 438.29
  Q 1702.22 437.05 1740.26 436.35
  C 1744.82 436.27 1751.54 436.40 1757.17 436.16
  Q 1764.40 435.85 1769.83 436.18
  C 1789.02 437.35 1804.24 436.93 1821.36 438.63
  Q 1821.85 438.68 1821.77 438.19
  L 1821.62 437.32
  Z"
/>
<path fill="none" stroke-width="1.00" stroke="#000000" vector-effect="non-scaling-stroke" d="
  M 2005.98 35.45
  L 2001.83 35.81
  Q 2001.27 35.86 2001.47 35.34
  Q 2001.55 35.14 2001.75 35.13
  C 2004.40 35.07 2006.41 34.88 2009.39 35.16
  Q 2012.77 35.47 2016.49 34.26
  Q 2017.60 33.89 2018.85 34.55
  Q 2019.50 34.90 2018.76 34.86
  C 2017.35 34.78 2016.57 34.61 2015.18 35.18
  Q 2011.08 36.84 2006.80 35.54
  Q 2006.40 35.41 2005.98 35.45
  Z"
/>
<ellipse fill="none" stroke-width="1.00" stroke="#000000" vector-effect="non-scaling-stroke" cx="0.00" cy="0.00" transform="translate(1991.46,36.33) rotate(-2.6)" rx="6.71" ry="0.33"/>
<path fill="none" stroke-width="1.00" stroke="#000000" vector-effect="non-scaling-stroke" d="
  M 1953.86 38.54
  L 1984.25 36.70
  A 0.38 0.13 -3.2 0 1 1984.63 36.81
  Q 1984.63 36.84 1984.63 36.88
  Q 1984.63 37.02 1984.51 37.02
  Q 1973.68 37.72 1968.75 38.40
  Q 1961.50 39.41 1953.86 38.69
  A 0.08 0.07 45.4 0 1 1953.86 38.54
  Z"
/>
<path fill="none" stroke-width="1.00" stroke="#000000" stroke-opacity="0.400" vector-effect="non-scaling-stroke" d="
  M 1836.02 45.93
  L 1835.96 45.03
  Q 1875.99 42.31 1916.09 40.45
  C 1919.07 40.31 1924.22 39.57 1928.29 39.54
  C 1934.80 39.48 1941.55 38.25 1946.99 38.14
  Q 1947.84 38.12 1947.91 38.82
  Q 1947.96 39.22 1947.55 39.27
  Q 1938.29 40.25 1929.01 40.14
  C 1927.36 40.12 1925.33 41.23 1923.63 41.33
  Q 1882.70 43.90 1841.75 45.98
  Q 1837.93 46.17 1836.02 45.93
  Z"
/>
<path fill="none" stroke-width="1.00" stroke="#000000" vector-effect="non-scaling-stroke" d="
  M 1949.80 38.47
  C 1950.45 38.88 1951.46 38.88 1952.21 38.85
  Q 1952.60 38.83 1952.25 39.01
  Q 1950.84 39.70 1949.33 39.45
  A 0.56 0.55 24.5 0 1 1948.99 38.55
  Q 1949.31 38.16 1949.80 38.47
  Z"
/>
<path fill="none" stroke-width="1.00" stroke="#000000" stroke-opacity="0.400" vector-effect="non-scaling-stroke" d="
  M 3068.99 38.16
  A 0.01 0.01 0.0 0 1 3069.00 38.15
  L 3069.16 38.15
  A 2.61 0.63 88.7 0 1 3069.85 40.74
  L 3069.91 43.12
  A 2.61 0.63 88.7 0 1 3069.34 45.74
  L 3069.18 45.75
  A 0.01 0.01 0.0 0 1 3069.17 45.74
  L 3068.99 38.16
  Z"
/>
<path fill="none" stroke-width="1.00" stroke="#000000" vector-effect="non-scaling-stroke" d="
  M 1835.96 45.03
  L 1836.02 45.93
  L 1727.95 52.13
  L 1727.67 50.91
  C 1731.73 51.13 1739.63 51.59 1743.61 49.42
  Q 1744.00 49.21 1744.31 49.51
  Q 1744.90 50.06 1745.89 50.07
  C 1751.49 50.18 1757.90 49.42 1761.91 49.20
  Q 1784.49 47.96 1807.08 46.89
  C 1807.87 46.85 1809.05 46.38 1809.75 46.37
  Q 1822.88 46.19 1835.96 45.03
  Z"
/>
<path fill="none" stroke-width="1.00" stroke="#000000" vector-effect="non-scaling-stroke" d="
  M 3069.38 46.38
  C 3069.34 47.37 3069.90 48.18 3069.65 49.49
  A 0.13 0.12 -42.0 0 1 3069.40 49.48
  Q 3069.30 48.06 3069.39 46.39
  Q 3069.39 46.37 3069.38 46.37
  Q 3069.38 46.37 3069.38 46.37
  Q 3069.38 46.37 3069.38 46.38
  Z"
/>
<path fill="none" stroke-width="1.00" stroke="#000000" vector-effect="non-scaling-stroke" d="
  M 3069.48 53.00
  Q 3069.44 53.17 3069.53 53.28
  Q 3069.59 53.36 3069.49 53.38
  Q 3069.40 53.41 3069.40 53.25
  Q 3069.38 51.87 3069.37 50.36
  A 0.12 0.12 0.0 0 1 3069.60 50.34
  Q 3069.83 51.66 3069.48 53.00
  Z"
/>
<path fill="none" stroke-width="1.00" stroke="#000000" stroke-opacity="0.400" vector-effect="non-scaling-stroke" d="
  M 1727.67 50.91
  L 1727.95 52.13
  Q 1719.50 53.05 1706.24 53.36
  Q 1704.24 53.41 1702.97 53.15
  Q 1702.34 53.03 1702.94 52.80
  Q 1704.41 52.25 1706.38 52.17
  Q 1713.74 51.89 1727.67 50.91
  Z"
/>
<path fill="none" stroke-width="1.00" stroke="#000000" stroke-opacity="0.400" vector-effect="non-scaling-stroke" d="
  M 1684.91 53.67
  Q 1685.42 53.03 1686.50 53.07
  Q 1692.35 53.27 1698.20 52.87
  Q 1698.57 52.84 1698.75 52.98
  Q 1698.89 53.08 1698.95 53.22
  Q 1699.10 53.55 1698.74 53.59
  Q 1684.72 55.00 1670.65 55.29
  C 1669.02 55.32 1666.36 56.32 1664.13 55.46
  A 0.38 0.37 -38.0 0 1 1664.22 54.74
  Q 1674.17 53.43 1684.22 53.98
  Q 1684.64 54.00 1684.91 53.67
  Z"
/>
<ellipse fill="none" stroke-width="1.00" stroke="#000000" vector-effect="non-scaling-stroke" cx="0.00" cy="0.00" transform="translate(1659.00,55.54) rotate(-2.0)" rx="4.50" ry="0.28"/>
<path fill="none" stroke-width="1.00" stroke="#000000" stroke-opacity="0.400" vector-effect="non-scaling-stroke" d="
  M 1558.31 61.37
  L 1557.75 61.37
  A 0.59 0.39 -35.4 0 1 1558.11 60.43
  Q 1589.93 58.54 1620.34 57.00
  Q 1620.44 57.00 1633.64 56.17
  Q 1642.92 55.60 1652.23 55.65
  Q 1652.31 55.65 1652.76 55.57
  Q 1653.09 55.52 1653.30 55.71
  Q 1653.66 56.04 1653.17 56.09
  C 1650.54 56.34 1647.81 56.81 1645.30 56.96
  Q 1602.78 59.45 1560.24 61.59
  Q 1559.72 61.61 1559.24 61.49
  Q 1558.78 61.37 1558.31 61.37
  Z"
/>
<ellipse fill="none" stroke-width="1.00" stroke="#000000" stroke-opacity="0.400" vector-effect="non-scaling-stroke" cx="0.00" cy="0.00" transform="translate(3070.35,58.25) rotate(86.5)" rx="1.97" ry="0.42"/>
<path fill="none" stroke-width="1.00" stroke="#000000" vector-effect="non-scaling-stroke" d="
  M 1547.24 61.46
  L 1555.21 60.98
  A 0.32 0.31 -50.8 0 1 1555.27 61.61
  Q 1551.25 62.22 1547.23 61.67
  A 0.11 0.11 0.0 0 1 1547.24 61.46
  Z"
/>
<path fill="none" stroke-width="1.00" stroke="#000000" stroke-opacity="0.400" vector-effect="non-scaling-stroke" d="
  M 1513.27 63.12
  A 0.10 0.10 0.0 0 1 1513.36 63.02
  L 1543.28 61.50
  A 1.32 0.58 -2.9 0 1 1544.63 62.02
  L 1544.63 62.02
  A 1.32 0.58 -2.9 0 1 1543.34 62.66
  L 1513.42 64.18
  A 0.10 0.10 0.0 0 1 1513.31 64.08
  L 1513.27 63.12
  Z"
/>
<path fill="none" stroke-width="1.00" stroke="#000000" stroke-opacity="0.400" vector-effect="non-scaling-stroke" d="
  M 1414.41 69.58
  Q 1413.96 69.74 1413.68 69.43
  A 0.31 0.31 0.0 0 1 1413.83 68.92
  Q 1415.78 68.42 1418.01 68.30
  Q 1455.38 66.25 1492.76 64.23
  Q 1501.50 63.76 1510.40 63.58
  A 0.23 0.23 0.0 0 1 1510.44 64.04
  Q 1507.55 64.57 1504.51 64.80
  Q 1493.69 65.63 1482.85 66.06
  Q 1478.76 66.22 1470.19 66.91
  C 1464.57 67.36 1458.41 67.36 1453.27 67.72
  Q 1434.78 69.03 1416.25 69.82
  Q 1415.93 69.84 1415.17 69.58
  Q 1414.79 69.44 1414.41 69.58
  Z"
/>
<ellipse fill="none" stroke-width="1.00" stroke="#000000" vector-effect="non-scaling-stroke" cx="0.00" cy="0.00" transform="translate(1407.24,69.57) rotate(-2.4)" rx="5.17" ry="0.38"/>
<path fill="none" stroke-width="1.00" stroke="#000000" stroke-opacity="0.400" vector-effect="non-scaling-stroke" d="
  M 977.21 92.77
  Q 980.69 93.16 983.76 92.96
  Q 1028.74 89.95 1073.76 87.72
  Q 1084.37 87.20 1093.73 86.63
  Q 1156.85 82.82 1220.00 79.47
  Q 1240.62 78.38 1261.23 77.18
  C 1263.23 77.06 1268.19 77.28 1271.57 76.78
  Q 1274.53 76.35 1275.83 76.27
  Q 1324.06 73.43 1372.32 71.11
  Q 1372.39 71.10 1385.67 70.12
  Q 1393.44 69.55 1401.25 69.93
  Q 1401.62 69.94 1401.31 70.16
  Q 1400.51 70.70 1399.75 70.75
  Q 1390.03 71.39 1372.02 71.96
  Q 1369.93 72.02 1367.01 72.38
  Q 1364.51 72.69 1361.99 72.84
  Q 1321.70 75.20 1281.40 77.47
  Q 1281.38 77.48 1269.09 77.81
  C 1263.60 77.96 1257.67 78.82 1252.71 79.04
  Q 1238.03 79.70 1216.12 81.11
  Q 1182.46 83.28 1105.69 87.19
  Q 1096.10 87.68 1085.73 88.33
  Q 1040.54 91.14 995.31 93.44
  C 990.38 93.69 981.50 95.21 977.07 93.28
  A 0.27 0.27 0.0 0 1 977.21 92.77
  Z"
/>
<path fill="none" stroke-width="1.00" stroke="#000000" vector-effect="non-scaling-stroke" d="
  M 975.86 93.25
  Q 973.01 94.49 971.25 94.56
  Q 949.74 95.42 928.25 96.91
  Q 927.49 96.96 926.66 96.12
  Q 926.19 95.63 926.87 95.63
  C 928.24 95.61 929.42 96.16 930.76 96.09
  Q 941.01 95.51 951.26 94.96
  C 956.57 94.67 964.75 93.76 971.69 94.07
  A 1.39 1.34 -60.1 0 0 972.52 93.83
  Q 974.01 92.80 975.80 92.89
  Q 976.59 92.93 975.86 93.25
  Z"
/>
<path fill="none" stroke-width="1.00" stroke="#000000" vector-effect="non-scaling-stroke" d="
  M 905.08 97.67
  L 924.79 96.18
  Q 925.21 96.14 924.96 96.49
  Q 924.57 97.01 923.75 97.08
  Q 915.63 97.76 905.25 97.92
  Q 905.07 97.92 905.01 97.80
  Q 904.95 97.68 905.08 97.67
  Z"
/>
<path fill="none" stroke-width="1.00" stroke="#000000" vector-effect="non-scaling-stroke" d="
  M 904.00 97.77
  Q 904.37 97.50 904.72 97.71
  A 0.15 0.14 56.0 0 1 904.67 97.98
  Q 896.18 99.03 887.56 98.93
  C 884.57 98.89 881.48 99.64 878.37 99.73
  Q 877.62 99.75 875.21 99.11
  C 873.07 98.53 871.15 99.83 869.28 100.01
  Q 858.37 101.04 847.66 101.02
  A 0.08 0.07 41.8 0 1 847.65 100.87
  Q 855.88 100.01 864.48 99.86
  C 867.30 99.81 869.97 99.16 872.82 98.76
  Q 874.26 98.56 876.16 98.77
  C 881.65 99.39 888.04 98.24 892.28 98.13
  Q 898.14 97.97 904.00 97.77
  Z"
/>
<path fill="none" stroke-width="1.00" stroke="#000000" vector-effect="non-scaling-stroke" d="
  M 841.13 101.63
  A 0.19 0.19 0.0 0 1 840.95 101.83
  L 840.87 101.83
  A 31.15 0.48 -3.4 0 1 809.75 103.20
  L 809.75 103.14
  A 31.15 0.48 -3.4 0 1 840.81 100.82
  L 840.89 100.81
  A 0.19 0.19 0.0 0 1 841.09 100.99
  L 841.13 101.63
  Z"
/>
<rect fill="none" stroke-width="1.00" stroke="#000000" vector-effect="non-scaling-stroke" x="-5.01" y="-0.27" transform="translate(804.07,103.51) rotate(-2.3)" width="10.02" height="0.54" rx="0.26"/>
<ellipse fill="none" stroke-width="1.00" stroke="#000000" vector-effect="non-scaling-stroke" cx="0.00" cy="0.00" transform="translate(796.13,103.98) rotate(-4.7)" rx="2.66" ry="0.24"/>
<ellipse fill="none" stroke-width="1.00" stroke="#000000" vector-effect="non-scaling-stroke" cx="0.00" cy="0.00" transform="translate(775.82,104.50) rotate(-0.9)" rx="3.54" ry="0.26"/>
<path fill="none" stroke-width="1.00" stroke="#000000" vector-effect="non-scaling-stroke" d="
  M 757.43 105.72
  Q 762.67 104.67 768.04 105.10
  Q 770.42 105.30 768.03 105.43
  Q 760.57 105.83 752.24 106.68
  Q 751.51 106.75 749.56 106.30
  C 747.06 105.73 743.51 106.83 740.93 107.16
  Q 740.04 107.27 737.09 106.94
  C 734.96 106.71 733.23 107.70 731.31 107.76
  C 722.40 108.06 713.73 109.45 705.32 108.73
  Q 704.99 108.70 705.19 108.44
  Q 705.27 108.33 705.40 108.26
  Q 705.49 108.20 705.62 108.20
  Q 720.98 108.20 736.23 106.40
  C 737.63 106.23 739.19 107.08 740.25 106.83
  Q 744.01 105.95 747.85 105.67
  C 749.98 105.52 752.16 106.62 754.68 105.31
  Q 755.16 105.06 755.67 105.26
  L 756.61 105.64
  Q 757.01 105.80 757.43 105.72
  Z"
/>
<path fill="none" stroke-width="1.00" stroke="#000000" vector-effect="non-scaling-stroke" d="
  M 671.00 110.65
  Q 670.77 110.75 670.49 110.72
  A 0.06 0.06 0.0 0 1 670.49 110.60
  Q 675.70 110.40 680.76 109.27
  Q 681.23 109.16 681.65 109.39
  Q 684.07 110.68 686.47 109.31
  A 1.57 1.53 33.2 0 1 687.49 109.11
  Q 691.05 109.58 694.97 108.71
  Q 695.49 108.60 695.73 108.91
  Q 696.04 109.31 695.54 109.37
  Q 689.52 110.01 683.49 110.54
  Q 682.44 110.64 680.40 109.97
  Q 679.91 109.80 679.42 109.98
  Q 675.31 111.47 671.00 110.65
  Z"
/>
<rect fill="none" stroke-width="1.00" stroke="#000000" vector-effect="non-scaling-stroke" x="-0.26" y="-6.76" transform="translate(3073.44,115.67) rotate(-2.1)" width="0.52" height="13.52" rx="0.26"/>
<ellipse fill="none" stroke-width="1.00" stroke="#000000" vector-effect="non-scaling-stroke" cx="0.00" cy="0.00" transform="translate(657.91,111.58) rotate(-4.3)" rx="1.92" ry="0.29"/>
<path fill="none" stroke-width="1.00" stroke="#000000" vector-effect="non-scaling-stroke" d="
  M 636.96 112.24
  Q 638.09 111.98 639.22 112.22
  Q 640.11 112.41 639.23 112.65
  Q 638.07 112.98 636.95 112.66
  A 0.22 0.22 0.0 0 1 636.96 112.24
  Z"
/>
<rect fill="none" stroke-width="1.00" stroke="#000000" vector-effect="non-scaling-stroke" x="-5.43" y="-0.34" transform="translate(625.52,113.52) rotate(-2.1)" width="10.86" height="0.68" rx="0.32"/>
<path fill="none" stroke-width="1.00" stroke="#000000" vector-effect="non-scaling-stroke" d="
  M 615.13 114.50
  Q 606.47 115.11 598.07 115.03
  A 0.18 0.18 0.0 0 1 598.06 114.67
  L 618.70 113.69
  A 0.15 0.15 0.0 0 1 618.73 113.99
  Q 616.96 114.37 615.13 114.50
  Z"
/>
<path fill="none" stroke-width="1.00" stroke="#000000" vector-effect="non-scaling-stroke" d="
  M 568.76 116.29
  L 591.47 114.94
  A 0.19 0.18 -48.5 0 1 591.49 115.31
  C 583.99 115.89 576.15 117.41 568.74 116.86
  Q 564.51 116.54 568.76 116.29
  Z"
/>
<rect fill="none" stroke-width="1.00" stroke="#000000" vector-effect="non-scaling-stroke" x="-4.84" y="-0.27" transform="translate(554.16,117.54) rotate(-2.1)" width="9.68" height="0.54" rx="0.26"/>
<path fill="none" stroke-width="1.00" stroke="#000000" vector-effect="non-scaling-stroke" d="
  M 545.99 117.95
  Q 546.18 117.80 546.37 117.84
  Q 547.40 118.06 546.25 118.16
  L 543.58 118.40
  A 0.17 0.17 0.0 0 1 543.52 118.07
  Q 544.75 117.71 545.99 117.95
  Z"
/>
<ellipse fill="none" stroke-width="1.00" stroke="#000000" vector-effect="non-scaling-stroke" cx="0.00" cy="0.00" transform="translate(530.05,118.83) rotate(-3.9)" rx="5.23" ry="0.29"/>
<rect fill="none" stroke-width="1.00" stroke="#000000" vector-effect="non-scaling-stroke" x="-5.16" y="-0.27" transform="translate(518.59,119.54) rotate(-2.0)" width="10.32" height="0.54" rx="0.26"/>
<ellipse fill="none" stroke-width="1.00" stroke="#000000" vector-effect="non-scaling-stroke" cx="0.00" cy="0.00" transform="translate(508.59,120.11) rotate(-2.7)" rx="1.91" ry="0.25"/>
<ellipse fill="none" stroke-width="1.00" stroke="#000000" vector-effect="non-scaling-stroke" cx="0.00" cy="0.00" transform="translate(484.89,120.58) rotate(-3.9)" rx="2.93" ry="0.24"/>
<path fill="none" stroke-width="1.00" stroke="#000000" vector-effect="non-scaling-stroke" d="
  M 475.87 121.01
  Q 476.21 120.98 476.44 121.21
  A 0.25 0.25 0.0 0 1 476.27 121.64
  L 471.35 121.88
  Q 471.22 121.89 471.23 121.76
  Q 471.25 121.62 471.26 121.48
  Q 471.28 121.35 471.41 121.35
  Q 473.65 121.24 475.87 121.01
  Z"
/>
<path fill="none" stroke-width="1.00" stroke="#000000" vector-effect="non-scaling-stroke" d="
  M 456.02 122.43
  Q 457.10 122.08 458.24 122.29
  Q 458.83 122.40 458.26 122.58
  Q 457.16 122.92 456.03 122.66
  A 0.12 0.12 0.0 0 1 456.02 122.43
  Z"
/>
<path fill="none" stroke-width="1.00" stroke="#000000" vector-effect="non-scaling-stroke" d="
  M 437.77 123.50
  Q 436.53 123.81 435.25 123.72
  A 0.24 0.24 0.0 0 1 435.26 123.24
  L 437.73 123.18
  A 0.16 0.16 0.0 0 1 437.77 123.50
  Z"
/>
<path fill="none" stroke-width="1.00" stroke="#000000" vector-effect="non-scaling-stroke" d="
  M 425.39 124.36
  C 426.85 124.22 429.32 123.88 430.73 124.17
  A 0.35 0.35 0.0 0 1 430.66 124.86
  L 425.42 124.83
  A 0.24 0.23 41.9 0 1 425.39 124.36
  Z"
/>
<path fill="none" stroke-width="1.00" stroke="#000000" vector-effect="non-scaling-stroke" d="
  M 388.30 126.02
  C 400.42 126.43 411.10 124.73 422.55 124.78
  A 0.06 0.06 0.0 0 1 422.56 124.90
  Q 416.50 125.97 410.34 125.93
  C 403.42 125.89 396.88 127.20 389.92 126.79
  Q 388.07 126.68 385.12 127.19
  C 381.73 127.77 379.11 126.70 375.88 127.28
  Q 369.09 128.50 362.17 127.90
  Q 361.71 127.86 362.06 127.56
  Q 362.38 127.31 362.76 127.34
  Q 371.01 128.12 378.26 126.24
  Q 378.77 126.11 379.26 126.28
  C 382.87 127.54 385.07 125.92 388.30 126.02
  Z"
/>
<path fill="none" stroke-width="1.00" stroke="#000000" vector-effect="non-scaling-stroke" d="
  M 357.57 127.77
  Q 358.65 127.71 357.64 128.08
  Q 355.31 128.93 351.49 128.63
  A 0.25 0.25 0.0 0 1 351.50 128.13
  L 357.57 127.77
  Z"
/>
<path fill="none" stroke-width="1.00" stroke="#000000" vector-effect="non-scaling-stroke" d="
  M 295.40 131.31
  A 0.15 0.15 0.0 0 1 295.55 131.16
  L 295.67 131.15
  A 9.59 0.29 -0.3 0 1 305.26 131.39
  L 305.26 131.61
  A 9.59 0.29 -0.3 0 1 295.67 131.95
  L 295.55 131.96
  A 0.15 0.15 0.0 0 1 295.40 131.81
  L 295.40 131.31
  Z"
/>
<path fill="none" stroke-width="1.00" stroke="#000000" vector-effect="non-scaling-stroke" d="
  M 291.96 131.73
  Q 292.66 131.25 293.48 131.20
  Q 294.30 131.15 293.60 131.58
  C 290.10 133.74 285.32 132.44 281.39 132.62
  Q 281.18 132.63 281.08 132.55
  Q 280.95 132.44 280.98 132.25
  Q 281.00 132.16 281.10 132.16
  L 291.05 132.02
  Q 291.54 132.01 291.96 131.73
  Z"
/>
<path fill="none" stroke-width="1.00" stroke="#000000" vector-effect="non-scaling-stroke" d="
  M 268.34 132.57
  Q 270.68 132.11 272.62 132.42
  Q 272.93 132.47 273.16 132.64
  Q 273.45 132.85 273.09 132.84
  L 268.34 132.64
  A 0.04 0.03 -47.2 0 1 268.34 132.57
  Z"
/>
<ellipse fill="none" stroke-width="1.00" stroke="#000000" vector-effect="non-scaling-stroke" cx="0.00" cy="0.00" transform="translate(263.45,133.65) rotate(-7.2)" rx="3.60" ry="0.26"/>
<path fill="none" stroke-width="1.00" stroke="#000000" vector-effect="non-scaling-stroke" d="
  M 172.99 138.65
  Q 200.48 136.84 228.00 135.57
  C 231.83 135.39 235.83 134.16 239.70 134.16
  Q 249.35 134.17 259.00 133.97
  Q 259.80 133.95 259.10 134.34
  Q 258.37 134.75 257.50 134.76
  Q 246.38 134.86 235.26 134.75
  A 1.37 1.35 -63.8 0 0 234.37 135.06
  Q 233.38 135.87 232.51 135.92
  Q 211.24 136.96 190.00 138.36
  Q 180.82 138.96 171.93 138.86
  A 0.03 0.03 0.0 0 1 171.92 138.81
  Q 172.31 138.70 172.99 138.65
  Z"
/>
<path fill="none" stroke-width="1.00" stroke="#000000" vector-effect="non-scaling-stroke" d="
  M 158.74 139.16
  C 157.77 139.39 156.63 139.74 155.66 139.44
  Q 154.86 139.19 155.69 139.06
  Q 157.22 138.82 158.74 139.15
  A 0.01 0.00 58.3 0 1 158.74 139.16
  Z"
/>
<rect fill="none" stroke-width="1.00" stroke="#000000" vector-effect="non-scaling-stroke" x="-9.80" y="-0.26" transform="translate(139.03,140.12) rotate(-3.7)" width="19.60" height="0.52" rx="0.26"/>
<path fill="none" stroke-width="1.00" stroke="#000000" vector-effect="non-scaling-stroke" d="
  M 52.26 146.29
  Q 40.70 147.09 29.32 146.89
  Q 29.21 146.88 29.32 146.86
  Q 31.28 146.35 33.50 146.23
  Q 69.98 144.33 106.45 142.25
  Q 108.55 142.13 113.95 141.13
  Q 118.28 140.33 122.76 140.68
  Q 122.98 140.55 123.06 140.74
  Q 123.16 140.98 122.89 140.97
  Q 117.53 140.80 112.39 142.16
  Q 109.35 142.96 106.79 142.97
  C 101.09 143.00 94.15 143.75 89.74 143.98
  Q 70.99 144.99 52.26 146.29
  Z"
/>
<rect fill="none" stroke-width="1.00" stroke="#000000" vector-effect="non-scaling-stroke" x="-5.18" y="-0.26" transform="translate(13.92,147.80) rotate(-4.7)" width="10.36" height="0.52" rx="0.25"/>
<path fill="none" stroke-width="1.00" stroke="#000000" vector-effect="non-scaling-stroke" d="
  M 5.50 148.64
  L 2.50 148.74
  A 0.18 0.18 0.0 0 1 2.46 148.38
  Q 4.32 148.06 5.56 148.22
  Q 8.16 148.54 5.50 148.64
  Z"
/>
<ellipse fill="none" stroke-width="1.00" stroke="#000000" stroke-opacity="0.400" vector-effect="non-scaling-stroke" cx="0.00" cy="0.00" transform="translate(3075.50,152.99) rotate(88.8)" rx="2.80" ry="0.43"/>
<path fill="none" stroke-width="1.00" stroke="#000000" stroke-opacity="0.400" vector-effect="non-scaling-stroke" d="
  M 3076.87 172.56
  L 3076.87 174.45
  A 0.30 0.29 -55.8 0 1 3076.30 174.56
  Q 3075.89 173.48 3076.41 172.45
  Q 3076.87 171.53 3076.87 172.56
  Z"
/>
<path fill="none" stroke-width="1.00" stroke="#000000" stroke-opacity="0.400" vector-effect="non-scaling-stroke" d="
  M 3077.03 176.01
  Q 3078.26 182.39 3077.62 188.87
  A 0.18 0.17 -43.1 0 1 3077.27 188.86
  Q 3077.23 186.63 3077.03 184.00
  C 3076.87 181.90 3075.74 178.52 3076.35 175.99
  Q 3076.72 174.44 3077.03 176.01
  Z"
/>
<rect fill="none" stroke-width="1.00" stroke="#000000" vector-effect="non-scaling-stroke" x="-0.23" y="-5.98" transform="translate(3079.58,224.63) rotate(-2.6)" width="0.46" height="11.96" rx="0.23"/>
<path fill="none" stroke-width="1.00" stroke="#000000" vector-effect="non-scaling-stroke" d="
  M 3081.14 250.72
  Q 3081.06 250.45 3081.17 250.21
  A 0.26 0.26 0.0 0 1 3081.67 250.33
  L 3081.44 257.94
  A 0.04 0.03 44.8 0 1 3081.37 257.94
  Q 3081.25 254.88 3081.26 251.31
  Q 3081.26 251.08 3081.14 250.72
  Z"
/>
<path fill="none" stroke-width="1.00" stroke="#000000" vector-effect="non-scaling-stroke" d="
  M 3083.38 295.38
  C 3083.40 296.48 3083.83 297.35 3083.56 298.58
  A 0.10 0.10 0.0 0 1 3083.37 298.56
  L 3083.37 295.37
  Q 3083.37 295.37 3083.38 295.37
  Q 3083.38 295.37 3083.38 295.37
  Q 3083.38 295.37 3083.38 295.38
  Z"
/>
<rect fill="none" stroke-width="1.00" stroke="#000000" stroke-opacity="0.400" vector-effect="non-scaling-stroke" x="-0.54" y="-18.69" transform="translate(3085.56,332.03) rotate(-3.3)" width="1.08" height="37.38" rx="0.53"/>
<path fill="none" stroke-width="1.00" stroke="#000000" vector-effect="non-scaling-stroke" d="
  M 3087.13 361.88
  C 3086.77 360.83 3086.77 359.66 3086.88 358.49
  A 0.17 0.16 48.1 0 1 3087.21 358.51
  L 3087.23 361.86
  A 0.05 0.05 0.0 0 1 3087.13 361.88
  Z"
/>
<path fill="none" stroke-width="1.00" stroke="#000000" vector-effect="non-scaling-stroke" d="
  M 3088.07 387.96
  C 3088.00 383.57 3087.42 378.49 3087.89 374.18
  Q 3087.99 373.23 3088.06 374.18
  Q 3088.49 380.90 3088.21 387.94
  Q 3088.20 388.00 3088.13 388.00
  Q 3088.11 388.00 3088.10 388.00
  Q 3088.07 388.00 3088.07 387.96
  Z"
/>
<rect fill="none" stroke-width="1.00" stroke="#000000" vector-effect="non-scaling-stroke" x="-0.16" y="-8.38" transform="translate(0.91,415.63) rotate(-0.7)" width="0.32" height="16.76" rx="0.16"/>
<path fill="none" stroke-width="1.00" stroke="#000000" stroke-opacity="0.400" vector-effect="non-scaling-stroke" d="
  M 3.74 460.89
  A 0.10 0.10 0.0 0 1 3.65 460.99
  L 3.62 460.99
  A 10.81 1.13 86.8 0 1 1.88 450.26
  L 1.82 449.09
  A 10.81 1.13 86.8 0 1 2.34 438.23
  L 2.37 438.23
  A 0.10 0.10 0.0 0 1 2.48 438.32
  L 3.74 460.89
  Z"
/>
<path fill="none" stroke-width="1.00" stroke="#000000" stroke-opacity="0.400" vector-effect="non-scaling-stroke" d="
  M 3.79 464.59
  Q 5.65 484.17 6.06 505.75
  Q 6.07 506.38 5.77 506.76
  Q 5.33 507.33 5.28 506.61
  Q 3.80 486.07 2.88 465.51
  Q 2.84 464.66 3.28 464.35
  Q 3.74 464.02 3.79 464.59
  Z"
/>
<path fill="none" stroke-width="1.00" stroke="#000000" vector-effect="non-scaling-stroke" d="
  M 13.58 640.64
  L 13.79 653.69
  A 0.26 0.26 0.0 0 1 13.27 653.73
  Q 13.21 653.30 13.23 652.75
  Q 13.46 645.91 13.19 639.22
  Q 13.17 638.71 13.52 639.08
  Q 13.85 639.43 13.67 640.02
  Q 13.57 640.32 13.58 640.64
  Z"
/>
<rect fill="none" stroke-width="1.00" stroke="#000000" stroke-opacity="0.400" vector-effect="non-scaling-stroke" x="-6.20" y="-0.44" transform="translate(3082.37,650.44) rotate(-0.8)" width="12.40" height="0.88" rx="0.42"/>
<rect fill="none" stroke-width="1.00" stroke="#000000" stroke-opacity="0.400" vector-effect="non-scaling-stroke" x="-13.44" y="-0.56" transform="translate(3039.74,652.83) rotate(-3.2)" width="26.88" height="1.12" rx="0.54"/>
<rect fill="none" stroke-width="1.00" stroke="#000000" stroke-opacity="0.400" vector-effect="non-scaling-stroke" x="-8.86" y="-0.49" transform="translate(3011.93,654.40) rotate(-2.2)" width="17.72" height="0.98" rx="0.28"/>
<rect fill="none" stroke-width="1.00" stroke="#000000" stroke-opacity="0.400" vector-effect="non-scaling-stroke" x="-10.15" y="-0.51" transform="translate(2983.65,655.97) rotate(-3.6)" width="20.30" height="1.02" rx="0.49"/>
<ellipse fill="none" stroke-width="1.00" stroke="#000000" stroke-opacity="0.400" vector-effect="non-scaling-stroke" cx="0.00" cy="0.00" transform="translate(2936.58,658.63) rotate(-3.3)" rx="12.51" ry="0.78"/>
<path fill="none" stroke-width="1.00" stroke="#000000" stroke-opacity="0.400" vector-effect="non-scaling-stroke" d="
  M 2906.11 660.57
  A 0.20 0.20 0.0 0 1 2905.92 660.78
  L 2897.30 661.34
  A 13.40 0.57 -3.7 0 1 2883.89 661.64
  L 2883.89 661.64
  A 13.40 0.57 -3.7 0 1 2897.23 660.20
  L 2905.85 659.65
  A 0.20 0.20 0.0 0 1 2906.06 659.83
  L 2906.11 660.57
  Z"
/>
<path fill="none" stroke-width="1.00" stroke="#000000" stroke-opacity="0.400" vector-effect="non-scaling-stroke" d="
  M 2906.30 660.62
  A 0.21 0.21 0.0 0 1 2906.24 660.20
  Q 2907.39 659.85 2908.62 659.89
  A 0.38 0.37 45.9 0 1 2908.61 660.64
  L 2906.30 660.62
  Z"
/>
<path fill="none" stroke-width="1.00" stroke="#000000" stroke-opacity="0.400" vector-effect="non-scaling-stroke" d="
  M 2869.58 661.86
  C 2871.57 661.87 2874.54 661.26 2876.78 661.62
  A 0.49 0.49 0.0 0 1 2876.73 662.60
  Q 2865.01 663.19 2854.25 663.94
  Q 2852.51 664.06 2852.01 663.80
  Q 2850.62 663.05 2852.12 662.87
  Q 2860.97 661.82 2869.58 661.86
  Z"
/>
<path fill="none" stroke-width="1.00" stroke="#000000" stroke-opacity="0.400" vector-effect="non-scaling-stroke" d="
  M 2849.80 663.66
  Q 2849.04 663.90 2848.27 663.89
  A 0.37 0.37 0.0 0 1 2848.23 663.15
  Q 2849.35 663.04 2850.43 663.21
  A 0.21 0.21 0.0 0 1 2850.40 663.62
  L 2850.05 663.62
  Q 2849.93 663.62 2849.80 663.66
  Z"
/>
<path fill="none" stroke-width="1.00" stroke="#000000" stroke-opacity="0.400" vector-effect="non-scaling-stroke" d="
  M 2824.26 664.33
  L 2845.52 663.18
  A 0.40 0.40 0.0 0 1 2845.58 663.97
  C 2842.88 664.25 2840.15 664.79 2837.42 664.88
  Q 2830.74 665.07 2824.04 665.04
  A 0.19 0.19 0.0 0 1 2823.87 664.77
  Q 2823.94 664.63 2824.01 664.50
  Q 2824.09 664.34 2824.26 664.33
  Z"
/>
<path fill="none" stroke-width="1.00" stroke="#000000" stroke-opacity="0.400" vector-effect="non-scaling-stroke" d="
  M 2790.08 666.41
  Q 2790.29 666.21 2790.50 666.20
  Q 2798.71 665.60 2806.94 665.68
  Q 2807.00 665.68 2807.00 665.74
  Q 2806.99 665.90 2807.00 666.00
  Q 2807.01 666.10 2806.91 666.12
  Q 2796.30 667.49 2785.72 667.19
  A 0.16 0.16 0.0 0 1 2785.71 666.87
  L 2789.75 666.55
  A 0.53 0.52 -67.8 0 0 2790.08 666.41
  Z"
/>
<path fill="none" stroke-width="1.00" stroke="#000000" vector-effect="non-scaling-stroke" d="
  M 2734.75 670.11
  Q 2732.26 670.26 2729.76 670.19
  A 0.09 0.09 0.0 0 1 2729.75 670.02
  Q 2732.23 669.65 2734.75 669.86
  Q 2736.49 670.01 2734.75 670.11
  Z"
/>
<path fill="none" stroke-width="1.00" stroke="#000000" vector-effect="non-scaling-stroke" d="
  M 2717.99 670.84
  C 2716.52 670.96 2715.03 671.26 2713.55 671.15
  A 0.13 0.13 0.0 0 1 2713.56 670.89
  L 2717.99 670.83
  Q 2718.16 670.83 2717.99 670.84
  Z"
/>
<rect fill="none" stroke-width="1.00" stroke="#000000" stroke-opacity="0.400" vector-effect="non-scaling-stroke" x="-7.48" y="-0.43" transform="translate(2690.41,672.39) rotate(-2.5)" width="14.96" height="0.86" rx="0.41"/>
<path fill="none" stroke-width="1.00" stroke="#000000" vector-effect="non-scaling-stroke" d="
  M 2680.64 673.04
  Q 2679.45 673.32 2678.23 673.06
  A 0.08 0.07 49.6 0 1 2678.24 672.91
  L 2680.62 672.85
  Q 2681.50 672.83 2680.64 673.04
  Z"
/>
<path fill="none" stroke-width="1.00" stroke="#000000" stroke-opacity="0.400" vector-effect="non-scaling-stroke" d="
  M 2667.59 674.09
  C 2658.89 675.36 2649.78 675.35 2640.99 675.76
  Q 2634.69 676.05 2632.03 675.71
  Q 2630.23 675.48 2632.04 675.32
  Q 2648.53 673.87 2666.75 673.28
  Q 2670.25 673.17 2673.55 673.05
  A 0.30 0.30 0.0 0 1 2673.61 673.65
  C 2671.61 673.99 2669.58 673.79 2667.59 674.09
  Z"
/>
<path fill="none" stroke-width="1.00" stroke="#000000" vector-effect="non-scaling-stroke" d="
  M 2623.07 676.24
  A 0.08 0.08 0.0 0 1 2623.06 676.09
  Q 2625.69 675.68 2628.86 675.92
  Q 2628.96 675.93 2628.86 675.94
  Q 2626.36 676.34 2623.07 676.24
  Z"
/>
<path fill="none" stroke-width="1.00" stroke="#000000" vector-effect="non-scaling-stroke" d="
  M 2608.06 677.15
  C 2606.58 677.26 2605.03 677.23 2603.58 677.16
  A 0.05 0.04 45.4 0 1 2603.58 677.07
  L 2608.00 676.97
  A 0.11 0.08 34.4 0 1 2608.06 677.15
  Z"
/>
</g>
<path fill="none" stroke-width="1.00" stroke="#000000" vector-effect="non-scaling-stroke" d="
  M 251.69 295.95
  C 263.75 296.17 265.06 306.22 268.05 315.43
  Q 268.23 315.97 267.91 316.44
  L 266.90 317.95
  A 0.62 0.54 -33.7 0 0 266.82 318.24
  L 266.83 324.33
  A 0.74 0.74 0.0 0 1 266.05 325.07
  L 261.10 324.88
  Q 260.73 324.87 260.57 325.20
  Q 260.50 325.33 260.47 325.48
  Q 260.32 326.11 260.97 326.14
  Q 266.94 326.45 271.48 330.27
  A 1.16 1.16 0.0 0 1 271.21 332.22
  Q 268.32 333.49 268.03 336.69
  A 0.80 0.77 -21.2 0 1 267.80 337.19
  L 266.50 338.47
  Q 266.16 338.81 266.28 339.28
  L 267.07 342.36
  Q 267.20 342.86 266.72 343.07
  Q 264.92 343.87 264.43 345.75
  Q 264.30 346.26 263.88 346.57
  L 262.60 347.52
  Q 262.14 347.86 262.09 348.42
  C 261.56 354.41 258.11 356.07 252.87 357.71
  Q 252.36 357.87 252.18 358.37
  C 250.33 363.64 242.71 362.80 238.48 362.79
  C 231.14 362.77 223.27 364.17 216.49 360.78
  Q 210.65 357.86 205.62 353.72
  C 202.36 351.03 200.10 346.77 196.64 343.62
  C 193.96 341.18 194.95 336.92 193.43 333.73
  Q 193.21 333.27 193.29 332.78
  Q 194.14 327.73 193.77 322.64
  Q 193.52 319.18 194.13 316.96
  Q 197.45 305.00 208.01 296.59
  Q 217.74 288.84 230.25 289.24
  C 237.37 289.47 243.72 289.90 250.33 292.79
  Q 251.36 293.24 251.59 293.86
  Q 251.84 294.56 251.36 295.33
  Q 250.97 295.94 251.69 295.95
  Z
  M 249.04 295.16
  L 250.13 294.97
  A 0.44 0.43 55.0 0 0 250.27 294.16
  C 244.16 290.68 236.93 290.38 229.49 290.05
  Q 219.89 289.63 211.02 295.86
  Q 199.37 304.05 195.40 316.33
  Q 194.57 318.92 194.69 322.80
  Q 194.82 327.05 194.53 331.28
  Q 194.44 332.68 194.89 334.41
  C 195.60 337.14 195.12 340.65 197.46 342.79
  C 200.93 345.97 203.26 350.23 206.53 352.98
  Q 212.82 358.27 218.49 360.57
  C 224.41 362.97 231.23 361.74 237.50 361.88
  C 242.02 361.98 249.44 362.97 251.39 357.34
  A 0.88 0.86 -83.7 0 1 252.09 356.77
  Q 260.23 355.63 261.25 347.48
  A 1.23 1.22 -10.9 0 1 261.87 346.57
  Q 263.59 345.64 264.02 343.74
  A 1.03 1.01 -10.6 0 1 264.47 343.10
  L 265.64 342.35
  Q 266.16 342.01 265.89 341.44
  Q 264.54 338.58 266.70 336.66
  A 1.48 1.47 -17.8 0 0 267.19 335.71
  Q 267.49 333.18 269.61 331.89
  Q 270.80 331.18 269.69 330.35
  Q 265.74 327.43 260.79 327.13
  A 1.54 1.54 0.0 0 1 260.59 324.08
  Q 262.43 323.73 264.77 324.30
  A 0.92 0.92 0.0 0 0 265.90 323.41
  L 265.91 317.73
  Q 265.91 317.20 266.23 316.77
  L 266.70 316.15
  Q 267.06 315.67 266.86 315.10
  C 265.46 310.99 264.21 305.49 261.98 302.36
  Q 257.62 296.21 249.14 296.92
  Q 248.59 296.97 248.55 296.42
  L 248.51 295.83
  A 0.63 0.63 0.0 0 1 249.04 295.16
  Z"
/>
</svg>
