<svg x="0" y="0" width="1px" height="1px" overflow="visible" viewBox="0 0 1 1" data-v-f09244fc=""><path transform="translate(-5, -5)" stroke-width="1.2144549543470238" stroke="#46BA00" d=" M149.88516480713452,3.75  L183.11483519286548,3.75  L184.61483519286548,0  L228.38516480713452,0  L229.88516480713452,3.75  L271,3.75  L271,51  L333.4970809112044,51  L333.5347458391732,115.49603398199649  L342.9618739666865,88.11766675350691  L345.6731698368981,82.99424010502821  L350.0973340118141,78.66691902845413  L355.6299608004909,75.89401855008076  L361.35656766190016,74.99999999994917  L500.15905371493335,75.00000001813441  L505.8088978422343,75.86968386534122  L511.2828056224304,78.56943295486744  L515.6912885380877,82.79029217315592  L518.4384922450763,87.79833557284628  L529,116.73794417495787  L529,97.60649146587689  L529.8217075111517,92.41843442272337  L532.3872716082534,87.38323137320472  L536.3832313732047,83.38727160825337  L541.4184344227234,80.82170751115164  L547.055765207503,79.92884202988004  L562.8163032357595,82.78166945253032  L576.9679057692175,91.02235704330366  L588.0698388658781,103.71028058234431  L595.1284254512982,119.54257336698791  L597.2222766242487,134.6512088123832  L600,137.42893218813452  L600,288.7704034273174  L594.2467171925903,289.6816339047977  L593.5671709547996,290.0278800070602  L593.0278800070602,290.5671709547997  L592.6816339047976,291.24671719259044  L592.56232562894,291.99999999999994  L592.6816339047976,292.75328280740956  L593.0278800070602,293.43282904520026  L593.5671709547998,293.97211999293984  L594.2467171925904,294.31836609520235  L600,295.2295965726826  L600,446.5710678118655  L597.2222766242487,449.3487911876168  L595.1284254512982,464.45742663301206  L588.0698388658781,480.2897194176557  L576.9679057692175,492.97764295669634  L562.8163032357595,501.2183305474697  L547.0557652075029,504.07115797011994  L541.4184344227234,503.17829248884834  L536.3832313732047,500.6127283917466  L532.3872716082534,496.61676862679525  L529.8217075111517,491.58156557727665  L529.0004606371099,486.3964168823736  L528.9780416769187,467.24545710838885  L518.4402276042348,496.1978630974355  L515.6914031781466,501.20959806583147  L511.2828056224304,505.43056704513253  L505.8088978521916,508.13031612974777  L500.1590537379387,509.00000000003706  L361.35656767886053,508.99999998658416  L355.62996080775895,508.1059814535619  L350.0973340118141,505.3330809715459  L345.67293968257604,501.0055347786312  L342.9616051415657,495.88047672723195  L333.5,468.4824100438978  L333.5,533  L271,533  L271,580.25  L229.88516480713452,580.25  L228.38516480713452,584  L184.61483519286548,584  L183.11483519286548,580.25  L149.88516480713452,580.25  L148.38516480713452,584  L104.6148351928655,584  L103.1148351928655,580.25  L62,580.25  L62,532  L0,532  L0,52  L62,52  L62,3.75  L103.1148351928655,3.75  L104.6148351928655,0  L148.38516480713452,0  Z " data-v-f09244fc="" style="fill: url(&quot;#scienceImagePattern_traditional&quot;);"></path><g data-v-f09244fc=""><path id="knifeFace_F" stroke-width="1.2144549543470238" fill="url(#scienceImagePattern_traditional)" d=" M324.5,135.5  L528,135.5  L528,438.5  L324.5,438.5  L324.5,135.5  Z " data-v-f09244fc=""></path><path id="knifeFace_FT" stroke-width="1.2144549543470238" fill="url(#scienceImagePattern_traditional)" d=" M324.5,135.5  A1,1 0 0,0 325.4455185755993,134.82556815445716  L342.5617310563871,85.11647768314265  A15,15 0 0,1 356.74450969037684,75  L494.77648021553944,75  A15,15 0 0,1 508.87186952732804,84.86969785011497  L527.0603073792141,134.84202014332567  A1,1 0 0,0 528,135.5  L324.5,135.5  Z " data-v-f09244fc=""></path><path id="knifeFace_FB" stroke-width="1.2144549543470238" fill="url(#scienceImagePattern_traditional)" d=" M324.5,438.5  L528,438.5  A1,1 0 0,0 527.0603073792141,439.15797985667433  L508.87186952732804,489.13030214988504  A15,15 0 0,1 494.77648021553944,499  L356.74450969037684,499  A15,15 0 0,1 342.5617310563871,488.88352231685735  L325.4455185755993,439.1744318455428  A1,1 0 0,0 324.5,438.5  Z " data-v-f09244fc=""></path><path id="knifeFace_FR" stroke-width="1.2144549543470238" fill="url(#scienceImagePattern_traditional)" d=" M528,135.5  A1,1 0 0,0 529,134.5  L529,132  L587.5,132  L590,134.5  L590,279.5  A7.5,7.5 0 0,0 590,294.5  L590,439.5  L587.5,442  L529,442  L529,439.5  A1,1 0 0,0 528,438.5  L528,135.5  Z " data-v-f09244fc=""></path><path id="knifeFace_FRT" stroke-width="1.2144549543470238" fill="url(#scienceImagePattern_traditional)" d=" M529,132  L529,93  A13,13 0 0,1 542,80  A45.5,52 0 0,1 587.5,132  L529,132  Z " data-v-f09244fc=""></path><path id="knifeFace_FRB" stroke-width="1.2144549543470238" fill="url(#scienceImagePattern_traditional)" d=" M529,442  L587.5,442  A45.5,52 0 0,1 542,494  A13,13 0 0,1 529,481  L529,442  Z " data-v-f09244fc=""></path><path id="knifeFace_FL" stroke-width="1.2144549543470238" fill="url(#scienceImagePattern_traditional)" d=" M262.5,130.5  A1.5,1.5 0 0,0 264,132  L323.5,132  L323.5,134.5  A1,1 0 0,0 324.5,135.5  L324.5,438.5  A1,1 0 0,0 323.5,439.5  L323.5,442  L264,442  A1.5,1.5 0 0,0 262.5,443.5  L262.5,130.5  Z " data-v-f09244fc=""></path><path id="knifeFace_HL" stroke-width="1.2144549543470238" fill="url(#scienceImagePattern_traditional)" d=" M60.5,442.5  A1.5,1.5 0 0,0 59,441  L0,441  L0,133  L59,133  A1.5,1.5 0 0,0 60.5,131.5  L60.5,442.5  Z " data-v-f09244fc=""></path><path id="knifeFace_HLT" stroke-width="1.2144549543470238" fill="url(#scienceImagePattern_traditional)" d=" M0,133  L0,52  L57.5,52  L57.5,130  L57.5,131.5  A1.5,1.5 0 0,0 59,133  L0,133  Z " data-v-f09244fc=""></path><path id="knifeFace_HLB" stroke-width="1.2144549543470238" fill="url(#scienceImagePattern_traditional)" d=" M0,441  L59,441  A1.5,1.5 0 0,0 57.5,442.5  L57.5,444  L57.5,522  L0,522  L0,441  Z " data-v-f09244fc=""></path><path id="knifeFace_FLT" stroke-width="1.2144549543470238" fill="url(#scienceImagePattern_traditional)" d=" M264,132  A1.5,1.5 0 0,0 265.5,130.5  L265.5,129  L265.5,51  L323.5,51  L323.5,132  L264,132  Z " data-v-f09244fc=""></path><path id="knifeFace_FLB" stroke-width="1.2144549543470238" fill="url(#scienceImagePattern_traditional)" d=" M264,442  L323.5,442  L323.5,523  L265.5,523  L265.5,445  L265.5,443.5  A1.5,1.5 0 0,0 264,442  Z " data-v-f09244fc=""></path><path id="knifeFace_H" stroke-width="1.2144549543470238" fill="url(#scienceImagePattern_traditional)" d=" M60.5,130.5  L101.5,130.5  L101.5,135.5  L141.5,135.5  L141.5,130.5  L181.5,130.5  L181.5,135.5  L221.5,135.5  L221.5,130.5  L262.5,130.5  L262.5,443.5  L221.5,443.5  L221.5,438.5  L181.5,438.5  L181.5,443.5  L141.5,443.5  L141.5,438.5  L101.5,438.5  L101.5,443.5  L60.5,443.5  L60.5,130.5  Z " data-v-f09244fc=""></path><path id="knifeFace_T" stroke-width="1.2144549543470238" fill="url(#scienceImagePattern_traditional)" d=" M60.5,130.5  L60.5,68.5  L262.5,68.5  L262.5,130.5  L60.5,130.5  Z " data-v-f09244fc=""></path><path id="knifeFace_B" stroke-width="1.2144549543470238" fill="url(#scienceImagePattern_traditional)" d=" M60.5,443.5  L262.5,443.5  L262.5,505.5  L60.5,505.5  L60.5,443.5  Z " data-v-f09244fc=""></path><path id="knifeFace_TT" stroke-width="1.2144549543470238" fill="url(#scienceImagePattern_traditional)" d=" M60.5,68.5  L62,63.5  L261,63.5  L262.5,68.5  L60.5,68.5  Z " data-v-f09244fc=""></path><path id="knifeFace_BB" stroke-width="1.2144549543470238" fill="url(#scienceImagePattern_traditional)" d=" M60.5,505.5  L262.5,505.5  L261,510.5  L62,510.5  L60.5,505.5  Z " data-v-f09244fc=""></path><path id="knifeFace_HT" stroke-width="1.2144549543470238" fill="url(#scienceImagePattern_traditional)" d=" M62,63.5  L62,3.75  L101.5,3.75  L103,0  L140,0  L141.5,3.75  L181.5,3.75  L183,0  L220,0  L221.5,3.75  L261,3.75  L261,63.5  L62,63.5  Z " data-v-f09244fc=""></path><path id="knifeFace_HB" stroke-width="1.2144549543470238" fill="url(#scienceImagePattern_traditional)" d=" M62,510.5  L261,510.5  L261,570.25  L221.5,570.25  L220,574  L183,574  L181.5,570.25  L141.5,570.25  L140,574  L103,574  L101.5,570.25  L62,570.25  L62,510.5  Z " data-v-f09244fc=""></path></g><g data-v-f09244fc=""><path stroke-width="1.2144549543470238" stroke="#2028B0" fill="none" d=" M587.5,132  L590,134.5  L590,279.5  A7.5,7.5 0 0,0 590,294.5  L590,439.5  L587.5,442  A45.5,52 0 0,1 542,494  A13,13 0 0,1 529,481  L529,442  L529,439.5  A1,1 0 0,0 528,438.5  A1,1 0 0,0 527.0603073792141,439.15797985667433  L508.87186952732804,489.13030214988504  A15,15 0 0,1 494.77648021553944,499  L356.74450969037684,499  A15,15 0 0,1 342.5617310563871,488.88352231685735  L325.4455185755993,439.1744318455428  A1,1 0 0,0 324.5,438.5  A1,1 0 0,0 323.5,439.5  L323.5,523  L265.5,523  L265.5,445  L265.5,443.5  A1.5,1.5 0 0,0 264,442  A1.5,1.5 0 0,0 262.5,443.5  L262.5,505.5  L261,510.5  L261,570.25  L221.5,570.25  L220,574  L183,574  L181.5,570.25  L141.5,570.25  L140,574  L103,574  L101.5,570.25  L62,570.25  L62,510.5  L60.5,505.5  L60.5,443.5  L60.5,442.5  A1.5,1.5 0 0,0 59,441  A1.5,1.5 0 0,0 57.5,442.5  L57.5,444  L57.5,522  L0,522  L0,441  L0,52  L57.5,52  L57.5,130  L57.5,131.5  A1.5,1.5 0 0,0 59,133  A1.5,1.5 0 0,0 60.5,131.5  L60.5,68.5  L62,63.5  L62,3.75  L101.5,3.75  L103,0  L140,0  L141.5,3.75  L181.5,3.75  L183,0  L220,0  L221.5,3.75  L261,3.75  L261,63.5  L262.5,68.5  L262.5,130.5  A1.5,1.5 0 0,0 264,132  A1.5,1.5 0 0,0 265.5,130.5  L265.5,129  L265.5,51  L323.5,51  L323.5,132  L323.5,134.5  A1,1 0 0,0 324.5,135.5  A1,1 0 0,0 325.4455185755993,134.82556815445716  L342.5617310563871,85.11647768314265  A15,15 0 0,1 356.74450969037684,75  L494.77648021553944,75  A15,15 0 0,1 508.87186952732804,84.86969785011497  L527.0603073792141,134.84202014332567  A1,1 0 0,0 528,135.5  A1,1 0 0,0 529,134.5  L529,132  L529,93  A13,13 0 0,1 542,80  A45.5,52 0 0,1 587.5,132  Z " data-v-f09244fc=""></path></g><g data-v-f09244fc=""><g data-v-f09244fc=""><line stroke-width="1.2144549543470238" stroke="#FA0000" stroke-dasharray="0.9108412157602679 0.6072274771735119" x1="324.5" y1="135.5" x2="528" y2="135.5" data-v-f09244fc=""></line><!----></g><g data-v-f09244fc=""><line stroke-width="1.2144549543470238" stroke="#FA0000" stroke-dasharray="0.9108412157602679 0.6072274771735119" x1="528" y1="135.5" x2="528" y2="438.5" data-v-f09244fc=""></line><!----></g><g data-v-f09244fc=""><line stroke-width="1.2144549543470238" stroke="#FA0000" stroke-dasharray="0.9108412157602679 0.6072274771735119" x1="528" y1="438.5" x2="324.5" y2="438.5" data-v-f09244fc=""></line><!----></g><g data-v-f09244fc=""><line stroke-width="1.2144549543470238" stroke="#FA0000" stroke-dasharray="0.9108412157602679 0.6072274771735119" x1="324.5" y1="438.5" x2="324.5" y2="135.5" data-v-f09244fc=""></line><!----></g><g data-v-f09244fc=""><line stroke-width="1.2144549543470238" stroke="#FA0000" stroke-dasharray="0.9108412157602679 0.6072274771735119" x1="529" y1="132" x2="587.5" y2="132" data-v-f09244fc=""></line><!----></g><g data-v-f09244fc=""><line stroke-width="1.2144549543470238" stroke="#FA0000" stroke-dasharray="0.9108412157602679 0.6072274771735119" x1="587.5" y1="442" x2="529" y2="442" data-v-f09244fc=""></line><!----></g><g data-v-f09244fc=""><line stroke-width="1.2144549543470238" stroke="#FA0000" stroke-dasharray="0.9108412157602679 0.6072274771735119" x1="264" y1="132" x2="323.5" y2="132" data-v-f09244fc=""></line><!----></g><g data-v-f09244fc=""><line stroke-width="1.2144549543470238" stroke="#FA0000" stroke-dasharray="0.9108412157602679 0.6072274771735119" x1="323.5" y1="442" x2="264" y2="442" data-v-f09244fc=""></line><!----></g><g data-v-f09244fc=""><line stroke-width="1.2144549543470238" stroke="#FA0000" stroke-dasharray="0.9108412157602679 0.6072274771735119" x1="262.5" y1="443.5" x2="262.5" y2="130.5" data-v-f09244fc=""></line><!----></g><g data-v-f09244fc=""><line stroke-width="1.2144549543470238" stroke="#FA0000" stroke-dasharray="0.9108412157602679 0.6072274771735119" x1="59" y1="441" x2="0" y2="441" data-v-f09244fc=""></line><!----></g><g data-v-f09244fc=""><line stroke-width="1.2144549543470238" stroke="#FA0000" stroke-dasharray="0.9108412157602679 0.6072274771735119" x1="0" y1="133" x2="59" y2="133" data-v-f09244fc=""></line><!----></g><g data-v-f09244fc=""><line stroke-width="1.2144549543470238" stroke="#FA0000" stroke-dasharray="0.9108412157602679 0.6072274771735119" x1="60.5" y1="131.5" x2="60.5" y2="442.5" data-v-f09244fc=""></line><!----></g><g data-v-f09244fc=""><line stroke-width="1.2144549543470238" stroke="#FA0000" stroke-dasharray="0.9108412157602679 0.6072274771735119" x1="60.5" y1="130.5" x2="101.5" y2="130.5" data-v-f09244fc=""></line><!----></g><g data-v-f09244fc=""><line stroke-width="1.2144549543470238" stroke="#FA0000" stroke-dasharray="0.9108412157602679 0.6072274771735119" x1="141.5" y1="130.5" x2="181.5" y2="130.5" data-v-f09244fc=""></line><!----></g><g data-v-f09244fc=""><line stroke-width="1.2144549543470238" stroke="#FA0000" stroke-dasharray="0.9108412157602679 0.6072274771735119" x1="221.5" y1="130.5" x2="262.5" y2="130.5" data-v-f09244fc=""></line><!----></g><g data-v-f09244fc=""><line stroke-width="1.2144549543470238" stroke="#FA0000" stroke-dasharray="0.9108412157602679 0.6072274771735119" x1="262.5" y1="443.5" x2="221.5" y2="443.5" data-v-f09244fc=""></line><!----></g><g data-v-f09244fc=""><line stroke-width="1.2144549543470238" stroke="#FA0000" stroke-dasharray="0.9108412157602679 0.6072274771735119" x1="181.5" y1="443.5" x2="141.5" y2="443.5" data-v-f09244fc=""></line><!----></g><g data-v-f09244fc=""><line stroke-width="1.2144549543470238" stroke="#FA0000" stroke-dasharray="0.9108412157602679 0.6072274771735119" x1="101.5" y1="443.5" x2="60.5" y2="443.5" data-v-f09244fc=""></line><!----></g><g data-v-f09244fc=""><line stroke-width="1.2144549543470238" stroke="#FA0000" stroke-dasharray="0.9108412157602679 0.6072274771735119" x1="60.5" y1="68.5" x2="262.5" y2="68.5" data-v-f09244fc=""></line><!----></g><g data-v-f09244fc=""><line stroke-width="1.2144549543470238" stroke="#FA0000" stroke-dasharray="0.9108412157602679 0.6072274771735119" x1="262.5" y1="505.5" x2="60.5" y2="505.5" data-v-f09244fc=""></line><!----></g><g data-v-f09244fc=""><line stroke-width="1.2144549543470238" stroke="#FA0000" stroke-dasharray="0.9108412157602679 0.6072274771735119" x1="62" y1="63.5" x2="261" y2="63.5" data-v-f09244fc=""></line><!----></g><g data-v-f09244fc=""><line stroke-width="1.2144549543470238" stroke="#FA0000" stroke-dasharray="0.9108412157602679 0.6072274771735119" x1="261" y1="510.5" x2="62" y2="510.5" data-v-f09244fc=""></line><!----></g></g><g data-v-f09244fc=""><path stroke-width="1.2144549543470238" stroke="#333333" d=" M101.5,130.5  L101.5,135.5  L141.5,135.5  L141.5,130.5  L101.5,130.5  Z " data-v-f09244fc="" style="fill: rgb(255, 255, 255);"></path><path stroke-width="1.2144549543470238" stroke="#333333" d=" M101.5,443.5  L101.5,438.5  L141.5,438.5  L141.5,443.5  L101.5,443.5  Z " data-v-f09244fc="" style="fill: rgb(255, 255, 255);"></path><path stroke-width="1.2144549543470238" stroke="#333333" d=" M181.5,130.5  L181.5,135.5  L221.5,135.5  L221.5,130.5  L181.5,130.5  Z " data-v-f09244fc="" style="fill: rgb(255, 255, 255);"></path><path stroke-width="1.2144549543470238" stroke="#333333" d=" M181.5,443.5  L181.5,438.5  L221.5,438.5  L221.5,443.5  L181.5,443.5  Z " data-v-f09244fc="" style="fill: rgb(255, 255, 255);"></path></g></svg>