<?xml version="1.0" encoding="UTF-8" standalone="no"?>
<!DOCTYPE svg PUBLIC "-//W3C//DTD SVG 1.1//EN" "http://www.w3.org/Graphics/SVG/1.1/DTD/svg11.dtd">
<svg xmlns="http://www.w3.org/2000/svg" version="1.1" viewBox="0.00 0.00 531.00 635.00">
<g fill="#bc353b">
<path d="
  M 261.62 0.00
  L 271.50 0.00
  Q 319.74 1.48 361.27 20.97
  Q 396.51 37.51 424.43 64.50
  Q 424.68 64.75 424.33 64.75
  Q 346.15 64.75 266.26 64.75
  C 228.01 64.75 191.41 78.29 162.46 102.15
  Q 129.65 129.19 114.91 171.64
  Q 101.05 211.59 109.91 253.98
  Q 117.41 289.90 141.07 319.40
  A 0.87 0.86 29.5 0 1 141.25 320.03
  L 132.74 400.47
  Q 132.69 400.90 132.34 400.65
  C 108.17 383.07 87.86 361.35 72.62 336.05
  Q 36.88 276.73 41.27 205.75
  Q 42.03 193.49 43.82 183.55
  C 56.45 113.39 102.25 53.93 166.39 22.72
  Q 202.16 5.31 242.49 1.25
  Q 246.89 0.81 261.62 0.00
  Z"
/>
<path d="
  M 401.46 301.50
  L 362.22 301.50
  A 0.28 0.27 90.0 0 1 361.95 301.22
  L 361.94 238.03
  Q 361.94 237.50 362.47 237.50
  L 489.22 237.50
  Q 489.78 237.50 489.73 238.05
  Q 483.52 301.87 446.21 352.58
  Q 425.53 380.67 395.84 402.01
  Q 362.31 426.11 321.48 436.58
  Q 273.91 448.77 224.16 440.11
  A 0.78 0.77 -82.7 0 1 223.52 439.28
  L 229.27 374.81
  Q 229.33 374.19 229.93 374.31
  Q 239.90 376.33 245.15 376.96
  Q 275.19 380.58 303.14 373.84
  C 311.89 371.74 322.54 368.22 330.84 364.39
  Q 375.88 343.62 401.74 302.00
  A 0.33 0.33 0.0 0 0 401.46 301.50
  Z"
/>
</g>
<g fill="#1d1d1d">
<path d="
  M 230.22 240.25
  L 318.02 240.25
  A 0.27 0.27 0.0 0 1 318.29 240.52
  L 318.29 302.98
  Q 318.29 303.25 318.02 303.25
  L 224.04 303.25
  Q 223.71 303.25 223.68 303.58
  L 210.66 436.96
  Q 210.63 437.30 210.30 437.21
  Q 180.56 429.11 152.33 413.41
  Q 149.04 411.59 145.85 409.56
  Q 145.37 409.25 145.42 408.68
  Q 155.26 310.95 164.57 215.26
  Q 165.69 203.80 167.46 197.16
  C 177.90 157.92 210.27 129.29 250.32 123.29
  Q 257.33 122.24 267.80 122.20
  Q 347.61 121.83 429.54 122.05
  Q 430.16 122.05 430.04 122.66
  Q 427.04 138.84 421.58 153.66
  C 418.05 163.25 408.29 185.01 396.29 185.01
  Q 313.64 184.99 235.77 185.00
  Q 235.24 185.00 235.19 185.53
  L 229.62 239.59
  Q 229.55 240.25 230.22 240.25
  Z"
/>
<path d="
  M 279.57 530.97
  A 0.38 0.37 -82.8 0 0 279.21 530.50
  L 268.49 530.50
  Q 267.97 530.50 267.97 529.98
  L 267.97 519.52
  Q 267.97 519.00 268.49 519.00
  L 293.20 519.00
  Q 293.71 519.00 293.79 519.51
  C 296.67 538.98 284.53 556.53 263.98 556.80
  Q 251.09 556.97 241.63 548.79
  C 228.54 537.47 227.34 517.60 237.69 504.52
  C 243.63 497.01 252.62 492.74 262.22 492.35
  C 272.18 491.95 281.69 496.77 288.12 504.49
  A 0.56 0.56 0.0 0 1 287.67 505.41
  Q 278.34 505.20 268.77 505.25
  Q 258.78 505.30 254.56 507.46
  C 245.23 512.22 240.76 523.69 245.80 533.21
  C 250.94 542.92 262.13 546.75 271.94 541.51
  Q 277.67 538.46 279.57 530.97
  Z"
/>
<path d="
  M 416.51 525.28
  A 32.49 32.49 0.0 0 1 384.02 557.77
  A 32.49 32.49 0.0 0 1 351.53 525.28
  A 32.49 32.49 0.0 0 1 384.02 492.79
  A 32.49 32.49 0.0 0 1 416.51 525.28
  Z
  M 401.20 525.24
  A 17.19 17.19 0.0 0 0 384.01 508.05
  A 17.19 17.19 0.0 0 0 366.82 525.24
  A 17.19 17.19 0.0 0 0 384.01 542.43
  A 17.19 17.19 0.0 0 0 401.20 525.24
  Z"
/>
<path d="
  M 498.45 536.21
  L 498.45 555.90
  Q 498.45 556.50 497.85 556.50
  L 484.22 556.50
  Q 483.70 556.50 483.70 555.97
  L 483.69 494.78
  Q 483.69 493.93 484.54 493.91
  Q 495.45 493.58 505.71 493.82
  C 509.14 493.90 513.04 494.17 516.24 495.25
  C 530.40 500.03 534.65 516.33 525.76 527.68
  C 522.88 531.37 517.06 535.06 511.86 535.27
  C 509.69 535.36 507.59 535.82 505.39 535.66
  Q 502.29 535.44 499.19 535.47
  Q 498.45 535.48 498.45 536.21
  Z
  M 498.46 508.99
  L 498.48 520.79
  A 0.50 0.50 0.0 0 0 498.98 521.29
  L 507.69 521.28
  A 7.49 6.27 -0.1 0 0 515.17 515.00
  L 515.17 514.74
  A 7.49 6.27 -0.1 0 0 507.67 508.48
  L 498.96 508.49
  A 0.50 0.50 0.0 0 0 498.46 508.99
  Z"
/>
<path d="
  M 0.00 556.20
  L 0.00 554.40
  Q 2.05 533.82 4.04 513.25
  Q 5.42 499.10 18.53 494.76
  C 20.37 494.15 22.33 494.16 24.25 494.12
  Q 39.43 493.87 55.81 494.04
  Q 56.44 494.05 56.32 494.67
  C 55.55 498.69 53.64 506.47 48.56 506.47
  Q 35.08 506.49 20.13 506.70
  Q 19.57 506.71 19.52 507.26
  L 18.52 516.84
  Q 18.46 517.47 19.09 517.48
  L 33.67 517.77
  Q 34.31 517.78 34.31 518.42
  L 34.33 529.58
  Q 34.34 530.25 33.67 530.25
  L 16.00 530.25
  A 0.28 0.27 -86.4 0 0 15.73 530.50
  L 13.27 555.72
  Q 13.23 556.20 12.74 556.20
  L 0.00 556.20
  Z"
/>
<path d="
  M 62.19 545.86
  L 59.16 556.14
  A 0.50 0.50 0.0 0 1 58.68 556.50
  L 43.40 556.50
  A 0.50 0.50 0.0 0 1 42.93 555.84
  L 63.41 494.34
  A 0.50 0.50 0.0 0 1 63.88 494.00
  L 79.11 494.00
  A 0.50 0.50 0.0 0 1 79.58 494.34
  L 99.99 555.84
  A 0.50 0.50 0.0 0 1 99.52 556.50
  L 84.35 556.50
  A 0.50 0.50 0.0 0 1 83.87 556.14
  L 80.85 545.86
  A 0.50 0.50 0.0 0 0 80.37 545.50
  L 62.67 545.50
  A 0.50 0.50 0.0 0 0 62.19 545.86
  Z
  M 66.45 531.37
  A 0.30 0.30 0.0 0 0 66.74 531.75
  L 76.26 531.74
  A 0.30 0.30 0.0 0 0 76.55 531.35
  L 71.76 515.24
  A 0.30 0.30 0.0 0 0 71.18 515.24
  L 66.45 531.37
  Z"
/>
<path d="
  M 112.62 539.53
  C 118.30 545.58 127.03 542.49 127.12 533.95
  Q 127.36 512.40 127.22 494.34
  Q 127.21 494.00 127.55 494.00
  L 141.22 494.00
  A 0.82 0.81 0.3 0 1 142.04 494.82
  Q 141.89 514.29 142.08 530.44
  Q 142.17 538.09 140.81 542.22
  C 137.58 552.01 128.44 557.92 118.11 557.21
  Q 107.84 556.50 101.54 548.42
  A 0.69 0.68 51.9 0 1 101.65 547.46
  L 111.67 539.46
  Q 112.17 539.05 112.62 539.53
  Z"
/>
<path d="
  M 166.70 536.52
  L 166.67 556.04
  Q 166.67 556.50 166.21 556.50
  L 152.47 556.50
  A 0.53 0.53 0.0 0 1 151.94 555.97
  L 151.94 494.54
  Q 151.94 494.01 152.47 494.01
  Q 164.37 493.96 175.63 494.03
  C 184.62 494.09 193.12 498.02 196.88 506.55
  C 201.27 516.46 197.35 527.39 187.88 532.47
  A 0.44 0.43 62.6 0 0 187.70 533.06
  L 199.72 556.05
  A 0.30 0.30 0.0 0 1 199.45 556.49
  L 183.78 556.51
  A 1.05 1.03 76.5 0 1 182.85 555.93
  L 173.20 536.43
  Q 172.87 535.75 172.10 535.75
  L 167.47 535.75
  Q 166.70 535.75 166.70 536.52
  Z
  M 166.76 508.85
  L 166.76 520.87
  A 0.37 0.37 0.0 0 0 167.13 521.24
  L 175.56 521.24
  A 7.86 6.18 -0.0 0 0 183.42 515.06
  L 183.42 514.66
  A 7.86 6.18 -0.0 0 0 175.56 508.48
  L 167.13 508.48
  A 0.37 0.37 0.0 0 0 166.76 508.85
  Z"
/>
<path d="
  M 314.24 536.51
  L 314.24 556.01
  Q 314.24 556.50 313.74 556.50
  L 300.10 556.50
  Q 299.45 556.50 299.45 555.85
  L 299.48 494.68
  Q 299.48 494.03 300.13 494.03
  Q 319.55 493.86 326.08 494.17
  Q 333.68 494.53 338.96 499.09
  C 347.51 506.49 348.52 518.74 341.27 527.56
  C 339.68 529.50 337.66 530.98 335.53 532.28
  Q 334.94 532.63 335.26 533.24
  L 347.09 555.81
  Q 347.46 556.50 346.68 556.50
  L 331.23 556.50
  Q 330.60 556.50 330.32 555.94
  L 320.66 536.30
  Q 320.39 535.75 319.78 535.75
  L 314.99 535.75
  Q 314.24 535.75 314.24 536.51
  Z
  M 314.22 508.98
  L 314.22 520.68
  A 0.53 0.53 0.0 0 0 314.75 521.21
  L 322.78 521.21
  A 8.10 6.20 -0.0 0 0 330.88 515.01
  L 330.88 514.65
  A 8.10 6.20 0.0 0 0 322.78 508.45
  L 314.75 508.45
  A 0.53 0.53 0.0 0 0 314.22 508.98
  Z"
/>
<path d="
  M 446.92 542.67
  C 453.78 544.23 458.89 539.70 458.91 532.89
  Q 458.96 514.34 458.95 494.55
  Q 458.95 494.00 459.50 494.00
  L 473.23 494.00
  Q 473.76 494.00 473.77 494.54
  Q 473.84 514.18 473.72 532.92
  C 473.63 547.03 463.84 556.83 450.00 557.67
  Q 440.94 558.22 433.86 553.05
  C 425.81 547.18 424.20 539.21 424.24 529.79
  Q 424.32 511.83 424.25 494.71
  Q 424.25 494.00 424.95 494.00
  L 438.48 494.00
  A 0.55 0.54 0.0 0 1 439.03 494.54
  Q 439.03 512.83 439.01 531.89
  Q 439.01 540.86 446.92 542.67
  Z"
/>
<circle cx="335.57" cy="587.83" r="3.45"/>
<rect x="41.24" y="587.49" width="7.26" height="36.00" rx="0.63"/>
<path d="
  M 91.70 616.22
  Q 95.62 616.50 99.15 615.98
  A 2.45 2.45 0.0 0 0 101.24 613.56
  L 101.25 588.00
  Q 101.26 587.50 101.75 587.50
  L 108.07 587.50
  Q 108.51 587.50 108.51 587.95
  Q 108.43 598.87 108.58 611.51
  C 108.66 618.60 105.40 623.43 97.79 623.47
  Q 80.35 623.54 63.45 623.48
  Q 62.87 623.48 62.84 624.06
  C 62.38 632.65 55.64 635.72 48.15 633.83
  Q 47.90 633.77 47.97 633.52
  L 49.75 627.22
  A 0.40 0.40 0.0 0 1 50.20 626.94
  Q 55.04 627.85 55.40 623.25
  Q 56.01 615.61 55.70 600.78
  A 0.52 0.52 0.0 0 1 56.22 600.25
  L 62.25 600.25
  Q 62.75 600.25 62.75 600.75
  L 62.76 615.85
  Q 62.76 616.25 63.15 616.25
  L 72.74 616.25
  A 0.18 0.18 0.0 0 0 72.89 615.97
  L 68.78 609.80
  Q 68.50 609.38 68.50 608.87
  L 68.50 601.04
  Q 68.50 600.52 69.02 600.49
  Q 78.96 599.93 89.08 600.68
  Q 92.57 600.93 94.40 603.61
  C 96.99 607.41 94.17 612.48 91.38 615.38
  Q 90.65 616.15 91.70 616.22
  Z
  M 86.92 608.59
  A 0.91 0.91 0.0 0 0 86.01 607.75
  L 77.98 607.75
  A 0.91 0.91 0.0 0 0 77.21 609.16
  L 81.51 615.78
  A 0.91 0.91 0.0 0 0 82.97 615.87
  L 86.87 611.24
  A 0.91 0.91 0.0 0 0 87.08 610.58
  L 86.92 608.59
  Z"
/>
<rect x="114.50" y="587.50" width="7.26" height="36.00" rx="0.47"/>
<path d="
  M 283.75 600.39
  Q 293.15 600.33 297.28 606.51
  C 300.33 611.07 299.85 617.62 299.73 622.98
  Q 299.72 623.49 299.21 623.49
  Q 285.69 623.51 271.15 623.49
  C 263.37 623.48 260.60 618.36 260.69 611.23
  Q 260.83 599.67 260.72 587.83
  Q 260.72 587.50 261.05 587.50
  L 267.75 587.50
  Q 268.00 587.50 268.00 587.75
  L 268.00 613.51
  A 2.72 2.72 0.0 0 0 270.72 616.23
  L 289.83 616.26
  Q 293.87 616.26 292.04 612.66
  Q 291.76 612.11 291.39 611.39
  Q 289.55 607.75 285.47 607.75
  L 274.00 607.75
  Q 273.50 607.75 273.50 607.25
  L 273.50 600.81
  A 0.99 0.98 68.8 0 1 273.81 600.09
  L 287.55 587.68
  A 0.65 0.62 21.2 0 1 287.96 587.51
  Q 292.58 587.49 297.25 587.55
  A 0.03 0.03 0.0 0 1 297.27 587.60
  Q 290.16 593.82 283.50 599.72
  Q 282.74 600.39 283.75 600.39
  Z"
/>
<circle cx="20.19" cy="593.94" r="3.89"/>
<circle cx="30.16" cy="593.93" r="3.89"/>
<circle cx="195.26" cy="594.47" r="4.08"/>
<circle cx="234.52" cy="594.75" r="3.90"/>
<rect x="-3.75" y="-3.75" transform="translate(243.79,594.76) rotate(-1.2)" width="7.50" height="7.50" rx="3.21"/>
<circle cx="376.31" cy="594.76" r="3.90"/>
<circle cx="385.24" cy="594.75" r="3.89"/>
<circle cx="331.01" cy="594.86" r="3.80"/>
<rect x="-3.64" y="-3.65" transform="translate(340.13,594.85) rotate(1.2)" width="7.28" height="7.30" rx="2.98"/>
<path d="
  M 186.34 615.58
  C 182.62 610.81 185.05 603.98 190.30 601.51
  C 198.95 597.46 207.13 603.91 206.80 613.15
  Q 206.64 617.72 206.81 622.13
  Q 206.86 623.46 205.52 623.47
  L 149.02 623.52
  Q 148.52 623.52 148.52 624.02
  C 148.57 632.29 141.20 635.69 134.07 633.83
  Q 133.59 633.71 133.73 633.24
  L 135.39 627.39
  A 0.56 0.56 0.0 0 1 136.05 626.99
  Q 141.17 628.03 141.20 621.99
  Q 141.26 611.10 141.24 600.98
  A 0.48 0.48 0.0 0 1 141.72 600.50
  L 148.00 600.50
  Q 148.50 600.50 148.50 601.00
  L 148.50 615.75
  A 0.50 0.50 0.0 0 0 149.00 616.25
  L 169.76 616.25
  Q 173.65 616.25 171.97 612.74
  Q 171.55 611.87 171.37 611.49
  Q 169.59 607.76 165.46 607.76
  L 154.75 607.75
  Q 154.50 607.75 154.50 607.50
  L 154.50 600.80
  Q 154.50 600.45 154.85 600.46
  Q 159.01 600.62 163.13 600.45
  C 172.72 600.04 179.54 605.42 179.53 615.60
  Q 179.53 616.25 180.18 616.25
  L 186.02 616.25
  Q 186.86 616.25 186.34 615.58
  Z
  M 197.03 607.98
  C 193.40 606.40 189.12 610.98 192.00 614.42
  C 193.82 616.59 196.45 616.01 198.90 616.01
  Q 199.43 616.01 199.48 615.48
  C 199.72 612.92 199.80 609.18 197.03 607.98
  Z"
/>
<path d="
  M 398.69 615.64
  C 395.04 610.07 397.88 603.02 404.04 601.04
  Q 410.38 599.01 416.13 603.47
  Q 416.43 603.70 416.22 604.02
  L 412.78 609.05
  Q 412.55 609.39 412.21 609.17
  C 403.66 603.72 400.74 615.91 408.93 616.17
  Q 413.27 616.31 417.49 616.24
  Q 417.75 616.24 417.75 616.50
  L 417.75 623.23
  Q 417.75 623.51 417.47 623.51
  Q 406.22 623.46 395.05 623.53
  Q 389.58 623.56 387.54 620.80
  Q 387.19 620.33 386.76 620.72
  C 380.63 626.23 371.75 622.97 369.02 615.81
  C 366.58 609.41 370.76 601.68 377.64 600.76
  Q 383.55 599.98 390.31 600.38
  Q 391.35 600.44 391.27 601.47
  Q 390.78 607.57 391.37 614.44
  A 1.58 1.58 0.0 0 0 392.52 615.82
  Q 395.10 616.53 398.43 616.19
  Q 399.02 616.13 398.69 615.64
  Z
  M 378.53 615.81
  C 383.65 617.24 384.07 612.06 383.72 608.29
  Q 383.66 607.65 383.02 607.69
  C 380.79 607.85 378.46 607.25 376.76 609.09
  C 374.80 611.20 375.70 615.02 378.53 615.81
  Z"
/>
<path d="
  M 450.15 615.54
  Q 449.10 614.15 449.07 612.49
  C 448.87 601.88 461.01 596.45 468.70 603.86
  C 471.66 606.71 472.07 610.35 472.21 614.27
  A 2.03 2.03 0.0 0 0 474.23 616.23
  L 494.67 616.26
  Q 495.23 616.26 495.29 615.70
  C 495.90 609.20 491.34 607.52 485.84 607.69
  Q 481.70 607.83 477.99 607.74
  Q 477.75 607.73 477.75 607.50
  L 477.75 600.81
  Q 477.75 600.60 477.95 600.58
  Q 487.14 599.72 491.30 600.72
  Q 502.75 603.48 502.76 615.75
  A 0.51 0.50 0.0 0 0 503.27 616.25
  L 508.25 616.25
  Q 508.96 616.25 508.60 615.64
  Q 506.66 612.35 508.09 608.33
  C 511.92 597.55 527.31 597.85 530.14 609.29
  C 532.12 617.32 526.38 623.33 518.24 623.42
  Q 495.56 623.66 473.74 623.47
  Q 470.73 623.44 468.43 620.76
  Q 468.08 620.34 467.67 620.71
  Q 464.57 623.51 460.47 623.51
  Q 452.75 623.50 444.99 623.49
  Q 444.50 623.49 444.40 623.97
  Q 442.31 634.53 432.02 634.24
  Q 426.76 634.09 423.19 630.02
  Q 422.76 629.54 423.24 629.10
  L 427.36 625.33
  Q 427.82 624.91 428.31 625.30
  C 431.22 627.65 435.10 627.89 437.02 624.16
  Q 437.43 623.37 436.53 623.46
  C 431.51 623.95 426.12 622.78 423.29 618.22
  C 418.41 610.38 423.42 600.96 432.61 600.43
  Q 439.83 600.02 443.27 606.99
  Q 444.49 609.46 444.51 615.75
  Q 444.52 616.25 445.01 616.25
  L 449.79 616.25
  Q 450.68 616.25 450.15 615.54
  Z
  M 429.01 610.39
  C 427.37 615.74 432.87 616.53 436.59 616.22
  Q 437.15 616.17 437.20 615.62
  Q 437.40 613.49 436.99 611.22
  C 436.23 607.00 430.22 606.45 429.01 610.39
  Z
  M 464.65 611.91
  A 4.12 4.12 0.0 0 0 460.53 607.79
  A 4.12 4.12 0.0 0 0 456.41 611.91
  A 4.12 4.12 0.0 0 0 460.53 616.03
  A 4.12 4.12 0.0 0 0 464.65 611.91
  Z
  M 523.12 611.91
  A 4.12 4.12 0.0 0 0 519.00 607.79
  A 4.12 4.12 0.0 0 0 514.88 611.91
  A 4.12 4.12 0.0 0 0 519.00 616.03
  A 4.12 4.12 0.0 0 0 523.12 611.91
  Z"
/>
<path d="
  M 0.00 616.82
  L 0.00 607.25
  L 6.69 607.30
  Q 7.36 607.30 7.33 607.97
  C 6.93 615.84 6.10 624.95 15.77 626.54
  Q 21.61 627.50 27.13 626.50
  A 2.27 2.25 -82.9 0 0 28.79 625.20
  L 28.98 624.77
  Q 29.60 623.38 28.08 623.47
  C 22.04 623.81 16.02 621.78 13.98 615.50
  C 11.75 608.63 16.03 601.56 23.28 600.55
  C 30.47 599.55 35.93 604.39 36.39 611.55
  Q 36.74 616.94 36.40 623.77
  C 36.07 630.41 31.61 633.63 25.38 634.10
  Q 18.40 634.63 13.10 633.39
  Q 0.70 630.48 0.00 616.82
  Z
  M 23.71 615.83
  Q 24.82 616.28 28.47 615.97
  Q 29.10 615.92 29.17 615.28
  C 29.57 611.57 28.83 606.76 23.69 607.90
  Q 21.85 608.31 21.22 610.12
  Q 19.77 614.24 23.71 615.83
  Z"
/>
<path d="
  M 229.84 605.57
  C 230.29 609.14 229.16 614.99 234.45 615.76
  Q 240.19 616.59 245.09 616.02
  C 248.37 615.63 248.34 611.74 248.31 609.25
  Q 248.25 604.64 248.25 600.77
  Q 248.25 600.50 248.52 600.50
  L 255.38 600.51
  Q 255.63 600.51 255.59 600.77
  Q 255.06 604.09 255.39 607.28
  Q 255.57 609.00 255.32 610.69
  C 255.11 612.09 255.37 613.45 255.08 614.87
  C 253.09 624.62 243.14 623.82 235.29 623.34
  C 229.42 622.97 224.24 619.08 223.04 613.26
  Q 222.29 609.58 222.73 605.50
  Q 222.79 605.00 223.29 605.00
  L 229.20 605.00
  A 0.65 0.64 86.5 0 1 229.84 605.57
  Z"
/>
<path d="
  M 313.00 615.03
  Q 313.00 616.57 314.54 616.40
  Q 315.86 616.26 317.10 616.07
  Q 319.75 615.68 319.75 613.01
  L 319.75 601.00
  Q 319.75 600.50 320.25 600.50
  L 326.75 600.50
  Q 327.00 600.50 327.00 600.75
  L 327.00 613.12
  Q 327.00 615.24 329.00 615.93
  Q 329.36 616.06 329.77 616.03
  Q 332.25 615.81 332.26 613.33
  L 332.34 600.71
  Q 332.34 600.51 332.54 600.51
  L 339.21 600.49
  Q 339.43 600.49 339.43 600.71
  L 339.66 613.83
  A 2.24 2.23 -86.2 0 0 341.54 615.99
  Q 341.88 616.04 342.21 616.04
  A 2.79 2.79 0.0 0 0 344.99 613.25
  L 345.00 601.00
  Q 345.00 600.50 345.50 600.50
  L 351.81 600.50
  Q 352.32 600.51 352.29 601.02
  Q 352.11 605.22 352.32 610.16
  Q 352.56 615.60 350.85 618.52
  C 348.00 623.40 340.77 625.45 336.43 621.03
  Q 336.10 620.70 335.75 620.99
  Q 329.96 625.85 323.73 621.18
  Q 323.33 620.88 322.94 621.20
  Q 319.33 624.24 313.82 623.39
  A 0.71 0.71 0.0 0 0 313.00 624.04
  C 312.38 632.44 306.22 635.72 298.27 633.82
  Q 298.01 633.76 298.08 633.50
  L 299.88 627.19
  A 0.31 0.31 0.0 0 1 300.24 626.97
  Q 305.54 628.18 305.66 622.21
  Q 305.86 612.85 305.71 600.99
  Q 305.71 600.50 306.20 600.50
  L 312.62 600.50
  Q 313.00 600.50 313.00 600.88
  L 313.00 615.03
  Z"
/>
<circle cx="166.84" cy="630.37" r="4.06"/>
<circle cx="490.04" cy="630.36" r="4.07"/>
</g>
</svg>
