<?xml version="1.0" encoding="UTF-8" standalone="no"?>
<!DOCTYPE svg PUBLIC "-//W3C//DTD SVG 1.1//EN" "http://www.w3.org/Graphics/SVG/1.1/DTD/svg11.dtd">
<svg xmlns="http://www.w3.org/2000/svg" version="1.1" viewBox="0.00 0.00 297.00 219.00">
<g stroke-width="2.00" fill="none" stroke-linecap="butt">
<path stroke="#d5b38e" vector-effect="non-scaling-stroke" d="
  M 127.50 0.00
  L 124.14 0.25
  Q 123.52 0.30 123.46 0.92
  L 122.84 7.81
  Q 122.79 8.36 122.54 8.85
  Q 121.78 10.27 123.46 10.75"
/>
<path stroke="#e2c5a3" vector-effect="non-scaling-stroke" d="
  M 123.46 10.75
  L 102.75 10.06
  Q 102.69 10.06 102.64 10.10
  L 102.36 10.38
  A 0.97 0.97 0.0 0 1 101.56 10.67
  Q 99.26 10.47 96.82 10.41
  Q 94.58 10.35 92.19 9.88
  Q 86.56 8.78 79.95 8.81
  Q 77.83 8.81 71.64 8.21
  Q 66.39 7.69 63.13 12.37
  Q 61.16 15.20 59.89 17.86
  Q 54.21 29.84 49.02 41.73
  Q 47.18 45.94 45.35 50.46
  A 1.52 1.52 0.0 0 0 46.05 52.37
  Q 46.75 52.74 48.00 52.83"
/>
<path stroke="#d0ae88" vector-effect="non-scaling-stroke" d="
  M 48.00 52.83
  Q 46.65 52.72 46.26 53.27
  Q 46.02 53.61 46.34 53.89
  Q 47.16 54.62 47.27 55.97
  C 47.54 59.27 47.06 62.19 47.06 65.30
  C 47.07 78.37 47.71 92.09 47.86 105.34
  Q 47.94 111.81 48.29 117.67
  Q 48.58 122.24 48.35 127.23
  C 48.01 134.96 48.29 142.64 48.34 150.42
  Q 48.38 156.87 48.69 164.05
  Q 49.20 175.61 48.88 187.34
  Q 48.85 188.21 49.07 189.41
  Q 49.27 190.45 49.31 191.50"
/>
<path stroke="#9d7c53" vector-effect="non-scaling-stroke" d="
  M 49.31 191.50
  Q 48.93 191.59 48.87 191.94
  A 0.32 0.31 -82.4 0 0 49.15 192.31
  C 53.08 192.72 56.77 193.37 60.84 193.64
  Q 88.41 195.49 118.59 197.29
  Q 128.16 197.86 137.31 199.00
  C 154.99 201.20 175.53 200.94 190.24 202.45
  Q 201.33 203.59 212.25 204.44
  Q 232.79 206.03 253.25 207.37"
/>
<path stroke="#d5b38e" vector-effect="non-scaling-stroke" d="
  M 253.25 207.37
  Q 273.84 207.84 293.52 206.46
  A 2.41 2.41 0.0 0 0 295.74 204.43
  C 296.07 202.44 296.40 200.37 296.39 198.38
  Q 296.32 188.17 297.00 177.98"
/>
<path stroke="#e2c5a3" vector-effect="non-scaling-stroke" d="
  M 55.13 219.00
  Q 55.69 217.98 55.11 216.80
  C 54.72 216.02 54.23 215.94 53.68 215.39
  Q 53.32 215.05 53.37 214.55
  Q 53.42 213.94 52.85 213.63
  Q 52.43 213.41 52.20 212.99
  Q 51.51 211.71 50.70 210.45
  Q 48.20 206.61 47.61 202.34
  Q 47.35 200.48 46.83 198.63
  Q 46.31 196.77 45.97 194.84
  A 1.48 1.48 0.0 0 0 44.50 193.61
  C 42.48 193.63 40.51 193.55 38.52 193.83
  Q 19.30 196.52 0.00 198.49"
/>
<path stroke="#9d7c53" vector-effect="non-scaling-stroke" d="
  M 33.28 105.54
  C 22.42 102.21 11.72 100.30 0.69 96.38
  Q 0.31 96.24 0.34 96.65
  L 0.40 97.23
  A 0.43 0.43 0.0 0 0 0.72 97.62
  C 5.68 98.95 10.46 100.81 15.50 102.18
  Q 22.56 104.11 30.60 106.10
  Q 33.95 106.92 37.45 107.34
  Q 40.68 107.72 44.26 108.95
  Q 44.71 109.10 44.89 108.66
  Q 44.96 108.49 44.91 108.34
  Q 44.71 107.77 44.11 107.75
  Q 39.42 107.61 37.06 105.05
  Q 36.37 104.29 35.39 104.72
  Q 34.99 104.89 34.67 105.20
  Q 34.08 105.79 33.28 105.54"
/>
<path stroke="#dac8b6" vector-effect="non-scaling-stroke" d="
  M 214.01 0.00
  Q 212.71 0.17 212.64 0.75
  Q 212.05 6.08 212.00 15.89"
/>
<path stroke="#d9ba99" vector-effect="non-scaling-stroke" d="
  M 212.00 15.89
  L 123.46 10.75"
/>
<path stroke="#dac8b6" vector-effect="non-scaling-stroke" d="
  M 297.00 160.36
  L 296.69 161.53
  Q 296.50 162.26 295.93 161.77
  Q 295.76 161.64 295.55 161.59
  Q 295.03 161.47 294.46 161.51
  Q 290.80 161.71 288.15 162.17
  Q 280.17 163.56 271.50 164.77
  Q 269.15 165.10 267.03 164.99
  A 0.90 0.90 0.0 0 1 266.31 163.62
  Q 266.88 162.66 267.08 161.48"
/>
<path stroke="#ddd1c3" vector-effect="non-scaling-stroke" d="
  M 267.08 161.48
  C 267.76 158.11 268.53 154.98 268.68 151.51
  Q 270.69 102.36 272.69 53.38
  C 273.05 44.64 273.02 36.12 273.60 27.49
  C 273.74 25.47 273.63 20.98 272.01 19.71"
/>
<path stroke="#e7dacb" vector-effect="non-scaling-stroke" d="
  M 272.01 19.71
  L 271.37 19.40
  A 0.90 0.77 56.5 0 0 271.02 19.30
  L 212.00 15.89"
/>
<path stroke="#dcc3a6" vector-effect="non-scaling-stroke" d="
  M 272.01 19.71
  Q 270.89 19.63 270.66 20.14
  Q 270.57 20.35 270.84 21.04
  Q 271.05 21.55 270.85 22.07
  C 269.72 25.04 268.52 27.98 267.76 31.09
  Q 265.04 42.28 262.38 53.38
  Q 261.08 58.80 260.40 64.36
  Q 260.34 64.87 259.88 65.09
  L 259.08 65.48"
/>
<path stroke="#d4b593" vector-effect="non-scaling-stroke" d="
  M 259.08 65.48
  Q 246.75 66.40 234.58 65.43
  Q 222.01 64.43 221.89 64.42
  Q 192.59 62.69 163.29 60.91
  C 159.21 60.66 154.96 61.50 151.02 60.51
  Q 147.01 59.51 142.08 59.10
  C 141.06 59.01 140.18 59.39 139.24 59.35
  Q 101.25 57.77 64.47 55.22
  C 58.77 54.83 53.50 53.87 48.00 52.83"
/>
<path stroke="#ceb090" vector-effect="non-scaling-stroke" d="
  M 267.08 161.48
  Q 266.60 159.80 266.40 158.07
  Q 266.29 157.08 265.83 156.54
  Q 265.50 156.15 265.03 156.35
  Q 264.16 156.73 263.95 155.81
  Q 263.26 152.72 262.47 149.72
  Q 262.34 149.24 262.01 149.61
  Q 261.74 149.93 260.88 148.75
  Q 260.62 148.38 260.38 148.00
  Q 259.30 146.22 257.91 144.47
  Q 257.84 144.37 257.78 144.47
  Q 257.75 144.52 257.70 144.53
  Q 257.46 144.55 257.44 144.31
  Q 256.50 133.49 256.84 124.49
  Q 257.12 116.89 257.21 109.29"
/>
<path stroke="#caac8a" vector-effect="non-scaling-stroke" d="
  M 257.21 109.29
  Q 257.85 89.24 258.53 69.19
  Q 258.56 68.33 259.01 67.42
  Q 259.94 65.54 259.08 65.48"
/>
<path stroke="#c7a37d" vector-effect="non-scaling-stroke" d="
  M 257.21 109.29
  Q 256.37 139.23 255.79 149.00
  Q 255.15 159.76 255.30 166.66
  C 255.37 170.01 254.94 173.35 255.17 176.61
  Q 256.20 191.30 253.83 204.12
  A 1.12 1.11 -82.8 0 0 254.84 205.43
  Q 255.48 205.47 255.96 205.18
  Q 256.76 204.71 256.38 205.56
  Q 255.82 206.80 253.51 206.33"
/>
<path stroke="#8f6c42" vector-effect="non-scaling-stroke" d="
  M 253.51 206.33
  Q 243.92 204.85 231.50 204.19
  C 224.15 203.80 215.53 202.69 208.01 202.26
  Q 179.79 200.66 169.12 199.89
  Q 167.48 199.77 166.20 198.43
  Q 165.86 198.07 165.36 198.08
  Q 164.94 198.09 164.62 198.41
  Q 164.28 198.73 163.83 198.85
  Q 162.50 199.17 161.00 199.09
  Q 137.87 197.79 116.99 196.01
  Q 91.61 193.85 64.56 192.09
  C 59.52 191.77 54.37 191.78 49.31 191.50"
/>
<path stroke="#8f6c42" vector-effect="non-scaling-stroke" d="
  M 147.46 69.28
  Q 148.52 69.58 149.61 69.64
  Q 150.69 69.70 149.68 69.32
  Q 145.09 67.62 142.39 62.78
  Q 142.09 62.23 141.48 62.36
  L 141.21 62.41
  A 0.38 0.37 -15.3 0 0 140.93 62.89
  Q 142.60 67.90 147.46 69.28"
/>
<path stroke="#7e98a7" vector-effect="non-scaling-stroke" d="
  M 100.17 96.53
  Q 96.80 98.45 93.50 101.73
  Q 90.85 104.37 91.39 107.79
  Q 91.63 109.35 93.06 110.00
  L 93.70 110.29
  Q 95.41 111.06 95.02 109.23
  Q 94.21 105.40 96.38 102.64
  Q 100.74 97.10 108.00 96.95"
/>
<path stroke="#caac8a" vector-effect="non-scaling-stroke" d="
  M 108.00 96.95
  Q 110.11 97.68 111.98 97.19"
/>
<path stroke="#7e98a7" vector-effect="non-scaling-stroke" d="
  M 111.98 97.19
  Q 115.15 97.76 116.15 98.60
  Q 122.71 104.10 121.55 112.61
  Q 120.35 121.47 115.28 130.00
  C 111.12 137.01 104.79 141.73 96.46 142.08
  A 1.68 1.68 0.0 0 1 94.77 139.93
  Q 96.20 135.03 97.59 130.06
  Q 101.25 116.96 106.03 106.04
  C 106.82 104.21 106.88 102.42 107.60 100.61
  Q 107.81 100.07 107.28 99.83
  C 102.85 97.86 100.10 104.98 99.10 107.96
  Q 94.17 122.75 90.14 139.01
  Q 89.75 140.60 90.37 141.96
  A 1.27 1.27 0.0 0 0 91.05 142.61
  Q 98.49 145.58 105.79 142.15
  Q 109.78 140.27 114.25 137.73
  C 120.67 134.08 125.16 125.04 126.90 118.52
  C 129.48 108.88 125.86 95.36 114.02 94.40"
/>
<path stroke="#caac8a" vector-effect="non-scaling-stroke" d="
  M 114.02 94.40
  Q 111.10 93.94 108.11 93.72
  Q 106.01 93.56 104.08 94.52
  Q 102.14 95.48 100.17 96.53"
/>
<path stroke="#85a5ba" vector-effect="non-scaling-stroke" d="
  M 114.02 94.40
  Q 107.21 93.84 100.17 96.53"
/>
<path stroke="#85a5ba" vector-effect="non-scaling-stroke" d="
  M 111.98 97.19
  Q 110.25 96.59 108.00 96.95"
/>
<path stroke="#7e98a7" vector-effect="non-scaling-stroke" d="
  M 154.28 125.64
  Q 151.61 133.30 152.52 125.24
  Q 153.59 115.85 153.21 105.85
  Q 153.09 102.77 152.15 99.55
  C 150.58 94.16 145.57 93.28 140.99 95.42
  C 135.73 97.88 130.14 104.08 135.78 109.71
  Q 137.65 111.59 137.49 108.94
  Q 137.29 105.46 139.06 101.42
  C 139.82 99.71 142.70 96.96 145.00 97.50
  A 1.74 1.74 0.0 0 1 146.19 99.90
  C 144.17 104.38 142.37 109.34 140.34 113.59
  Q 137.08 120.38 133.91 126.95
  C 131.27 132.42 129.88 138.31 126.64 143.30
  Q 126.20 143.98 127.01 143.96
  Q 128.32 143.92 129.05 142.98
  Q 132.94 137.96 135.88 131.48
  Q 141.64 118.77 146.58 105.07
  A 0.30 0.30 0.0 0 1 147.13 105.03
  Q 148.15 106.92 147.96 109.11
  Q 146.93 120.87 147.34 134.37
  Q 147.47 138.50 151.23 138.98
  Q 152.07 139.09 152.36 138.29
  C 153.69 134.64 154.62 130.69 156.20 127.21
  Q 159.93 119.02 164.71 110.64
  A 0.59 0.59 0.0 0 1 165.76 110.68
  Q 166.06 111.32 165.90 112.01
  Q 163.23 123.09 162.31 133.83
  Q 162.05 136.93 162.53 140.06
  A 4.23 4.22 -81.0 0 0 164.80 143.19
  L 165.91 143.75
  Q 167.92 144.77 167.67 142.53
  Q 166.86 135.33 167.86 129.01
  Q 168.46 125.16 170.71 113.17
  C 171.78 107.43 173.25 102.47 175.11 97.25
  Q 176.19 94.22 173.00 94.69
  Q 172.47 94.76 171.98 95.03
  Q 169.04 96.62 167.64 99.48
  Q 163.40 108.13 158.68 116.12
  Q 157.42 118.26 156.33 120.60
  Q 155.13 123.19 154.28 125.64"
/>
<path stroke="#7e98a7" vector-effect="non-scaling-stroke" d="
  M 194.70 102.34
  C 197.22 100.03 201.10 96.24 204.66 97.33
  C 209.72 98.88 204.76 105.82 202.94 108.37
  Q 201.58 110.27 203.81 110.98
  Q 203.99 111.03 204.18 111.03
  Q 206.55 110.98 207.93 108.97
  Q 210.57 105.09 210.51 101.48
  C 210.42 95.60 205.35 93.60 200.26 94.61
  Q 196.81 95.29 194.57 96.77
  Q 179.90 106.45 177.48 125.05
  C 176.56 132.12 177.64 139.99 185.00 142.96
  C 190.63 145.24 195.87 143.22 199.99 139.24
  A 0.61 0.61 0.0 0 1 201.00 139.50
  C 201.49 141.20 202.45 143.93 204.56 144.03
  Q 205.29 144.06 205.16 143.35
  Q 204.54 139.93 205.10 137.08
  Q 206.41 130.46 208.67 123.81
  A 2.01 2.01 0.0 0 0 207.45 121.26
  L 200.03 118.58
  Q 197.79 117.77 195.79 119.08
  Q 194.55 119.89 193.64 121.06
  Q 192.34 122.73 194.45 122.92
  L 202.80 123.66
  Q 203.42 123.71 203.35 124.32
  Q 203.23 125.46 202.73 126.51
  Q 202.50 127.00 202.48 127.55
  Q 202.27 134.62 195.97 139.36
  Q 191.96 142.39 188.24 139.85
  C 182.05 135.61 182.57 126.24 184.74 119.85
  Q 186.97 113.29 190.99 106.85
  Q 192.62 104.25 194.70 102.34"
/>
<path stroke="#937148" vector-effect="non-scaling-stroke" d="
  M 253.25 207.37
  L 253.75 206.88
  Q 253.93 206.70 253.76 206.51
  Q 253.68 206.41 253.51 206.33"
/>
</g>
<path fill="#c29e77" d="
  M 48.00 52.83
  C 53.50 53.87 58.77 54.83 64.47 55.22
  Q 101.25 57.77 139.24 59.35
  C 140.18 59.39 141.06 59.01 142.08 59.10
  Q 147.01 59.51 151.02 60.51
  C 154.96 61.50 159.21 60.66 163.29 60.91
  Q 192.59 62.69 221.89 64.42
  Q 222.01 64.43 234.58 65.43
  Q 246.75 66.40 259.08 65.48
  Q 259.94 65.54 259.01 67.42
  Q 258.56 68.33 258.53 69.19
  Q 257.85 89.24 257.21 109.29
  Q 256.37 139.23 255.79 149.00
  Q 255.15 159.76 255.30 166.66
  C 255.37 170.01 254.94 173.35 255.17 176.61
  Q 256.20 191.30 253.83 204.12
  A 1.12 1.11 -82.8 0 0 254.84 205.43
  Q 255.48 205.47 255.96 205.18
  Q 256.76 204.71 256.38 205.56
  Q 255.82 206.80 253.51 206.33
  Q 243.92 204.85 231.50 204.19
  C 224.15 203.80 215.53 202.69 208.01 202.26
  Q 179.79 200.66 169.12 199.89
  Q 167.48 199.77 166.20 198.43
  Q 165.86 198.07 165.36 198.08
  Q 164.94 198.09 164.62 198.41
  Q 164.28 198.73 163.83 198.85
  Q 162.50 199.17 161.00 199.09
  Q 137.87 197.79 116.99 196.01
  Q 91.61 193.85 64.56 192.09
  C 59.52 191.77 54.37 191.78 49.31 191.50
  Q 49.27 190.45 49.07 189.41
  Q 48.85 188.21 48.88 187.34
  Q 49.20 175.61 48.69 164.05
  Q 48.38 156.87 48.34 150.42
  C 48.29 142.64 48.01 134.96 48.35 127.23
  Q 48.58 122.24 48.29 117.67
  Q 47.94 111.81 47.86 105.34
  C 47.71 92.09 47.07 78.37 47.06 65.30
  C 47.06 62.19 47.54 59.27 47.27 55.97
  Q 47.16 54.62 46.34 53.89
  Q 46.02 53.61 46.26 53.27
  Q 46.65 52.72 48.00 52.83
  Z
  M 147.46 69.28
  Q 148.52 69.58 149.61 69.64
  Q 150.69 69.70 149.68 69.32
  Q 145.09 67.62 142.39 62.78
  Q 142.09 62.23 141.48 62.36
  L 141.21 62.41
  A 0.38 0.37 -15.3 0 0 140.93 62.89
  Q 142.60 67.90 147.46 69.28
  Z
  M 100.17 96.53
  Q 96.80 98.45 93.50 101.73
  Q 90.85 104.37 91.39 107.79
  Q 91.63 109.35 93.06 110.00
  L 93.70 110.29
  Q 95.41 111.06 95.02 109.23
  Q 94.21 105.40 96.38 102.64
  Q 100.74 97.10 108.00 96.95
  Q 110.11 97.68 111.98 97.19
  Q 115.15 97.76 116.15 98.60
  Q 122.71 104.10 121.55 112.61
  Q 120.35 121.47 115.28 130.00
  C 111.12 137.01 104.79 141.73 96.46 142.08
  A 1.68 1.68 0.0 0 1 94.77 139.93
  Q 96.20 135.03 97.59 130.06
  Q 101.25 116.96 106.03 106.04
  C 106.82 104.21 106.88 102.42 107.60 100.61
  Q 107.81 100.07 107.28 99.83
  C 102.85 97.86 100.10 104.98 99.10 107.96
  Q 94.17 122.75 90.14 139.01
  Q 89.75 140.60 90.37 141.96
  A 1.27 1.27 0.0 0 0 91.05 142.61
  Q 98.49 145.58 105.79 142.15
  Q 109.78 140.27 114.25 137.73
  C 120.67 134.08 125.16 125.04 126.90 118.52
  C 129.48 108.88 125.86 95.36 114.02 94.40
  Q 111.10 93.94 108.11 93.72
  Q 106.01 93.56 104.08 94.52
  Q 102.14 95.48 100.17 96.53
  Z
  M 154.28 125.64
  Q 151.61 133.30 152.52 125.24
  Q 153.59 115.85 153.21 105.85
  Q 153.09 102.77 152.15 99.55
  C 150.58 94.16 145.57 93.28 140.99 95.42
  C 135.73 97.88 130.14 104.08 135.78 109.71
  Q 137.65 111.59 137.49 108.94
  Q 137.29 105.46 139.06 101.42
  C 139.82 99.71 142.70 96.96 145.00 97.50
  A 1.74 1.74 0.0 0 1 146.19 99.90
  C 144.17 104.38 142.37 109.34 140.34 113.59
  Q 137.08 120.38 133.91 126.95
  C 131.27 132.42 129.88 138.31 126.64 143.30
  Q 126.20 143.98 127.01 143.96
  Q 128.32 143.92 129.05 142.98
  Q 132.94 137.96 135.88 131.48
  Q 141.64 118.77 146.58 105.07
  A 0.30 0.30 0.0 0 1 147.13 105.03
  Q 148.15 106.92 147.96 109.11
  Q 146.93 120.87 147.34 134.37
  Q 147.47 138.50 151.23 138.98
  Q 152.07 139.09 152.36 138.29
  C 153.69 134.64 154.62 130.69 156.20 127.21
  Q 159.93 119.02 164.71 110.64
  A 0.59 0.59 0.0 0 1 165.76 110.68
  Q 166.06 111.32 165.90 112.01
  Q 163.23 123.09 162.31 133.83
  Q 162.05 136.93 162.53 140.06
  A 4.23 4.22 -81.0 0 0 164.80 143.19
  L 165.91 143.75
  Q 167.92 144.77 167.67 142.53
  Q 166.86 135.33 167.86 129.01
  Q 168.46 125.16 170.71 113.17
  C 171.78 107.43 173.25 102.47 175.11 97.25
  Q 176.19 94.22 173.00 94.69
  Q 172.47 94.76 171.98 95.03
  Q 169.04 96.62 167.64 99.48
  Q 163.40 108.13 158.68 116.12
  Q 157.42 118.26 156.33 120.60
  Q 155.13 123.19 154.28 125.64
  Z
  M 194.70 102.34
  C 197.22 100.03 201.10 96.24 204.66 97.33
  C 209.72 98.88 204.76 105.82 202.94 108.37
  Q 201.58 110.27 203.81 110.98
  Q 203.99 111.03 204.18 111.03
  Q 206.55 110.98 207.93 108.97
  Q 210.57 105.09 210.51 101.48
  C 210.42 95.60 205.35 93.60 200.26 94.61
  Q 196.81 95.29 194.57 96.77
  Q 179.90 106.45 177.48 125.05
  C 176.56 132.12 177.64 139.99 185.00 142.96
  C 190.63 145.24 195.87 143.22 199.99 139.24
  A 0.61 0.61 0.0 0 1 201.00 139.50
  C 201.49 141.20 202.45 143.93 204.56 144.03
  Q 205.29 144.06 205.16 143.35
  Q 204.54 139.93 205.10 137.08
  Q 206.41 130.46 208.67 123.81
  A 2.01 2.01 0.0 0 0 207.45 121.26
  L 200.03 118.58
  Q 197.79 117.77 195.79 119.08
  Q 194.55 119.89 193.64 121.06
  Q 192.34 122.73 194.45 122.92
  L 202.80 123.66
  Q 203.42 123.71 203.35 124.32
  Q 203.23 125.46 202.73 126.51
  Q 202.50 127.00 202.48 127.55
  Q 202.27 134.62 195.97 139.36
  Q 191.96 142.39 188.24 139.85
  C 182.05 135.61 182.57 126.24 184.74 119.85
  Q 186.97 113.29 190.99 106.85
  Q 192.62 104.25 194.70 102.34
  Z"
/>
<path fill="#e8e8e8" d="
  M 214.01 0.00
  L 297.00 0.00
  L 297.00 160.36
  L 296.69 161.53
  Q 296.50 162.26 295.93 161.77
  Q 295.76 161.64 295.55 161.59
  Q 295.03 161.47 294.46 161.51
  Q 290.80 161.71 288.15 162.17
  Q 280.17 163.56 271.50 164.77
  Q 269.15 165.10 267.03 164.99
  A 0.90 0.90 0.0 0 1 266.31 163.62
  Q 266.88 162.66 267.08 161.48
  C 267.76 158.11 268.53 154.98 268.68 151.51
  Q 270.69 102.36 272.69 53.38
  C 273.05 44.64 273.02 36.12 273.60 27.49
  C 273.74 25.47 273.63 20.98 272.01 19.71
  L 271.37 19.40
  A 0.90 0.77 56.5 0 0 271.02 19.30
  L 212.00 15.89
  Q 212.05 6.08 212.64 0.75
  Q 212.71 0.17 214.01 0.00
  Z"
/>
<path fill="#debe98" d="
  M 0.00 0.00
  L 127.50 0.00
  L 124.14 0.25
  Q 123.52 0.30 123.46 0.92
  L 122.84 7.81
  Q 122.79 8.36 122.54 8.85
  Q 121.78 10.27 123.46 10.75
  L 102.75 10.06
  Q 102.69 10.06 102.64 10.10
  L 102.36 10.38
  A 0.97 0.97 0.0 0 1 101.56 10.67
  Q 99.26 10.47 96.82 10.41
  Q 94.58 10.35 92.19 9.88
  Q 86.56 8.78 79.95 8.81
  Q 77.83 8.81 71.64 8.21
  Q 66.39 7.69 63.13 12.37
  Q 61.16 15.20 59.89 17.86
  Q 54.21 29.84 49.02 41.73
  Q 47.18 45.94 45.35 50.46
  A 1.52 1.52 0.0 0 0 46.05 52.37
  Q 46.75 52.74 48.00 52.83
  Q 46.65 52.72 46.26 53.27
  Q 46.02 53.61 46.34 53.89
  Q 47.16 54.62 47.27 55.97
  C 47.54 59.27 47.06 62.19 47.06 65.30
  C 47.07 78.37 47.71 92.09 47.86 105.34
  Q 47.94 111.81 48.29 117.67
  Q 48.58 122.24 48.35 127.23
  C 48.01 134.96 48.29 142.64 48.34 150.42
  Q 48.38 156.87 48.69 164.05
  Q 49.20 175.61 48.88 187.34
  Q 48.85 188.21 49.07 189.41
  Q 49.27 190.45 49.31 191.50
  Q 48.93 191.59 48.87 191.94
  A 0.32 0.31 -82.4 0 0 49.15 192.31
  C 53.08 192.72 56.77 193.37 60.84 193.64
  Q 88.41 195.49 118.59 197.29
  Q 128.16 197.86 137.31 199.00
  C 154.99 201.20 175.53 200.94 190.24 202.45
  Q 201.33 203.59 212.25 204.44
  Q 232.79 206.03 253.25 207.37
  Q 273.84 207.84 293.52 206.46
  A 2.41 2.41 0.0 0 0 295.74 204.43
  C 296.07 202.44 296.40 200.37 296.39 198.38
  Q 296.32 188.17 297.00 177.98
  L 297.00 219.00
  L 55.13 219.00
  Q 55.69 217.98 55.11 216.80
  C 54.72 216.02 54.23 215.94 53.68 215.39
  Q 53.32 215.05 53.37 214.55
  Q 53.42 213.94 52.85 213.63
  Q 52.43 213.41 52.20 212.99
  Q 51.51 211.71 50.70 210.45
  Q 48.20 206.61 47.61 202.34
  Q 47.35 200.48 46.83 198.63
  Q 46.31 196.77 45.97 194.84
  A 1.48 1.48 0.0 0 0 44.50 193.61
  C 42.48 193.63 40.51 193.55 38.52 193.83
  Q 19.30 196.52 0.00 198.49
  L 0.00 0.00
  Z
  M 33.28 105.54
  C 22.42 102.21 11.72 100.30 0.69 96.38
  Q 0.31 96.24 0.34 96.65
  L 0.40 97.23
  A 0.43 0.43 0.0 0 0 0.72 97.62
  C 5.68 98.95 10.46 100.81 15.50 102.18
  Q 22.56 104.11 30.60 106.10
  Q 33.95 106.92 37.45 107.34
  Q 40.68 107.72 44.26 108.95
  Q 44.71 109.10 44.89 108.66
  Q 44.96 108.49 44.91 108.34
  Q 44.71 107.77 44.11 107.75
  Q 39.42 107.61 37.06 105.05
  Q 36.37 104.29 35.39 104.72
  Q 34.99 104.89 34.67 105.20
  Q 34.08 105.79 33.28 105.54
  Z"
/>
<g fill="#3991d7">
<path d="
  M 114.02 94.40
  C 125.86 95.36 129.48 108.88 126.90 118.52
  C 125.16 125.04 120.67 134.08 114.25 137.73
  Q 109.78 140.27 105.79 142.15
  Q 98.49 145.58 91.05 142.61
  A 1.27 1.27 0.0 0 1 90.37 141.96
  Q 89.75 140.60 90.14 139.01
  Q 94.17 122.75 99.10 107.96
  C 100.10 104.98 102.85 97.86 107.28 99.83
  Q 107.81 100.07 107.60 100.61
  C 106.88 102.42 106.82 104.21 106.03 106.04
  Q 101.25 116.96 97.59 130.06
  Q 96.20 135.03 94.77 139.93
  A 1.68 1.68 0.0 0 0 96.46 142.08
  C 104.79 141.73 111.12 137.01 115.28 130.00
  Q 120.35 121.47 121.55 112.61
  Q 122.71 104.10 116.15 98.60
  Q 115.15 97.76 111.98 97.19
  Q 110.25 96.59 108.00 96.95
  Q 100.74 97.10 96.38 102.64
  Q 94.21 105.40 95.02 109.23
  Q 95.41 111.06 93.70 110.29
  L 93.06 110.00
  Q 91.63 109.35 91.39 107.79
  Q 90.85 104.37 93.50 101.73
  Q 96.80 98.45 100.17 96.53
  Q 107.21 93.84 114.02 94.40
  Z"
/>
<path d="
  M 154.28 125.64
  Q 155.13 123.19 156.33 120.60
  Q 157.42 118.26 158.68 116.12
  Q 163.40 108.13 167.64 99.48
  Q 169.04 96.62 171.98 95.03
  Q 172.47 94.76 173.00 94.69
  Q 176.19 94.22 175.11 97.25
  C 173.25 102.47 171.78 107.43 170.71 113.17
  Q 168.46 125.16 167.86 129.01
  Q 166.86 135.33 167.67 142.53
  Q 167.92 144.77 165.91 143.75
  L 164.80 143.19
  A 4.23 4.22 -81.0 0 1 162.53 140.06
  Q 162.05 136.93 162.31 133.83
  Q 163.23 123.09 165.90 112.01
  Q 166.06 111.32 165.76 110.68
  A 0.59 0.59 0.0 0 0 164.71 110.64
  Q 159.93 119.02 156.20 127.21
  C 154.62 130.69 153.69 134.64 152.36 138.29
  Q 152.07 139.09 151.23 138.98
  Q 147.47 138.50 147.34 134.37
  Q 146.93 120.87 147.96 109.11
  Q 148.15 106.92 147.13 105.03
  A 0.30 0.30 0.0 0 0 146.58 105.07
  Q 141.64 118.77 135.88 131.48
  Q 132.94 137.96 129.05 142.98
  Q 128.32 143.92 127.01 143.96
  Q 126.20 143.98 126.64 143.30
  C 129.88 138.31 131.27 132.42 133.91 126.95
  Q 137.08 120.38 140.34 113.59
  C 142.37 109.34 144.17 104.38 146.19 99.90
  A 1.74 1.74 0.0 0 0 145.00 97.50
  C 142.70 96.96 139.82 99.71 139.06 101.42
  Q 137.29 105.46 137.49 108.94
  Q 137.65 111.59 135.78 109.71
  C 130.14 104.08 135.73 97.88 140.99 95.42
  C 145.57 93.28 150.58 94.16 152.15 99.55
  Q 153.09 102.77 153.21 105.85
  Q 153.59 115.85 152.52 125.24
  Q 151.61 133.30 154.28 125.64
  Z"
/>
<path d="
  M 190.99 106.85
  Q 186.97 113.29 184.74 119.85
  C 182.57 126.24 182.05 135.61 188.24 139.85
  Q 191.96 142.39 195.97 139.36
  Q 202.27 134.62 202.48 127.55
  Q 202.50 127.00 202.73 126.51
  Q 203.23 125.46 203.35 124.32
  Q 203.42 123.71 202.80 123.66
  L 194.45 122.92
  Q 192.34 122.73 193.64 121.06
  Q 194.55 119.89 195.79 119.08
  Q 197.79 117.77 200.03 118.58
  L 207.45 121.26
  A 2.01 2.01 0.0 0 1 208.67 123.81
  Q 206.41 130.46 205.10 137.08
  Q 204.54 139.93 205.16 143.35
  Q 205.29 144.06 204.56 144.03
  C 202.45 143.93 201.49 141.20 201.00 139.50
  A 0.61 0.61 0.0 0 0 199.99 139.24
  C 195.87 143.22 190.63 145.24 185.00 142.96
  C 177.64 139.99 176.56 132.12 177.48 125.05
  Q 179.90 106.45 194.57 96.77
  Q 196.81 95.29 200.26 94.61
  C 205.35 93.60 210.42 95.60 210.51 101.48
  Q 210.57 105.09 207.93 108.97
  Q 206.55 110.98 204.18 111.03
  Q 203.99 111.03 203.81 110.98
  Q 201.58 110.27 202.94 108.37
  C 204.76 105.82 209.72 98.88 204.66 97.33
  C 201.10 96.24 197.22 100.03 194.70 102.34
  Q 192.62 104.25 190.99 106.85
  Z"
/>
</g>
<g fill="#5b3a0d">
<path d="
  M 147.46 69.28
  Q 142.60 67.90 140.93 62.89
  A 0.38 0.37 -15.3 0 1 141.21 62.41
  L 141.48 62.36
  Q 142.09 62.23 142.39 62.78
  Q 145.09 67.62 149.68 69.32
  Q 150.69 69.70 149.61 69.64
  Q 148.52 69.58 147.46 69.28
  Z"
/>
<path d="
  M 34.67 105.20
  Q 34.99 104.89 35.39 104.72
  Q 36.37 104.29 37.06 105.05
  Q 39.42 107.61 44.11 107.75
  Q 44.71 107.77 44.91 108.34
  Q 44.96 108.49 44.89 108.66
  Q 44.71 109.10 44.26 108.95
  Q 40.68 107.72 37.45 107.34
  Q 33.95 106.92 30.60 106.10
  Q 22.56 104.11 15.50 102.18
  C 10.46 100.81 5.68 98.95 0.72 97.62
  A 0.43 0.43 0.0 0 1 0.40 97.23
  L 0.34 96.65
  Q 0.31 96.24 0.69 96.38
  C 11.72 100.30 22.42 102.21 33.28 105.54
  Q 34.08 105.79 34.67 105.20
  Z"
/>
<path d="
  M 49.31 191.50
  C 54.37 191.78 59.52 191.77 64.56 192.09
  Q 91.61 193.85 116.99 196.01
  Q 137.87 197.79 161.00 199.09
  Q 162.50 199.17 163.83 198.85
  Q 164.28 198.73 164.62 198.41
  Q 164.94 198.09 165.36 198.08
  Q 165.86 198.07 166.20 198.43
  Q 167.48 199.77 169.12 199.89
  Q 179.79 200.66 208.01 202.26
  C 215.53 202.69 224.15 203.80 231.50 204.19
  Q 243.92 204.85 253.51 206.33
  Q 253.68 206.41 253.76 206.51
  Q 253.93 206.70 253.75 206.88
  L 253.25 207.37
  Q 232.79 206.03 212.25 204.44
  Q 201.33 203.59 190.24 202.45
  C 175.53 200.94 154.99 201.20 137.31 199.00
  Q 128.16 197.86 118.59 197.29
  Q 88.41 195.49 60.84 193.64
  C 56.77 193.37 53.08 192.72 49.15 192.31
  A 0.32 0.31 -82.4 0 1 48.87 191.94
  Q 48.93 191.59 49.31 191.50
  Z"
/>
</g>
<g fill="#e6ccae">
<path d="
  M 123.46 10.75
  L 212.00 15.89
  L 271.02 19.30
  A 0.90 0.77 56.5 0 1 271.37 19.40
  L 272.01 19.71
  Q 270.89 19.63 270.66 20.14
  Q 270.57 20.35 270.84 21.04
  Q 271.05 21.55 270.85 22.07
  C 269.72 25.04 268.52 27.98 267.76 31.09
  Q 265.04 42.28 262.38 53.38
  Q 261.08 58.80 260.40 64.36
  Q 260.34 64.87 259.88 65.09
  L 259.08 65.48
  Q 246.75 66.40 234.58 65.43
  Q 222.01 64.43 221.89 64.42
  Q 192.59 62.69 163.29 60.91
  C 159.21 60.66 154.96 61.50 151.02 60.51
  Q 147.01 59.51 142.08 59.10
  C 141.06 59.01 140.18 59.39 139.24 59.35
  Q 101.25 57.77 64.47 55.22
  C 58.77 54.83 53.50 53.87 48.00 52.83
  Q 46.75 52.74 46.05 52.37
  A 1.52 1.52 0.0 0 1 45.35 50.46
  Q 47.18 45.94 49.02 41.73
  Q 54.21 29.84 59.89 17.86
  Q 61.16 15.20 63.13 12.37
  Q 66.39 7.69 71.64 8.21
  Q 77.83 8.81 79.95 8.81
  Q 86.56 8.78 92.19 9.88
  Q 94.58 10.35 96.82 10.41
  Q 99.26 10.47 101.56 10.67
  A 0.97 0.97 0.0 0 0 102.36 10.38
  L 102.64 10.10
  Q 102.69 10.06 102.75 10.06
  L 123.46 10.75
  Z"
/>
<path d="
  M 55.13 219.00
  L 0.00 219.00
  L 0.00 198.49
  Q 19.30 196.52 38.52 193.83
  C 40.51 193.55 42.48 193.63 44.50 193.61
  A 1.48 1.48 0.0 0 1 45.97 194.84
  Q 46.31 196.77 46.83 198.63
  Q 47.35 200.48 47.61 202.34
  Q 48.20 206.61 50.70 210.45
  Q 51.51 211.71 52.20 212.99
  Q 52.43 213.41 52.85 213.63
  Q 53.42 213.94 53.37 214.55
  Q 53.32 215.05 53.68 215.39
  C 54.23 215.94 54.72 216.02 55.11 216.80
  Q 55.69 217.98 55.13 219.00
  Z"
/>
</g>
<g fill="#d1b99d">
<path d="
  M 272.01 19.71
  C 273.63 20.98 273.74 25.47 273.60 27.49
  C 273.02 36.12 273.05 44.64 272.69 53.38
  Q 270.69 102.36 268.68 151.51
  C 268.53 154.98 267.76 158.11 267.08 161.48
  Q 266.60 159.80 266.40 158.07
  Q 266.29 157.08 265.83 156.54
  Q 265.50 156.15 265.03 156.35
  Q 264.16 156.73 263.95 155.81
  Q 263.26 152.72 262.47 149.72
  Q 262.34 149.24 262.01 149.61
  Q 261.74 149.93 260.88 148.75
  Q 260.62 148.38 260.38 148.00
  Q 259.30 146.22 257.91 144.47
  Q 257.84 144.37 257.78 144.47
  Q 257.75 144.52 257.70 144.53
  Q 257.46 144.55 257.44 144.31
  Q 256.50 133.49 256.84 124.49
  Q 257.12 116.89 257.21 109.29
  Q 257.85 89.24 258.53 69.19
  Q 258.56 68.33 259.01 67.42
  Q 259.94 65.54 259.08 65.48
  L 259.88 65.09
  Q 260.34 64.87 260.40 64.36
  Q 261.08 58.80 262.38 53.38
  Q 265.04 42.28 267.76 31.09
  C 268.52 27.98 269.72 25.04 270.85 22.07
  Q 271.05 21.55 270.84 21.04
  Q 270.57 20.35 270.66 20.14
  Q 270.89 19.63 272.01 19.71
  Z"
/>
<path d="
  M 114.02 94.40
  Q 107.21 93.84 100.17 96.53
  Q 102.14 95.48 104.08 94.52
  Q 106.01 93.56 108.11 93.72
  Q 111.10 93.94 114.02 94.40
  Z"
/>
<path d="
  M 111.98 97.19
  Q 110.11 97.68 108.00 96.95
  Q 110.25 96.59 111.98 97.19
  Z"
/>
</g>
<g fill="#cba783">
<path d="
  M 127.50 0.00
  L 214.01 0.00
  Q 212.71 0.17 212.64 0.75
  Q 212.05 6.08 212.00 15.89
  L 123.46 10.75
  Q 121.78 10.27 122.54 8.85
  Q 122.79 8.36 122.84 7.81
  L 123.46 0.92
  Q 123.52 0.30 124.14 0.25
  L 127.50 0.00
  Z"
/>
<path d="
  M 257.21 109.29
  Q 257.12 116.89 256.84 124.49
  Q 256.50 133.49 257.44 144.31
  Q 257.46 144.55 257.70 144.53
  Q 257.75 144.52 257.78 144.47
  Q 257.84 144.37 257.91 144.47
  Q 259.30 146.22 260.38 148.00
  Q 260.62 148.38 260.88 148.75
  Q 261.74 149.93 262.01 149.61
  Q 262.34 149.24 262.47 149.72
  Q 263.26 152.72 263.95 155.81
  Q 264.16 156.73 265.03 156.35
  Q 265.50 156.15 265.83 156.54
  Q 266.29 157.08 266.40 158.07
  Q 266.60 159.80 267.08 161.48
  Q 266.88 162.66 266.31 163.62
  A 0.90 0.90 0.0 0 0 267.03 164.99
  Q 269.15 165.10 271.50 164.77
  Q 280.17 163.56 288.15 162.17
  Q 290.80 161.71 294.46 161.51
  Q 295.03 161.47 295.55 161.59
  Q 295.76 161.64 295.93 161.77
  Q 296.50 162.26 296.69 161.53
  L 297.00 160.36
  L 297.00 177.98
  Q 296.32 188.17 296.39 198.38
  C 296.40 200.37 296.07 202.44 295.74 204.43
  A 2.41 2.41 0.0 0 1 293.52 206.46
  Q 273.84 207.84 253.25 207.37
  L 253.75 206.88
  Q 253.93 206.70 253.76 206.51
  Q 253.68 206.41 253.51 206.33
  Q 255.82 206.80 256.38 205.56
  Q 256.76 204.71 255.96 205.18
  Q 255.48 205.47 254.84 205.43
  A 1.12 1.11 -82.8 0 1 253.83 204.12
  Q 256.20 191.30 255.17 176.61
  C 254.94 173.35 255.37 170.01 255.30 166.66
  Q 255.15 159.76 255.79 149.00
  Q 256.37 139.23 257.21 109.29
  Z"
/>
</g>
</svg>
