<?xml version="1.0" encoding="UTF-8" standalone="no"?>
<!DOCTYPE svg PUBLIC "-//W3C//DTD SVG 1.1//EN" "http://www.w3.org/Graphics/SVG/1.1/DTD/svg11.dtd">
<svg xmlns="http://www.w3.org/2000/svg" version="1.1" viewBox="0.00 0.00 286.00 93.00">
<g stroke-width="2.00" fill="none" stroke-linecap="butt">
<path stroke="#808080" vector-effect="non-scaling-stroke" d="
  M 141.60 46.68
  Q 142.70 46.12 143.85 45.95
  Q 144.64 45.84 144.72 45.04
  Q 144.75 44.76 144.68 44.49
  Q 144.51 43.81 143.81 43.89
  Q 137.30 44.61 130.24 43.80
  Q 129.31 43.69 128.84 44.51
  L 128.63 44.88
  A 0.44 0.44 0.0 0 0 128.88 45.52
  L 131.58 46.31
  A 2.14 2.13 8.0 0 1 133.11 48.33
  L 133.18 56.50
  Q 133.19 57.33 132.41 57.64
  C 124.92 60.63 119.56 55.44 117.59 48.49
  C 114.98 39.28 116.72 22.92 130.96 26.27
  Q 136.07 27.46 137.93 32.95
  Q 138.23 33.85 139.17 33.65
  L 139.54 33.56
  Q 140.44 33.36 140.24 32.46
  L 138.74 25.54
  A 1.83 1.82 87.9 0 0 137.22 24.12
  C 129.36 22.98 121.31 22.39 114.87 27.80
  C 107.49 33.99 105.09 44.83 110.73 52.60
  C 118.09 62.74 130.07 62.36 140.53 57.40
  Q 141.17 57.10 141.07 56.40
  Q 140.50 52.02 140.93 47.66
  Q 140.99 46.99 141.60 46.68"
/>
<path stroke="#808080" vector-effect="non-scaling-stroke" d="
  M 183.73 47.86
  Q 183.44 47.75 183.34 47.48
  Q 178.49 35.24 174.08 24.03
  A 0.65 0.65 0.0 0 0 172.90 23.96
  Q 171.82 26.00 171.07 28.06
  Q 168.14 36.13 164.92 45.39
  Q 164.51 46.58 164.08 45.40
  L 157.62 27.29
  Q 157.36 26.57 158.10 26.35
  L 160.86 25.56
  Q 161.54 25.36 161.49 24.65
  L 161.46 24.31
  Q 161.42 23.73 160.84 23.78
  Q 153.53 24.34 145.99 23.75
  Q 145.09 23.68 145.16 24.57
  L 145.19 24.96
  A 0.85 0.85 0.0 0 0 145.91 25.74
  Q 148.88 26.18 149.99 29.26
  Q 155.74 45.26 161.10 60.36
  A 0.91 0.91 0.0 0 0 162.65 60.65
  Q 163.38 59.78 163.77 58.69
  Q 167.38 48.54 170.81 38.26
  Q 171.11 37.35 171.47 38.24
  L 180.32 60.31
  A 1.10 1.10 0.0 0 0 182.20 60.60
  Q 182.95 59.67 183.34 58.58
  Q 188.49 44.12 193.17 29.80
  Q 194.56 25.57 198.72 25.57
  A 0.55 0.55 0.0 0 0 199.27 24.98
  L 199.24 24.63
  Q 199.18 23.65 198.20 23.75
  Q 191.98 24.37 186.43 23.72
  A 0.62 0.61 5.8 0 0 185.74 24.28
  L 185.71 24.68
  A 0.94 0.93 8.8 0 0 186.44 25.67
  L 189.88 26.45
  A 0.77 0.76 -75.0 0 1 190.44 27.43
  L 184.03 47.71
  A 0.23 0.23 0.0 0 1 183.73 47.86"
/>
<path stroke="#808080" vector-effect="non-scaling-stroke" d="
  M 263.92 26.79
  Q 264.90 27.34 264.21 28.23
  L 257.27 37.09
  A 0.42 0.42 0.0 0 1 256.59 37.06
  L 250.30 27.40
  A 0.77 0.77 0.0 0 1 250.75 26.23
  L 252.95 25.66
  Q 253.56 25.51 253.61 24.88
  Q 253.64 24.45 253.38 24.11
  Q 253.07 23.70 252.56 23.73
  Q 244.73 24.24 237.01 23.66
  A 0.66 0.66 0.0 0 0 236.30 24.29
  L 236.29 24.67
  A 0.95 0.95 0.0 0 0 237.12 25.66
  C 238.93 25.88 240.76 26.35 241.80 28.02
  Q 246.31 35.25 250.99 42.10
  Q 251.31 42.56 250.97 43.00
  Q 246.71 48.71 241.94 55.30
  Q 240.63 57.11 238.81 57.90
  C 236.78 58.78 232.62 59.12 231.58 56.54
  Q 224.82 39.72 218.55 24.28
  A 1.13 1.13 0.0 0 0 216.71 23.91
  Q 215.43 25.20 214.43 27.55
  Q 208.35 41.86 202.21 55.76
  Q 201.26 57.90 198.14 58.63
  A 1.10 1.10 0.0 0 0 197.29 59.70
  L 197.29 60.05
  A 0.47 0.46 -2.8 0 0 197.81 60.51
  Q 203.59 59.93 209.06 60.52
  Q 209.90 60.61 210.11 59.80
  L 210.19 59.50
  A 0.50 0.50 0.0 0 0 209.84 58.89
  L 206.29 57.93
  A 1.31 1.30 -71.5 0 1 205.42 56.17
  L 208.58 48.40
  A 0.72 0.72 0.0 0 1 209.25 47.95
  L 219.47 47.92
  A 1.49 1.48 79.2 0 1 220.87 48.88
  L 223.85 56.71
  A 0.74 0.74 0.0 0 1 223.42 57.67
  L 220.14 58.93
  A 0.78 0.78 0.0 0 0 219.81 60.14
  Q 220.16 60.57 220.75 60.53
  C 224.86 60.24 228.91 60.26 233.07 60.37
  C 238.53 60.50 242.81 60.29 249.28 60.52
  A 0.64 0.63 -83.6 0 0 249.92 60.00
  L 249.97 59.69
  A 0.85 0.85 0.0 0 0 249.19 58.70
  Q 247.05 58.56 245.35 57.61
  A 0.92 0.92 0.0 0 1 245.05 56.27
  L 252.68 45.66
  A 0.39 0.39 0.0 0 1 253.33 45.67
  L 260.66 56.80
  A 0.59 0.59 0.0 0 1 260.42 57.66
  Q 259.02 58.31 257.60 58.84
  Q 257.25 58.98 257.09 59.33
  Q 256.88 59.78 257.14 60.20
  Q 257.41 60.63 257.91 60.60
  Q 266.21 60.15 274.81 60.56
  Q 275.44 60.59 275.43 59.95
  L 275.42 59.58
  Q 275.41 58.74 274.57 58.64
  Q 270.83 58.22 268.74 55.24
  Q 263.89 48.31 258.74 40.46
  Q 258.41 39.95 258.80 39.49
  Q 263.55 33.84 267.77 28.84
  Q 270.10 26.06 273.92 25.63
  A 0.64 0.63 -4.8 0 0 274.48 24.97
  L 274.46 24.57
  A 0.78 0.78 0.0 0 0 273.62 23.82
  Q 267.00 24.29 260.44 23.79
  Q 259.91 23.75 259.83 24.28
  L 259.77 24.67
  Q 259.65 25.46 260.43 25.60
  Q 262.44 25.96 263.92 26.79"
/>
<path stroke="#808080" vector-effect="non-scaling-stroke" d="
  M 18.16 58.00
  L 15.33 58.85
  Q 14.72 59.04 14.69 59.66
  Q 14.68 59.90 14.82 60.13
  Q 15.02 60.45 15.40 60.47
  Q 25.20 60.80 34.00 60.40
  Q 43.76 59.95 49.25 53.36
  C 53.21 48.60 53.85 40.98 51.86 35.38
  C 49.16 27.78 40.63 23.63 32.90 23.78
  Q 24.09 23.96 15.55 23.80
  Q 14.73 23.78 14.70 24.60
  L 14.68 25.00
  A 0.62 0.61 -86.0 0 0 15.23 25.64
  Q 17.19 25.85 18.62 26.72
  Q 19.17 27.05 19.17 27.69
  L 19.20 56.59
  A 1.48 1.47 81.5 0 1 18.16 58.00"
/>
<path stroke="#808080" vector-effect="non-scaling-stroke" d="
  M 80.86 47.00
  L 70.86 24.24
  A 1.00 0.99 -15.6 0 0 69.83 23.66
  Q 64.83 24.29 59.37 23.69
  A 0.90 0.90 0.0 0 0 58.38 24.72
  Q 58.40 24.89 58.48 25.06
  Q 58.75 25.68 59.41 25.79
  Q 60.84 26.03 61.99 26.66
  A 1.13 1.11 15.4 0 1 62.56 27.65
  Q 62.31 40.61 61.43 54.18
  Q 61.34 55.49 60.97 56.81
  Q 60.81 57.37 60.26 57.57
  L 56.47 58.93
  A 0.75 0.73 77.7 0 0 55.98 59.71
  L 56.01 60.00
  A 0.65 0.64 -5.8 0 0 56.72 60.57
  Q 63.05 59.92 69.36 60.55
  A 0.80 0.79 -84.8 0 0 70.24 59.81
  L 70.27 59.45
  Q 70.31 58.87 69.74 58.72
  L 66.50 57.88
  A 2.10 2.09 8.1 0 1 64.93 55.79
  L 65.60 33.51
  Q 65.67 31.23 66.56 33.33
  L 77.82 59.94
  A 1.00 0.99 -36.1 0 0 79.49 60.20
  Q 80.85 58.62 81.69 56.33
  Q 86.11 44.27 90.49 32.34
  Q 90.64 31.93 91.00 31.69
  A 0.24 0.23 -17.6 0 1 91.37 31.88
  Q 91.59 43.61 92.04 55.93
  C 92.13 58.32 89.57 58.47 87.84 58.71
  A 0.62 0.62 0.0 0 0 87.32 59.45
  L 87.39 59.78
  A 1.07 1.06 81.2 0 0 88.53 60.62
  Q 96.05 59.89 103.49 60.58
  A 0.65 0.65 0.0 0 0 104.20 59.95
  L 104.22 59.55
  Q 104.25 58.62 103.32 58.59
  Q 102.02 58.55 100.86 57.98
  Q 100.35 57.72 100.23 57.16
  Q 99.80 55.13 99.71 52.99
  Q 99.16 39.17 98.89 27.32
  A 0.89 0.89 0.0 0 1 99.53 26.44
  L 102.47 25.57
  Q 102.93 25.44 102.83 24.97
  L 102.76 24.62
  Q 102.54 23.62 101.53 23.73
  Q 95.92 24.31 90.65 23.82
  Q 90.00 23.76 89.81 24.37
  Q 86.24 35.66 81.44 47.00
  A 0.32 0.31 44.6 0 1 80.86 47.00"
/>
<path stroke="#808080" vector-effect="non-scaling-stroke" d="
  M 102.16 68.95
  A 1.03 1.03 0.0 0 1 102.93 67.97
  Q 104.27 67.63 105.72 67.95
  A 0.60 0.59 -81.7 0 0 106.44 67.41
  L 106.47 67.06
  A 0.41 0.40 -88.7 0 0 106.06 66.62
  L 102.00 66.69
  A 1.05 1.05 0.0 0 0 100.97 67.75
  L 101.03 75.95
  A 0.46 0.46 0.0 0 0 101.50 76.41
  L 101.84 76.41
  Q 102.41 76.41 102.41 75.83
  L 102.39 72.89
  A 0.70 0.70 0.0 0 1 103.12 72.19
  L 105.46 72.28
  Q 105.95 72.30 105.91 71.81
  L 105.88 71.47
  A 0.61 0.60 -5.1 0 0 105.21 70.92
  L 103.41 71.13
  Q 102.65 71.21 102.40 70.49
  Q 102.14 69.74 102.16 68.95"
/>
<path stroke="#808080" vector-effect="non-scaling-stroke" d="
  M 112.0530 76.6499
  A 5.15 4.57 90.3 0 0 116.6499 71.5239
  A 5.15 4.57 90.3 0 0 112.1070 66.3501
  A 5.15 4.57 90.3 0 0 107.5101 71.4761
  A 5.15 4.57 90.3 0 0 112.0530 76.6499"
/>
<path stroke="#808080" vector-effect="non-scaling-stroke" d="
  M 120.11 72.90
  A 0.96 0.96 0.0 0 1 121.89 72.81
  Q 122.99 75.15 124.69 76.48
  Q 124.86 76.61 125.03 76.47
  L 125.27 76.28
  Q 125.48 76.12 125.34 75.89
  L 123.38 72.67
  Q 123.09 72.20 123.48 71.81
  L 124.53 70.76
  Q 124.93 70.36 124.95 69.79
  C 125.03 66.60 121.68 66.31 119.22 66.76
  Q 118.61 66.87 118.61 67.49
  L 118.62 75.76
  Q 118.62 76.35 119.21 76.28
  L 119.47 76.25
  A 0.60 0.59 -9.1 0 0 119.98 75.55
  Q 119.71 74.05 120.11 72.90"
/>
<path stroke="#808080" vector-effect="non-scaling-stroke" d="
  M 131.73 67.30
  L 131.73 75.66
  A 0.74 0.74 0.0 0 0 132.47 76.40
  L 134.83 76.40
  A 4.70 4.48 -0.0 0 0 139.53 71.92
  L 139.53 71.04
  A 4.70 4.48 0.0 0 0 134.83 66.56
  L 132.47 66.56
  A 0.74 0.74 0.0 0 0 131.73 67.30"
/>
<path stroke="#808080" vector-effect="non-scaling-stroke" d="
  M 143.51 67.86
  L 146.83 67.77
  A 0.37 0.37 0.0 0 0 147.19 67.40
  L 147.18 67.07
  A 0.43 0.43 0.0 0 0 146.75 66.64
  L 142.55 66.63
  Q 141.73 66.63 141.72 67.45
  L 141.68 75.65
  A 0.73 0.73 0.0 0 0 142.40 76.38
  L 146.11 76.38
  Q 146.57 76.38 146.92 76.07
  Q 147.47 75.58 146.72 75.24
  A 0.15 0.13 50.7 0 0 146.62 75.22
  L 143.82 75.26
  Q 142.85 75.27 142.91 74.31
  L 143.04 72.35
  Q 143.09 71.66 143.78 71.71
  Q 144.72 71.77 145.64 71.96
  Q 146.00 72.04 146.32 71.84
  Q 146.63 71.64 146.74 71.30
  A 0.51 0.50 8.6 0 0 146.25 70.64
  L 143.71 70.69
  A 0.75 0.75 0.0 0 1 142.94 69.96
  L 142.91 68.48
  Q 142.90 67.87 143.51 67.86"
/>
<path stroke="#808080" vector-effect="non-scaling-stroke" d="
  M 161.27 68.65
  L 161.11 75.80
  Q 161.10 76.25 161.55 76.24
  L 162.16 76.22
  Q 162.57 76.21 162.56 75.80
  L 162.49 68.50
  A 0.57 0.57 0.0 0 1 162.99 67.93
  L 165.01 67.68
  A 0.42 0.40 -0.1 0 0 165.37 67.33
  L 165.42 66.99
  Q 165.49 66.49 164.99 66.52
  Q 162.61 66.64 159.98 66.67
  Q 156.58 66.69 159.74 67.96
  Q 160.12 68.12 160.53 68.03
  Q 161.29 67.88 161.27 68.65"
/>
<path stroke="#808080" vector-effect="non-scaling-stroke" d="
  M 168.10 70.01
  Q 167.91 69.24 168.17 68.49
  A 0.97 0.97 0.0 0 1 169.09 67.83
  L 172.06 67.83
  A 0.36 0.36 0.0 0 0 172.42 67.43
  L 172.38 67.10
  A 0.55 0.54 -3.4 0 0 171.82 66.61
  L 167.92 66.70
  Q 166.92 66.72 166.91 67.71
  L 166.82 75.29
  Q 166.81 76.27 167.79 76.30
  L 171.76 76.43
  Q 172.36 76.45 172.29 75.86
  L 172.25 75.55
  A 0.36 0.36 0.0 0 0 171.89 75.22
  L 169.25 75.24
  A 1.22 1.21 -89.8 0 1 168.03 74.00
  L 168.04 73.21
  Q 168.06 71.98 169.29 71.93
  L 171.74 71.84
  Q 172.34 71.82 172.19 71.24
  L 172.07 70.76
  A 0.26 0.25 79.1 0 0 171.80 70.57
  L 169.15 70.77
  Q 168.30 70.83 168.10 70.01"
/>
<path stroke="#808080" vector-effect="non-scaling-stroke" d="
  M 183.74 68.81
  L 183.70 75.77
  Q 183.70 76.27 184.19 76.27
  L 184.46 76.28
  Q 185.00 76.28 185.00 75.74
  L 184.98 68.51
  A 0.57 0.57 0.0 0 1 185.48 67.94
  L 187.73 67.65
  Q 187.97 67.61 188.00 67.38
  L 188.05 67.07
  Q 188.10 66.76 187.78 66.73
  Q 184.47 66.45 181.33 66.81
  Q 180.17 66.94 179.06 66.78
  C 177.13 66.51 174.79 65.96 174.08 68.49
  C 173.41 70.92 176.37 71.87 178.07 72.74
  A 1.14 1.14 0.0 0 1 178.39 74.53
  Q 176.94 76.10 174.70 74.89
  A 0.41 0.41 0.0 0 0 174.10 75.15
  L 174.01 75.51
  Q 173.86 76.09 174.43 76.26
  C 179.65 77.81 182.98 72.94 176.39 70.44
  Q 175.56 70.12 175.36 69.37
  A 1.24 1.24 0.0 0 1 176.73 67.82
  Q 178.33 68.04 179.72 67.57
  Q 180.24 67.39 180.77 67.50
  L 183.07 67.98
  Q 183.75 68.12 183.74 68.81"
/>
<path stroke="#808080" vector-effect="non-scaling-stroke" d="
  M 154.89 73.33
  Q 153.10 70.96 151.43 67.81
  Q 150.84 66.70 149.65 66.70
  A 0.47 0.47 0.0 0 0 149.18 67.11
  Q 148.76 70.32 149.05 74.25
  Q 149.09 74.82 148.88 75.30
  Q 148.65 75.83 149.16 76.07
  Q 149.49 76.22 149.84 76.20
  Q 150.53 76.16 150.50 75.47
  L 150.30 71.47
  Q 150.11 67.61 151.90 71.03
  Q 153.33 73.74 155.18 75.84
  Q 156.72 77.59 156.83 75.26
  Q 157.03 71.32 156.76 67.14
  Q 156.74 66.69 156.29 66.72
  L 155.83 66.75
  A 0.40 0.39 87.1 0 0 155.46 67.17
  L 155.72 73.03
  Q 155.79 74.53 154.89 73.33"
/>
<path stroke="#808080" vector-effect="non-scaling-stroke" d="
  M 209.96 44.78
  A 0.33 0.33 0.0 0 0 210.26 45.24
  L 218.80 45.25
  A 0.33 0.33 0.0 0 0 219.11 44.79
  L 214.86 34.76
  A 0.33 0.33 0.0 0 0 214.25 34.76
  L 209.96 44.78"
/>
<path stroke="#808080" vector-effect="non-scaling-stroke" d="
  M 26.94 28.12
  L 26.98 56.46
  A 1.93 1.93 0.0 0 0 28.92 58.39
  L 31.03 58.39
  A 13.34 12.94 89.9 0 0 43.94 45.03
  L 43.94 39.51
  A 13.34 12.94 89.9 0 0 30.97 26.19
  L 28.86 26.19
  A 1.93 1.93 0.0 0 0 26.94 28.12"
/>
<path stroke="#808080" vector-effect="non-scaling-stroke" d="
  M 112.0900 75.4900
  A 3.96 3.16 90.0 0 0 115.2500 71.5300
  A 3.96 3.16 90.0 0 0 112.0900 67.5700
  A 3.96 3.16 90.0 0 0 108.9300 71.5300
  A 3.96 3.16 90.0 0 0 112.0900 75.4900"
/>
<path stroke="#808080" vector-effect="non-scaling-stroke" d="
  M 123.36 69.51
  A 1.83 1.83 0.0 0 0 121.53 67.68
  A 1.83 1.83 0.0 0 0 119.70 69.51
  A 1.83 1.83 0.0 0 0 121.53 71.34
  A 1.83 1.83 0.0 0 0 123.36 69.51"
/>
<path stroke="#808080" vector-effect="non-scaling-stroke" d="
  M 132.95 68.78
  L 133.03 74.22
  A 1.05 1.05 0.0 0 0 134.10 75.25
  L 134.74 75.24
  A 3.41 3.29 -0.9 0 0 138.10 71.90
  L 138.08 70.94
  A 3.41 3.29 -0.9 0 0 134.62 67.70
  L 133.98 67.71
  A 1.05 1.05 0.0 0 0 132.95 68.78"
/>
</g>
<g fill="#ffffff">
<path d="
  M 0.00 0.00
  L 286.00 0.00
  L 286.00 93.00
  L 0.00 93.00
  L 0.00 0.00
  Z
  M 141.60 46.68
  Q 142.70 46.12 143.85 45.95
  Q 144.64 45.84 144.72 45.04
  Q 144.75 44.76 144.68 44.49
  Q 144.51 43.81 143.81 43.89
  Q 137.30 44.61 130.24 43.80
  Q 129.31 43.69 128.84 44.51
  L 128.63 44.88
  A 0.44 0.44 0.0 0 0 128.88 45.52
  L 131.58 46.31
  A 2.14 2.13 8.0 0 1 133.11 48.33
  L 133.18 56.50
  Q 133.19 57.33 132.41 57.64
  C 124.92 60.63 119.56 55.44 117.59 48.49
  C 114.98 39.28 116.72 22.92 130.96 26.27
  Q 136.07 27.46 137.93 32.95
  Q 138.23 33.85 139.17 33.65
  L 139.54 33.56
  Q 140.44 33.36 140.24 32.46
  L 138.74 25.54
  A 1.83 1.82 87.9 0 0 137.22 24.12
  C 129.36 22.98 121.31 22.39 114.87 27.80
  C 107.49 33.99 105.09 44.83 110.73 52.60
  C 118.09 62.74 130.07 62.36 140.53 57.40
  Q 141.17 57.10 141.07 56.40
  Q 140.50 52.02 140.93 47.66
  Q 140.99 46.99 141.60 46.68
  Z
  M 183.73 47.86
  Q 183.44 47.75 183.34 47.48
  Q 178.49 35.24 174.08 24.03
  A 0.65 0.65 0.0 0 0 172.90 23.96
  Q 171.82 26.00 171.07 28.06
  Q 168.14 36.13 164.92 45.39
  Q 164.51 46.58 164.08 45.40
  L 157.62 27.29
  Q 157.36 26.57 158.10 26.35
  L 160.86 25.56
  Q 161.54 25.36 161.49 24.65
  L 161.46 24.31
  Q 161.42 23.73 160.84 23.78
  Q 153.53 24.34 145.99 23.75
  Q 145.09 23.68 145.16 24.57
  L 145.19 24.96
  A 0.85 0.85 0.0 0 0 145.91 25.74
  Q 148.88 26.18 149.99 29.26
  Q 155.74 45.26 161.10 60.36
  A 0.91 0.91 0.0 0 0 162.65 60.65
  Q 163.38 59.78 163.77 58.69
  Q 167.38 48.54 170.81 38.26
  Q 171.11 37.35 171.47 38.24
  L 180.32 60.31
  A 1.10 1.10 0.0 0 0 182.20 60.60
  Q 182.95 59.67 183.34 58.58
  Q 188.49 44.12 193.17 29.80
  Q 194.56 25.57 198.72 25.57
  A 0.55 0.55 0.0 0 0 199.27 24.98
  L 199.24 24.63
  Q 199.18 23.65 198.20 23.75
  Q 191.98 24.37 186.43 23.72
  A 0.62 0.61 5.8 0 0 185.74 24.28
  L 185.71 24.68
  A 0.94 0.93 8.8 0 0 186.44 25.67
  L 189.88 26.45
  A 0.77 0.76 -75.0 0 1 190.44 27.43
  L 184.03 47.71
  A 0.23 0.23 0.0 0 1 183.73 47.86
  Z
  M 263.92 26.79
  Q 264.90 27.34 264.21 28.23
  L 257.27 37.09
  A 0.42 0.42 0.0 0 1 256.59 37.06
  L 250.30 27.40
  A 0.77 0.77 0.0 0 1 250.75 26.23
  L 252.95 25.66
  Q 253.56 25.51 253.61 24.88
  Q 253.64 24.45 253.38 24.11
  Q 253.07 23.70 252.56 23.73
  Q 244.73 24.24 237.01 23.66
  A 0.66 0.66 0.0 0 0 236.30 24.29
  L 236.29 24.67
  A 0.95 0.95 0.0 0 0 237.12 25.66
  C 238.93 25.88 240.76 26.35 241.80 28.02
  Q 246.31 35.25 250.99 42.10
  Q 251.31 42.56 250.97 43.00
  Q 246.71 48.71 241.94 55.30
  Q 240.63 57.11 238.81 57.90
  C 236.78 58.78 232.62 59.12 231.58 56.54
  Q 224.82 39.72 218.55 24.28
  A 1.13 1.13 0.0 0 0 216.71 23.91
  Q 215.43 25.20 214.43 27.55
  Q 208.35 41.86 202.21 55.76
  Q 201.26 57.90 198.14 58.63
  A 1.10 1.10 0.0 0 0 197.29 59.70
  L 197.29 60.05
  A 0.47 0.46 -2.8 0 0 197.81 60.51
  Q 203.59 59.93 209.06 60.52
  Q 209.90 60.61 210.11 59.80
  L 210.19 59.50
  A 0.50 0.50 0.0 0 0 209.84 58.89
  L 206.29 57.93
  A 1.31 1.30 -71.5 0 1 205.42 56.17
  L 208.58 48.40
  A 0.72 0.72 0.0 0 1 209.25 47.95
  L 219.47 47.92
  A 1.49 1.48 79.2 0 1 220.87 48.88
  L 223.85 56.71
  A 0.74 0.74 0.0 0 1 223.42 57.67
  L 220.14 58.93
  A 0.78 0.78 0.0 0 0 219.81 60.14
  Q 220.16 60.57 220.75 60.53
  C 224.86 60.24 228.91 60.26 233.07 60.37
  C 238.53 60.50 242.81 60.29 249.28 60.52
  A 0.64 0.63 -83.6 0 0 249.92 60.00
  L 249.97 59.69
  A 0.85 0.85 0.0 0 0 249.19 58.70
  Q 247.05 58.56 245.35 57.61
  A 0.92 0.92 0.0 0 1 245.05 56.27
  L 252.68 45.66
  A 0.39 0.39 0.0 0 1 253.33 45.67
  L 260.66 56.80
  A 0.59 0.59 0.0 0 1 260.42 57.66
  Q 259.02 58.31 257.60 58.84
  Q 257.25 58.98 257.09 59.33
  Q 256.88 59.78 257.14 60.20
  Q 257.41 60.63 257.91 60.60
  Q 266.21 60.15 274.81 60.56
  Q 275.44 60.59 275.43 59.95
  L 275.42 59.58
  Q 275.41 58.74 274.57 58.64
  Q 270.83 58.22 268.74 55.24
  Q 263.89 48.31 258.74 40.46
  Q 258.41 39.95 258.80 39.49
  Q 263.55 33.84 267.77 28.84
  Q 270.10 26.06 273.92 25.63
  A 0.64 0.63 -4.8 0 0 274.48 24.97
  L 274.46 24.57
  A 0.78 0.78 0.0 0 0 273.62 23.82
  Q 267.00 24.29 260.44 23.79
  Q 259.91 23.75 259.83 24.28
  L 259.77 24.67
  Q 259.65 25.46 260.43 25.60
  Q 262.44 25.96 263.92 26.79
  Z
  M 18.16 58.00
  L 15.33 58.85
  Q 14.72 59.04 14.69 59.66
  Q 14.68 59.90 14.82 60.13
  Q 15.02 60.45 15.40 60.47
  Q 25.20 60.80 34.00 60.40
  Q 43.76 59.95 49.25 53.36
  C 53.21 48.60 53.85 40.98 51.86 35.38
  C 49.16 27.78 40.63 23.63 32.90 23.78
  Q 24.09 23.96 15.55 23.80
  Q 14.73 23.78 14.70 24.60
  L 14.68 25.00
  A 0.62 0.61 -86.0 0 0 15.23 25.64
  Q 17.19 25.85 18.62 26.72
  Q 19.17 27.05 19.17 27.69
  L 19.20 56.59
  A 1.48 1.47 81.5 0 1 18.16 58.00
  Z
  M 80.86 47.00
  L 70.86 24.24
  A 1.00 0.99 -15.6 0 0 69.83 23.66
  Q 64.83 24.29 59.37 23.69
  A 0.90 0.90 0.0 0 0 58.38 24.72
  Q 58.40 24.89 58.48 25.06
  Q 58.75 25.68 59.41 25.79
  Q 60.84 26.03 61.99 26.66
  A 1.13 1.11 15.4 0 1 62.56 27.65
  Q 62.31 40.61 61.43 54.18
  Q 61.34 55.49 60.97 56.81
  Q 60.81 57.37 60.26 57.57
  L 56.47 58.93
  A 0.75 0.73 77.7 0 0 55.98 59.71
  L 56.01 60.00
  A 0.65 0.64 -5.8 0 0 56.72 60.57
  Q 63.05 59.92 69.36 60.55
  A 0.80 0.79 -84.8 0 0 70.24 59.81
  L 70.27 59.45
  Q 70.31 58.87 69.74 58.72
  L 66.50 57.88
  A 2.10 2.09 8.1 0 1 64.93 55.79
  L 65.60 33.51
  Q 65.67 31.23 66.56 33.33
  L 77.82 59.94
  A 1.00 0.99 -36.1 0 0 79.49 60.20
  Q 80.85 58.62 81.69 56.33
  Q 86.11 44.27 90.49 32.34
  Q 90.64 31.93 91.00 31.69
  A 0.24 0.23 -17.6 0 1 91.37 31.88
  Q 91.59 43.61 92.04 55.93
  C 92.13 58.32 89.57 58.47 87.84 58.71
  A 0.62 0.62 0.0 0 0 87.32 59.45
  L 87.39 59.78
  A 1.07 1.06 81.2 0 0 88.53 60.62
  Q 96.05 59.89 103.49 60.58
  A 0.65 0.65 0.0 0 0 104.20 59.95
  L 104.22 59.55
  Q 104.25 58.62 103.32 58.59
  Q 102.02 58.55 100.86 57.98
  Q 100.35 57.72 100.23 57.16
  Q 99.80 55.13 99.71 52.99
  Q 99.16 39.17 98.89 27.32
  A 0.89 0.89 0.0 0 1 99.53 26.44
  L 102.47 25.57
  Q 102.93 25.44 102.83 24.97
  L 102.76 24.62
  Q 102.54 23.62 101.53 23.73
  Q 95.92 24.31 90.65 23.82
  Q 90.00 23.76 89.81 24.37
  Q 86.24 35.66 81.44 47.00
  A 0.32 0.31 44.6 0 1 80.86 47.00
  Z
  M 102.16 68.95
  A 1.03 1.03 0.0 0 1 102.93 67.97
  Q 104.27 67.63 105.72 67.95
  A 0.60 0.59 -81.7 0 0 106.44 67.41
  L 106.47 67.06
  A 0.41 0.40 -88.7 0 0 106.06 66.62
  L 102.00 66.69
  A 1.05 1.05 0.0 0 0 100.97 67.75
  L 101.03 75.95
  A 0.46 0.46 0.0 0 0 101.50 76.41
  L 101.84 76.41
  Q 102.41 76.41 102.41 75.83
  L 102.39 72.89
  A 0.70 0.70 0.0 0 1 103.12 72.19
  L 105.46 72.28
  Q 105.95 72.30 105.91 71.81
  L 105.88 71.47
  A 0.61 0.60 -5.1 0 0 105.21 70.92
  L 103.41 71.13
  Q 102.65 71.21 102.40 70.49
  Q 102.14 69.74 102.16 68.95
  Z
  M 112.0530 76.6499
  A 5.15 4.57 90.3 0 0 116.6499 71.5239
  A 5.15 4.57 90.3 0 0 112.1070 66.3501
  A 5.15 4.57 90.3 0 0 107.5101 71.4761
  A 5.15 4.57 90.3 0 0 112.0530 76.6499
  Z
  M 120.11 72.90
  A 0.96 0.96 0.0 0 1 121.89 72.81
  Q 122.99 75.15 124.69 76.48
  Q 124.86 76.61 125.03 76.47
  L 125.27 76.28
  Q 125.48 76.12 125.34 75.89
  L 123.38 72.67
  Q 123.09 72.20 123.48 71.81
  L 124.53 70.76
  Q 124.93 70.36 124.95 69.79
  C 125.03 66.60 121.68 66.31 119.22 66.76
  Q 118.61 66.87 118.61 67.49
  L 118.62 75.76
  Q 118.62 76.35 119.21 76.28
  L 119.47 76.25
  A 0.60 0.59 -9.1 0 0 119.98 75.55
  Q 119.71 74.05 120.11 72.90
  Z
  M 131.73 67.30
  L 131.73 75.66
  A 0.74 0.74 0.0 0 0 132.47 76.40
  L 134.83 76.40
  A 4.70 4.48 -0.0 0 0 139.53 71.92
  L 139.53 71.04
  A 4.70 4.48 0.0 0 0 134.83 66.56
  L 132.47 66.56
  A 0.74 0.74 0.0 0 0 131.73 67.30
  Z
  M 143.51 67.86
  L 146.83 67.77
  A 0.37 0.37 0.0 0 0 147.19 67.40
  L 147.18 67.07
  A 0.43 0.43 0.0 0 0 146.75 66.64
  L 142.55 66.63
  Q 141.73 66.63 141.72 67.45
  L 141.68 75.65
  A 0.73 0.73 0.0 0 0 142.40 76.38
  L 146.11 76.38
  Q 146.57 76.38 146.92 76.07
  Q 147.47 75.58 146.72 75.24
  A 0.15 0.13 50.7 0 0 146.62 75.22
  L 143.82 75.26
  Q 142.85 75.27 142.91 74.31
  L 143.04 72.35
  Q 143.09 71.66 143.78 71.71
  Q 144.72 71.77 145.64 71.96
  Q 146.00 72.04 146.32 71.84
  Q 146.63 71.64 146.74 71.30
  A 0.51 0.50 8.6 0 0 146.25 70.64
  L 143.71 70.69
  A 0.75 0.75 0.0 0 1 142.94 69.96
  L 142.91 68.48
  Q 142.90 67.87 143.51 67.86
  Z
  M 161.27 68.65
  L 161.11 75.80
  Q 161.10 76.25 161.55 76.24
  L 162.16 76.22
  Q 162.57 76.21 162.56 75.80
  L 162.49 68.50
  A 0.57 0.57 0.0 0 1 162.99 67.93
  L 165.01 67.68
  A 0.42 0.40 -0.1 0 0 165.37 67.33
  L 165.42 66.99
  Q 165.49 66.49 164.99 66.52
  Q 162.61 66.64 159.98 66.67
  Q 156.58 66.69 159.74 67.96
  Q 160.12 68.12 160.53 68.03
  Q 161.29 67.88 161.27 68.65
  Z
  M 168.10 70.01
  Q 167.91 69.24 168.17 68.49
  A 0.97 0.97 0.0 0 1 169.09 67.83
  L 172.06 67.83
  A 0.36 0.36 0.0 0 0 172.42 67.43
  L 172.38 67.10
  A 0.55 0.54 -3.4 0 0 171.82 66.61
  L 167.92 66.70
  Q 166.92 66.72 166.91 67.71
  L 166.82 75.29
  Q 166.81 76.27 167.79 76.30
  L 171.76 76.43
  Q 172.36 76.45 172.29 75.86
  L 172.25 75.55
  A 0.36 0.36 0.0 0 0 171.89 75.22
  L 169.25 75.24
  A 1.22 1.21 -89.8 0 1 168.03 74.00
  L 168.04 73.21
  Q 168.06 71.98 169.29 71.93
  L 171.74 71.84
  Q 172.34 71.82 172.19 71.24
  L 172.07 70.76
  A 0.26 0.25 79.1 0 0 171.80 70.57
  L 169.15 70.77
  Q 168.30 70.83 168.10 70.01
  Z
  M 183.74 68.81
  L 183.70 75.77
  Q 183.70 76.27 184.19 76.27
  L 184.46 76.28
  Q 185.00 76.28 185.00 75.74
  L 184.98 68.51
  A 0.57 0.57 0.0 0 1 185.48 67.94
  L 187.73 67.65
  Q 187.97 67.61 188.00 67.38
  L 188.05 67.07
  Q 188.10 66.76 187.78 66.73
  Q 184.47 66.45 181.33 66.81
  Q 180.17 66.94 179.06 66.78
  C 177.13 66.51 174.79 65.96 174.08 68.49
  C 173.41 70.92 176.37 71.87 178.07 72.74
  A 1.14 1.14 0.0 0 1 178.39 74.53
  Q 176.94 76.10 174.70 74.89
  A 0.41 0.41 0.0 0 0 174.10 75.15
  L 174.01 75.51
  Q 173.86 76.09 174.43 76.26
  C 179.65 77.81 182.98 72.94 176.39 70.44
  Q 175.56 70.12 175.36 69.37
  A 1.24 1.24 0.0 0 1 176.73 67.82
  Q 178.33 68.04 179.72 67.57
  Q 180.24 67.39 180.77 67.50
  L 183.07 67.98
  Q 183.75 68.12 183.74 68.81
  Z
  M 154.89 73.33
  Q 153.10 70.96 151.43 67.81
  Q 150.84 66.70 149.65 66.70
  A 0.47 0.47 0.0 0 0 149.18 67.11
  Q 148.76 70.32 149.05 74.25
  Q 149.09 74.82 148.88 75.30
  Q 148.65 75.83 149.16 76.07
  Q 149.49 76.22 149.84 76.20
  Q 150.53 76.16 150.50 75.47
  L 150.30 71.47
  Q 150.11 67.61 151.90 71.03
  Q 153.33 73.74 155.18 75.84
  Q 156.72 77.59 156.83 75.26
  Q 157.03 71.32 156.76 67.14
  Q 156.74 66.69 156.29 66.72
  L 155.83 66.75
  A 0.40 0.39 87.1 0 0 155.46 67.17
  L 155.72 73.03
  Q 155.79 74.53 154.89 73.33
  Z"
/>
<path d="
  M 26.94 28.12
  A 1.93 1.93 0.0 0 1 28.86 26.19
  L 30.97 26.19
  A 13.34 12.94 89.9 0 1 43.94 39.51
  L 43.94 45.03
  A 13.34 12.94 89.9 0 1 31.03 58.39
  L 28.92 58.39
  A 1.93 1.93 0.0 0 1 26.98 56.46
  L 26.94 28.12
  Z"
/>
<path d="
  M 209.96 44.78
  L 214.25 34.76
  A 0.33 0.33 0.0 0 1 214.86 34.76
  L 219.11 44.79
  A 0.33 0.33 0.0 0 1 218.80 45.25
  L 210.26 45.24
  A 0.33 0.33 0.0 0 1 209.96 44.78
  Z"
/>
<ellipse cx="0.00" cy="0.00" transform="translate(112.09,71.53) rotate(90.0)" rx="3.96" ry="3.16"/>
<circle cx="121.53" cy="69.51" r="1.83"/>
<path d="
  M 132.95 68.78
  A 1.05 1.05 0.0 0 1 133.98 67.71
  L 134.62 67.70
  A 3.41 3.29 -0.9 0 1 138.08 70.94
  L 138.10 71.90
  A 3.41 3.29 -0.9 0 1 134.74 75.24
  L 134.10 75.25
  A 1.05 1.05 0.0 0 1 133.03 74.22
  L 132.95 68.78
  Z"
/>
</g>
<g fill="#010101">
<path d="
  M 140.93 47.66
  Q 140.50 52.02 141.07 56.40
  Q 141.17 57.10 140.53 57.40
  C 130.07 62.36 118.09 62.74 110.73 52.60
  C 105.09 44.83 107.49 33.99 114.87 27.80
  C 121.31 22.39 129.36 22.98 137.22 24.12
  A 1.83 1.82 87.9 0 1 138.74 25.54
  L 140.24 32.46
  Q 140.44 33.36 139.54 33.56
  L 139.17 33.65
  Q 138.23 33.85 137.93 32.95
  Q 136.07 27.46 130.96 26.27
  C 116.72 22.92 114.98 39.28 117.59 48.49
  C 119.56 55.44 124.92 60.63 132.41 57.64
  Q 133.19 57.33 133.18 56.50
  L 133.11 48.33
  A 2.14 2.13 8.0 0 0 131.58 46.31
  L 128.88 45.52
  A 0.44 0.44 0.0 0 1 128.63 44.88
  L 128.84 44.51
  Q 129.31 43.69 130.24 43.80
  Q 137.30 44.61 143.81 43.89
  Q 144.51 43.81 144.68 44.49
  Q 144.75 44.76 144.72 45.04
  Q 144.64 45.84 143.85 45.95
  Q 142.70 46.12 141.60 46.68
  Q 140.99 46.99 140.93 47.66
  Z"
/>
<path d="
  M 183.73 47.86
  A 0.23 0.23 0.0 0 0 184.03 47.71
  L 190.44 27.43
  A 0.77 0.76 -75.0 0 0 189.88 26.45
  L 186.44 25.67
  A 0.94 0.93 8.8 0 1 185.71 24.68
  L 185.74 24.28
  A 0.62 0.61 5.8 0 1 186.43 23.72
  Q 191.98 24.37 198.20 23.75
  Q 199.18 23.65 199.24 24.63
  L 199.27 24.98
  A 0.55 0.55 0.0 0 1 198.72 25.57
  Q 194.56 25.57 193.17 29.80
  Q 188.49 44.12 183.34 58.58
  Q 182.95 59.67 182.20 60.60
  A 1.10 1.10 0.0 0 1 180.32 60.31
  L 171.47 38.24
  Q 171.11 37.35 170.81 38.26
  Q 167.38 48.54 163.77 58.69
  Q 163.38 59.78 162.65 60.65
  A 0.91 0.91 0.0 0 1 161.10 60.36
  Q 155.74 45.26 149.99 29.26
  Q 148.88 26.18 145.91 25.74
  A 0.85 0.85 0.0 0 1 145.19 24.96
  L 145.16 24.57
  Q 145.09 23.68 145.99 23.75
  Q 153.53 24.34 160.84 23.78
  Q 161.42 23.73 161.46 24.31
  L 161.49 24.65
  Q 161.54 25.36 160.86 25.56
  L 158.10 26.35
  Q 157.36 26.57 157.62 27.29
  L 164.08 45.40
  Q 164.51 46.58 164.92 45.39
  Q 168.14 36.13 171.07 28.06
  Q 171.82 26.00 172.90 23.96
  A 0.65 0.65 0.0 0 1 174.08 24.03
  Q 178.49 35.24 183.34 47.48
  Q 183.44 47.75 183.73 47.86
  Z"
/>
<path d="
  M 263.92 26.79
  Q 262.44 25.96 260.43 25.60
  Q 259.65 25.46 259.77 24.67
  L 259.83 24.28
  Q 259.91 23.75 260.44 23.79
  Q 267.00 24.29 273.62 23.82
  A 0.78 0.78 0.0 0 1 274.46 24.57
  L 274.48 24.97
  A 0.64 0.63 -4.8 0 1 273.92 25.63
  Q 270.10 26.06 267.77 28.84
  Q 263.55 33.84 258.80 39.49
  Q 258.41 39.95 258.74 40.46
  Q 263.89 48.31 268.74 55.24
  Q 270.83 58.22 274.57 58.64
  Q 275.41 58.74 275.42 59.58
  L 275.43 59.95
  Q 275.44 60.59 274.81 60.56
  Q 266.21 60.15 257.91 60.60
  Q 257.41 60.63 257.14 60.20
  Q 256.88 59.78 257.09 59.33
  Q 257.25 58.98 257.60 58.84
  Q 259.02 58.31 260.42 57.66
  A 0.59 0.59 0.0 0 0 260.66 56.80
  L 253.33 45.67
  A 0.39 0.39 0.0 0 0 252.68 45.66
  L 245.05 56.27
  A 0.92 0.92 0.0 0 0 245.35 57.61
  Q 247.05 58.56 249.19 58.70
  A 0.85 0.85 0.0 0 1 249.97 59.69
  L 249.92 60.00
  A 0.64 0.63 -83.6 0 1 249.28 60.52
  C 242.81 60.29 238.53 60.50 233.07 60.37
  C 228.91 60.26 224.86 60.24 220.75 60.53
  Q 220.16 60.57 219.81 60.14
  A 0.78 0.78 0.0 0 1 220.14 58.93
  L 223.42 57.67
  A 0.74 0.74 0.0 0 0 223.85 56.71
  L 220.87 48.88
  A 1.49 1.48 79.2 0 0 219.47 47.92
  L 209.25 47.95
  A 0.72 0.72 0.0 0 0 208.58 48.40
  L 205.42 56.17
  A 1.31 1.30 -71.5 0 0 206.29 57.93
  L 209.84 58.89
  A 0.50 0.50 0.0 0 1 210.19 59.50
  L 210.11 59.80
  Q 209.90 60.61 209.06 60.52
  Q 203.59 59.93 197.81 60.51
  A 0.47 0.46 -2.8 0 1 197.29 60.05
  L 197.29 59.70
  A 1.10 1.10 0.0 0 1 198.14 58.63
  Q 201.26 57.90 202.21 55.76
  Q 208.35 41.86 214.43 27.55
  Q 215.43 25.20 216.71 23.91
  A 1.13 1.13 0.0 0 1 218.55 24.28
  Q 224.82 39.72 231.58 56.54
  C 232.62 59.12 236.78 58.78 238.81 57.90
  Q 240.63 57.11 241.94 55.30
  Q 246.71 48.71 250.97 43.00
  Q 251.31 42.56 250.99 42.10
  Q 246.31 35.25 241.80 28.02
  C 240.76 26.35 238.93 25.88 237.12 25.66
  A 0.95 0.95 0.0 0 1 236.29 24.67
  L 236.30 24.29
  A 0.66 0.66 0.0 0 1 237.01 23.66
  Q 244.73 24.24 252.56 23.73
  Q 253.07 23.70 253.38 24.11
  Q 253.64 24.45 253.61 24.88
  Q 253.56 25.51 252.95 25.66
  L 250.75 26.23
  A 0.77 0.77 0.0 0 0 250.30 27.40
  L 256.59 37.06
  A 0.42 0.42 0.0 0 0 257.27 37.09
  L 264.21 28.23
  Q 264.90 27.34 263.92 26.79
  Z
  M 209.96 44.78
  A 0.33 0.33 0.0 0 0 210.26 45.24
  L 218.80 45.25
  A 0.33 0.33 0.0 0 0 219.11 44.79
  L 214.86 34.76
  A 0.33 0.33 0.0 0 0 214.25 34.76
  L 209.96 44.78
  Z"
/>
<path d="
  M 18.16 58.00
  A 1.48 1.47 81.5 0 0 19.20 56.59
  L 19.17 27.69
  Q 19.17 27.05 18.62 26.72
  Q 17.19 25.85 15.23 25.64
  A 0.62 0.61 -86.0 0 1 14.68 25.00
  L 14.70 24.60
  Q 14.73 23.78 15.55 23.80
  Q 24.09 23.96 32.90 23.78
  C 40.63 23.63 49.16 27.78 51.86 35.38
  C 53.85 40.98 53.21 48.60 49.25 53.36
  Q 43.76 59.95 34.00 60.40
  Q 25.20 60.80 15.40 60.47
  Q 15.02 60.45 14.82 60.13
  Q 14.68 59.90 14.69 59.66
  Q 14.72 59.04 15.33 58.85
  L 18.16 58.00
  Z
  M 26.94 28.12
  L 26.98 56.46
  A 1.93 1.93 0.0 0 0 28.92 58.39
  L 31.03 58.39
  A 13.34 12.94 89.9 0 0 43.94 45.03
  L 43.94 39.51
  A 13.34 12.94 89.9 0 0 30.97 26.19
  L 28.86 26.19
  A 1.93 1.93 0.0 0 0 26.94 28.12
  Z"
/>
<path d="
  M 80.86 47.00
  A 0.32 0.31 44.6 0 0 81.44 47.00
  Q 86.24 35.66 89.81 24.37
  Q 90.00 23.76 90.65 23.82
  Q 95.92 24.31 101.53 23.73
  Q 102.54 23.62 102.76 24.62
  L 102.83 24.97
  Q 102.93 25.44 102.47 25.57
  L 99.53 26.44
  A 0.89 0.89 0.0 0 0 98.89 27.32
  Q 99.16 39.17 99.71 52.99
  Q 99.80 55.13 100.23 57.16
  Q 100.35 57.72 100.86 57.98
  Q 102.02 58.55 103.32 58.59
  Q 104.25 58.62 104.22 59.55
  L 104.20 59.95
  A 0.65 0.65 0.0 0 1 103.49 60.58
  Q 96.05 59.89 88.53 60.62
  A 1.07 1.06 81.2 0 1 87.39 59.78
  L 87.32 59.45
  A 0.62 0.62 0.0 0 1 87.84 58.71
  C 89.57 58.47 92.13 58.32 92.04 55.93
  Q 91.59 43.61 91.37 31.88
  A 0.24 0.23 -17.6 0 0 91.00 31.69
  Q 90.64 31.93 90.49 32.34
  Q 86.11 44.27 81.69 56.33
  Q 80.85 58.62 79.49 60.20
  A 1.00 0.99 -36.1 0 1 77.82 59.94
  L 66.56 33.33
  Q 65.67 31.23 65.60 33.51
  L 64.93 55.79
  A 2.10 2.09 8.1 0 0 66.50 57.88
  L 69.74 58.72
  Q 70.31 58.87 70.27 59.45
  L 70.24 59.81
  A 0.80 0.79 -84.8 0 1 69.36 60.55
  Q 63.05 59.92 56.72 60.57
  A 0.65 0.64 -5.8 0 1 56.01 60.00
  L 55.98 59.71
  A 0.75 0.73 77.7 0 1 56.47 58.93
  L 60.26 57.57
  Q 60.81 57.37 60.97 56.81
  Q 61.34 55.49 61.43 54.18
  Q 62.31 40.61 62.56 27.65
  A 1.13 1.11 15.4 0 0 61.99 26.66
  Q 60.84 26.03 59.41 25.79
  Q 58.75 25.68 58.48 25.06
  Q 58.40 24.89 58.38 24.72
  A 0.90 0.90 0.0 0 1 59.37 23.69
  Q 64.83 24.29 69.83 23.66
  A 1.00 0.99 -15.6 0 1 70.86 24.24
  L 80.86 47.00
  Z"
/>
<path d="
  M 103.41 71.13
  L 105.21 70.92
  A 0.61 0.60 -5.1 0 1 105.88 71.47
  L 105.91 71.81
  Q 105.95 72.30 105.46 72.28
  L 103.12 72.19
  A 0.70 0.70 0.0 0 0 102.39 72.89
  L 102.41 75.83
  Q 102.41 76.41 101.84 76.41
  L 101.50 76.41
  A 0.46 0.46 0.0 0 1 101.03 75.95
  L 100.97 67.75
  A 1.05 1.05 0.0 0 1 102.00 66.69
  L 106.06 66.62
  A 0.41 0.40 -88.7 0 1 106.47 67.06
  L 106.44 67.41
  A 0.60 0.59 -81.7 0 1 105.72 67.95
  Q 104.27 67.63 102.93 67.97
  A 1.03 1.03 0.0 0 0 102.16 68.95
  Q 102.14 69.74 102.40 70.49
  Q 102.65 71.21 103.41 71.13
  Z"
/>
<path d="
  M 112.0530 76.6499
  A 5.15 4.57 90.3 0 1 107.5101 71.4761
  A 5.15 4.57 90.3 0 1 112.1070 66.3501
  A 5.15 4.57 90.3 0 1 116.6499 71.5239
  A 5.15 4.57 90.3 0 1 112.0530 76.6499
  Z
  M 112.0900 75.4900
  A 3.96 3.16 90.0 0 0 115.2500 71.5300
  A 3.96 3.16 90.0 0 0 112.0900 67.5700
  A 3.96 3.16 90.0 0 0 108.9300 71.5300
  A 3.96 3.16 90.0 0 0 112.0900 75.4900
  Z"
/>
<path d="
  M 120.11 72.90
  Q 119.71 74.05 119.98 75.55
  A 0.60 0.59 -9.1 0 1 119.47 76.25
  L 119.21 76.28
  Q 118.62 76.35 118.62 75.76
  L 118.61 67.49
  Q 118.61 66.87 119.22 66.76
  C 121.68 66.31 125.03 66.60 124.95 69.79
  Q 124.93 70.36 124.53 70.76
  L 123.48 71.81
  Q 123.09 72.20 123.38 72.67
  L 125.34 75.89
  Q 125.48 76.12 125.27 76.28
  L 125.03 76.47
  Q 124.86 76.61 124.69 76.48
  Q 122.99 75.15 121.89 72.81
  A 0.96 0.96 0.0 0 0 120.11 72.90
  Z
  M 123.36 69.51
  A 1.83 1.83 0.0 0 0 121.53 67.68
  A 1.83 1.83 0.0 0 0 119.70 69.51
  A 1.83 1.83 0.0 0 0 121.53 71.34
  A 1.83 1.83 0.0 0 0 123.36 69.51
  Z"
/>
<path d="
  M 131.73 67.30
  A 0.74 0.74 0.0 0 1 132.47 66.56
  L 134.83 66.56
  A 4.70 4.48 -0.0 0 1 139.53 71.04
  L 139.53 71.92
  A 4.70 4.48 -0.0 0 1 134.83 76.40
  L 132.47 76.40
  A 0.74 0.74 0.0 0 1 131.73 75.66
  L 131.73 67.30
  Z
  M 132.95 68.78
  L 133.03 74.22
  A 1.05 1.05 0.0 0 0 134.10 75.25
  L 134.74 75.24
  A 3.41 3.29 -0.9 0 0 138.10 71.90
  L 138.08 70.94
  A 3.41 3.29 -0.9 0 0 134.62 67.70
  L 133.98 67.71
  A 1.05 1.05 0.0 0 0 132.95 68.78
  Z"
/>
<path d="
  M 142.91 68.48
  L 142.94 69.96
  A 0.75 0.75 0.0 0 0 143.71 70.69
  L 146.25 70.64
  A 0.51 0.50 8.6 0 1 146.74 71.30
  Q 146.63 71.64 146.32 71.84
  Q 146.00 72.04 145.64 71.96
  Q 144.72 71.77 143.78 71.71
  Q 143.09 71.66 143.04 72.35
  L 142.91 74.31
  Q 142.85 75.27 143.82 75.26
  L 146.62 75.22
  A 0.15 0.13 50.7 0 1 146.72 75.24
  Q 147.47 75.58 146.92 76.07
  Q 146.57 76.38 146.11 76.38
  L 142.40 76.38
  A 0.73 0.73 0.0 0 1 141.68 75.65
  L 141.72 67.45
  Q 141.73 66.63 142.55 66.63
  L 146.75 66.64
  A 0.43 0.43 0.0 0 1 147.18 67.07
  L 147.19 67.40
  A 0.37 0.37 0.0 0 1 146.83 67.77
  L 143.51 67.86
  Q 142.90 67.87 142.91 68.48
  Z"
/>
<path d="
  M 160.53 68.03
  Q 160.12 68.12 159.74 67.96
  Q 156.58 66.69 159.98 66.67
  Q 162.61 66.64 164.99 66.52
  Q 165.49 66.49 165.42 66.99
  L 165.37 67.33
  A 0.42 0.40 -0.1 0 1 165.01 67.68
  L 162.99 67.93
  A 0.57 0.57 0.0 0 0 162.49 68.50
  L 162.56 75.80
  Q 162.57 76.21 162.16 76.22
  L 161.55 76.24
  Q 161.10 76.25 161.11 75.80
  L 161.27 68.65
  Q 161.29 67.88 160.53 68.03
  Z"
/>
<path d="
  M 169.15 70.77
  L 171.80 70.57
  A 0.26 0.25 79.1 0 1 172.07 70.76
  L 172.19 71.24
  Q 172.34 71.82 171.74 71.84
  L 169.29 71.93
  Q 168.06 71.98 168.04 73.21
  L 168.03 74.00
  A 1.22 1.21 -89.8 0 0 169.25 75.24
  L 171.89 75.22
  A 0.36 0.36 0.0 0 1 172.25 75.55
  L 172.29 75.86
  Q 172.36 76.45 171.76 76.43
  L 167.79 76.30
  Q 166.81 76.27 166.82 75.29
  L 166.91 67.71
  Q 166.92 66.72 167.92 66.70
  L 171.82 66.61
  A 0.55 0.54 -3.4 0 1 172.38 67.10
  L 172.42 67.43
  A 0.36 0.36 0.0 0 1 172.06 67.83
  L 169.09 67.83
  A 0.97 0.97 0.0 0 0 168.17 68.49
  Q 167.91 69.24 168.10 70.01
  Q 168.30 70.83 169.15 70.77
  Z"
/>
<path d="
  M 183.07 67.98
  L 180.77 67.50
  Q 180.24 67.39 179.72 67.57
  Q 178.33 68.04 176.73 67.82
  A 1.24 1.24 0.0 0 0 175.36 69.37
  Q 175.56 70.12 176.39 70.44
  C 182.98 72.94 179.65 77.81 174.43 76.26
  Q 173.86 76.09 174.01 75.51
  L 174.10 75.15
  A 0.41 0.41 0.0 0 1 174.70 74.89
  Q 176.94 76.10 178.39 74.53
  A 1.14 1.14 0.0 0 0 178.07 72.74
  C 176.37 71.87 173.41 70.92 174.08 68.49
  C 174.79 65.96 177.13 66.51 179.06 66.78
  Q 180.17 66.94 181.33 66.81
  Q 184.47 66.45 187.78 66.73
  Q 188.10 66.76 188.05 67.07
  L 188.00 67.38
  Q 187.97 67.61 187.73 67.65
  L 185.48 67.94
  A 0.57 0.57 0.0 0 0 184.98 68.51
  L 185.00 75.74
  Q 185.00 76.28 184.46 76.28
  L 184.19 76.27
  Q 183.70 76.27 183.70 75.77
  L 183.74 68.81
  Q 183.75 68.12 183.07 67.98
  Z"
/>
<path d="
  M 154.89 73.33
  Q 155.79 74.53 155.72 73.03
  L 155.46 67.17
  A 0.40 0.39 87.1 0 1 155.83 66.75
  L 156.29 66.72
  Q 156.74 66.69 156.76 67.14
  Q 157.03 71.32 156.83 75.26
  Q 156.72 77.59 155.18 75.84
  Q 153.33 73.74 151.90 71.03
  Q 150.11 67.61 150.30 71.47
  L 150.50 75.47
  Q 150.53 76.16 149.84 76.20
  Q 149.49 76.22 149.16 76.07
  Q 148.65 75.83 148.88 75.30
  Q 149.09 74.82 149.05 74.25
  Q 148.76 70.32 149.18 67.11
  A 0.47 0.47 0.0 0 1 149.65 66.70
  Q 150.84 66.70 151.43 67.81
  Q 153.10 70.96 154.89 73.33
  Z"
/>
</g>
</svg>
